GeoramaSemiCondensed-Thin.ufo
<glyph name="exclam" format="2">
  <advance width="158.4"/>
  <unicode hex="0021"/>
  <outline>
    <contour>
      <point x="69.2" y="264.0" type="line"/>
      <point x="89.2" y="264.0" type="line"/>
      <point x="89.2" y="740.0" type="line"/>
      <point x="69.2" y="740.0" type="line"/>
    </contour>
    <contour>
      <point x="64.6" y="17.0" type="curve" smooth="yes"/>
      <point x="64.6" y="1.0"/>
      <point x="65.8" y="0.0"/>
      <point x="79.2" y="0.0" type="curve" smooth="yes"/>
      <point x="93.6" y="0.0"/>
      <point x="93.8" y="1.0"/>
      <point x="93.8" y="17.0" type="curve" smooth="yes"/>
      <point x="93.8" y="33.0"/>
      <point x="93.6" y="34.0"/>
      <point x="79.2" y="34.0" type="curve" smooth="yes"/>
      <point x="64.8" y="34.0"/>
      <point x="64.6" y="33.0"/>
    </contour>
  </outline>
</glyph>
<glyph name="numbersign" format="2">
  <advance width="406.8"/>
  <unicode hex="0023"/>
  <outline>
    <contour>
      <point x="61.400000000000006" y="481.4" type="line"/>
      <point x="141.0" y="481.4" type="line"/>
      <point x="100.6" y="216.0" type="line"/>
      <point x="28.8" y="216.0" type="line"/>
      <point x="28.8" y="196.4" type="line"/>
      <point x="97.80000000000001" y="196.4" type="line"/>
      <point x="68.2" y="0.0" type="line"/>
      <point x="88.2" y="0.0" type="line"/>
      <point x="117.80000000000001" y="196.4" type="line"/>
      <point x="243.8" y="196.4" type="line"/>
      <point x="214.2" y="0.0" type="line"/>
      <point x="234.2" y="0.0" type="line"/>
      <point x="263.8" y="196.4" type="line"/>
      <point x="345.4" y="196.4" type="line"/>
      <point x="345.4" y="216.0" type="line"/>
      <point x="266.6" y="216.0" type="line"/>
      <point x="307.0" y="481.4" type="line"/>
      <point x="378.0" y="481.4" type="line"/>
      <point x="378.0" y="501.0" type="line"/>
      <point x="310.4" y="501.0" type="line"/>
      <point x="341.2" y="700.0" type="line"/>
      <point x="321.2" y="700.0" type="line"/>
      <point x="290.4" y="501.0" type="line"/>
      <point x="164.4" y="501.0" type="line"/>
      <point x="195.2" y="700.0" type="line"/>
      <point x="175.2" y="700.0" type="line"/>
      <point x="144.4" y="501.0" type="line"/>
      <point x="61.400000000000006" y="501.0" type="line"/>
    </contour>
    <contour>
      <point x="161.0" y="481.4" type="line"/>
      <point x="287.0" y="481.4" type="line"/>
      <point x="246.60000000000002" y="216.0" type="line"/>
      <point x="120.6" y="216.0" type="line"/>
    </contour>
  </outline>
</glyph>
<glyph name="dollar" format="2">
  <advance width="406.8"/>
  <unicode hex="0024"/>
  <outline>
    <contour>
      <point x="190.0" y="-10.0" type="curve" smooth="yes"/>
      <point x="293.8" y="-10.0"/>
      <point x="350.20000000000005" y="44.6"/>
      <point x="350.20000000000005" y="135.0" type="curve" smooth="yes"/>
      <point x="350.20000000000005" y="231.2"/>
      <point x="303.8" y="294.4"/>
      <point x="219.4" y="355.0" type="curve" smooth="yes"/>
      <point x="139.0" y="413.8"/>
      <point x="92.0" y="477.2"/>
      <point x="92.0" y="566.8" type="curve" smooth="yes"/>
      <point x="92.0" y="643.8"/>
      <point x="138.6" y="691.6"/>
      <point x="217.60000000000002" y="691.6" type="curve" smooth="yes"/>
      <point x="251.60000000000002" y="691.6"/>
      <point x="289.8" y="683.4"/>
      <point x="319.6" y="672.2" type="curve"/>
      <point x="327.20000000000005" y="689.0" type="line"/>
      <point x="295.6" y="702.0"/>
      <point x="252.0" y="710.0"/>
      <point x="215.60000000000002" y="710.0" type="curve" smooth="yes"/>
      <point x="124.80000000000001" y="709.6"/>
      <point x="71.8" y="655.2"/>
      <point x="71.8" y="566.8" type="curve" smooth="yes"/>
      <point x="71.8" y="470.2"/>
      <point x="120.80000000000001" y="403.6"/>
      <point x="205.4" y="342.2" type="curve" smooth="yes"/>
      <point x="285.6" y="282.6"/>
      <point x="330.20000000000005" y="220.8"/>
      <point x="330.20000000000005" y="132.6" type="curve" smooth="yes"/>
      <point x="330.20000000000005" y="56.2"/>
      <point x="282.20000000000005" y="9.2"/>
      <point x="193.60000000000002" y="9.2" type="curve" smooth="yes"/>
      <point x="152.2" y="9.2"/>
      <point x="100.6" y="18.4"/>
      <point x="63.4" y="33.2" type="curve"/>
      <point x="56.6" y="14.8" type="line"/>
      <point x="94.2" y="-0.1999999999999993"/>
      <point x="148.4" y="-10.0"/>
    </contour>
    <contour>
      <point x="202.0" y="-105.0" type="line"/>
      <point x="222.0" y="-105.0" type="line"/>
      <point x="222.0" y="-0.20000000000000018" type="line"/>
      <point x="202.0" y="-4.2" type="line"/>
    </contour>
    <contour>
      <point x="202.0" y="703.4" type="line"/>
      <point x="222.0" y="705.0" type="line"/>
      <point x="222.0" y="805.0" type="line"/>
      <point x="202.0" y="805.0" type="line"/>
    </contour>
  </outline>
</glyph>
<glyph name="ampersand" format="2">
  <advance width="472.6"/>
  <unicode hex="0026"/>
  <outline>
    <contour>
      <point x="450.4" y="-14.6" type="line"/>
      <point x="466.8" y="-2.1999999999999997" type="line"/>
      <point x="149.8" y="402.6" type="line" smooth="yes"/>
      <point x="110.4" y="458.2"/>
      <point x="95.6" y="507.2"/>
      <point x="95.6" y="556.6" type="curve" smooth="yes"/>
      <point x="95.6" y="644.4"/>
      <point x="135.8" y="690.0"/>
      <point x="211.4" y="690.0" type="curve" smooth="yes"/>
      <point x="283.2" y="690.0"/>
      <point x="319.0" y="643.2"/>
      <point x="319.0" y="563.8" type="curve" smooth="yes"/>
      <point x="319.0" y="505.2"/>
      <point x="304.2" y="460.0"/>
      <point x="261.8" y="429.6" type="curve"/>
      <point x="275.4" y="417.8" type="line"/>
      <point x="321.8" y="453.8"/>
      <point x="339.0" y="503.4"/>
      <point x="339.0" y="565.8" type="curve" smooth="yes"/>
      <point x="339.0" y="657.4"/>
      <point x="295.4" y="710.0"/>
      <point x="211.4" y="710.0" type="curve" smooth="yes"/>
      <point x="122.0" y="710.0"/>
      <point x="75.6" y="658.2"/>
      <point x="75.6" y="556.6" type="curve" smooth="yes"/>
      <point x="75.6" y="504.4"/>
      <point x="93.8" y="447.0"/>
      <point x="135.2" y="386.6" type="curve" smooth="yes"/>
    </contour>
    <contour>
      <point x="207.6" y="-10.0" type="curve" smooth="yes"/>
      <point x="282.2" y="-10.0"/>
      <point x="337.6" y="25.8"/>
      <point x="372.4" y="92.4" type="curve"/>
      <point x="361.0" y="110.2" type="line"/>
      <point x="325.8" y="45.0"/>
      <point x="281.2" y="10.0"/>
      <point x="207.6" y="10.0" type="curve" smooth="yes"/>
      <point x="110.0" y="10.0"/>
      <point x="53.0" y="80.2"/>
      <point x="53.0" y="178.8" type="curve" smooth="yes"/>
      <point x="53.0" y="271.6"/>
      <point x="83.4" y="326.8"/>
      <point x="151.8" y="383.8" type="curve"/>
      <point x="142.2" y="398.0" type="line"/>
      <point x="67.2" y="344.0"/>
      <point x="33.0" y="278.6"/>
      <point x="33.0" y="178.8" type="curve" smooth="yes"/>
      <point x="33.0" y="67.2"/>
      <point x="96.2" y="-10.0"/>
    </contour>
    <contour>
      <point x="379.2" y="101.8" type="line"/>
      <point x="406.6" y="159.6"/>
      <point x="421.6" y="235.2"/>
      <point x="421.6" y="317.4" type="curve" smooth="yes"/>
      <point x="421.6" y="341.0"/>
      <point x="420.0" y="358.4"/>
      <point x="416.0" y="377.2" type="curve"/>
      <point x="397.0" y="373.4" type="line"/>
      <point x="401.0" y="354.6"/>
      <point x="402.4" y="338.4"/>
      <point x="402.4" y="317.4" type="curve" smooth="yes"/>
      <point x="402.4" y="239.2"/>
      <point x="389.8" y="170.4"/>
      <point x="367.0" y="122.2" type="curve"/>
    </contour>
  </outline>
</glyph>
<glyph name="quotesingle" format="2">
  <advance width="127.2"/>
  <unicode hex="0027"/>
  <outline>
    <contour>
      <point x="57.6" y="427.0" type="line"/>
      <point x="69.6" y="427.0" type="line"/>
      <point x="74.6" y="700.0" type="line"/>
      <point x="52.6" y="700.0" type="line"/>
    </contour>
  </outline>
</glyph>
<glyph name="parenleft" format="2">
  <advance width="230.0"/>
  <unicode hex="0028"/>
  <outline>
    <contour>
      <point x="71.8" y="265.0" type="curve" smooth="yes"/>
      <point x="71.8" y="-3.1999999999999993"/>
      <point x="125.8" y="-192.0"/>
      <point x="219.2" y="-220.8" type="curve"/>
      <point x="219.2" y="-196.8" type="line"/>
      <point x="139.4" y="-162.6"/>
      <point x="93.4" y="9.0"/>
      <point x="93.4" y="265.0" type="curve" smooth="yes"/>
      <point x="93.4" y="521.0"/>
      <point x="139.4" y="692.6"/>
      <point x="219.2" y="726.8" type="curve"/>
      <point x="219.2" y="750.8" type="line"/>
      <point x="125.8" y="722.0"/>
      <point x="71.8" y="533.2"/>
    </contour>
  </outline>
</glyph>
<glyph name="parenright" format="2">
  <advance width="230.0"/>
  <unicode hex="0029"/>
  <outline>
    <contour>
      <point x="10.8" y="-196.8" type="curve"/>
      <point x="10.8" y="-220.8" type="line"/>
      <point x="104.2" y="-192.0"/>
      <point x="158.2" y="-3.1999999999999993"/>
      <point x="158.2" y="265.0" type="curve" smooth="yes"/>
      <point x="158.2" y="533.2"/>
      <point x="104.2" y="722.0"/>
      <point x="10.8" y="750.8" type="curve"/>
      <point x="10.8" y="726.8" type="line"/>
      <point x="90.6" y="692.6"/>
      <point x="136.6" y="521.0"/>
      <point x="136.6" y="265.0" type="curve" smooth="yes"/>
      <point x="136.6" y="9.0"/>
      <point x="90.6" y="-162.6"/>
    </contour>
  </outline>
</glyph>
<glyph name="asterisk" format="2">
  <advance width="238.8"/>
  <unicode hex="002A"/>
  <outline>
    <contour>
      <point x="55.0" y="380.6" type="line"/>
      <point x="119.6" y="485.4" type="line"/>
      <point x="183.4" y="380.4" type="line"/>
      <point x="198.0" y="390.2" type="line"/>
      <point x="132.8" y="499.0" type="line"/>
      <point x="236.2" y="546.2" type="line"/>
      <point x="229.6" y="562.0" type="line"/>
      <point x="128.8" y="516.8" type="line"/>
      <point x="128.8" y="649.2" type="line"/>
      <point x="110.4" y="649.2" type="line"/>
      <point x="110.4" y="516.8" type="line"/>
      <point x="9.2" y="562.0" type="line"/>
      <point x="2.6" y="546.2" type="line"/>
      <point x="106.4" y="499.0" type="line"/>
      <point x="40.2" y="390.6" type="line"/>
    </contour>
  </outline>
</glyph>
<glyph name="plus" format="2">
  <advance width="408.0"/>
  <unicode hex="002B"/>
  <outline>
    <contour>
      <point x="194.0" y="72.0" type="line"/>
      <point x="214.0" y="72.0" type="line"/>
      <point x="214.0" y="279.0" type="line"/>
      <point x="364.2" y="279.0" type="line"/>
      <point x="364.2" y="299.0" type="line"/>
      <point x="214.0" y="299.0" type="line"/>
      <point x="214.0" y="506.0" type="line"/>
      <point x="194.0" y="506.0" type="line"/>
      <point x="194.0" y="299.0" type="line"/>
      <point x="43.8" y="299.0" type="line"/>
      <point x="43.8" y="279.0" type="line"/>
      <point x="194.0" y="279.0" type="line"/>
    </contour>
  </outline>
</glyph>
<glyph name="comma" format="2">
  <advance width="116.2"/>
  <unicode hex="002C"/>
  <outline>
    <contour>
      <point x="46.8" y="32.8" type="line"/>
      <point x="54.4" y="12.8"/>
      <point x="58.8" y="-10.0"/>
      <point x="58.8" y="-28.2" type="curve" smooth="yes"/>
      <point x="58.8" y="-89.4"/>
      <point x="38.4" y="-156.8"/>
      <point x="-8.799999999999999" y="-187.0" type="curve"/>
      <point x="1.5999999999999996" y="-203.2" type="line"/>
      <point x="58.8" y="-167.2"/>
      <point x="78.8" y="-85.6"/>
      <point x="78.8" y="-27.8" type="curve" smooth="yes"/>
      <point x="78.8" y="-5.6"/>
      <point x="75.2" y="17.8"/>
      <point x="67.4" y="40.2" type="curve"/>
    </contour>
  </outline>
</glyph>
<glyph name="hyphen" format="2">
  <advance width="233.2"/>
  <unicode hex="002D"/>
  <outline>
    <contour>
      <point x="23.8" y="255.0" type="line"/>
      <point x="209.4" y="255.0" type="line"/>
      <point x="209.4" y="275.0" type="line"/>
      <point x="23.8" y="275.0" type="line"/>
    </contour>
  </outline>
</glyph>
<glyph name="period" format="2">
  <advance width="116.2"/>
  <unicode hex="002E"/>
  <outline>
    <contour>
      <point x="43.6" y="17.0" type="curve" smooth="yes"/>
      <point x="43.6" y="1.0"/>
      <point x="44.8" y="0.0"/>
      <point x="58.2" y="0.0" type="curve" smooth="yes"/>
      <point x="72.6" y="0.0"/>
      <point x="72.8" y="1.0"/>
      <point x="72.8" y="17.0" type="curve" smooth="yes"/>
      <point x="72.8" y="33.0"/>
      <point x="72.6" y="34.0"/>
      <point x="58.2" y="34.0" type="curve" smooth="yes"/>
      <point x="43.8" y="34.0"/>
      <point x="43.6" y="33.0"/>
    </contour>
  </outline>
</glyph>
<glyph name="slash" format="2">
  <advance width="240.4"/>
  <unicode hex="002F"/>
  <outline>
    <contour>
      <point x="3.6" y="-210.0" type="line"/>
      <point x="23.2" y="-210.0" type="line"/>
      <point x="236.8" y="740.0" type="line"/>
      <point x="217.2" y="740.0" type="line"/>
    </contour>
  </outline>
</glyph>
<glyph name="zero" format="2">
  <advance width="406.8"/>
  <unicode hex="0030"/>
  <outline>
    <contour>
      <point x="22.6" y="350.0" type="curve" smooth="yes"/>
      <point x="22.6" y="69.8"/>
      <point x="93.0" y="-10.0"/>
      <point x="203.4" y="-10.0" type="curve" smooth="yes"/>
      <point x="313.8" y="-10.0"/>
      <point x="384.20000000000005" y="69.8"/>
      <point x="384.20000000000005" y="350.0" type="curve" smooth="yes"/>
      <point x="384.20000000000005" y="631.0"/>
      <point x="313.8" y="710.0"/>
      <point x="203.4" y="710.0" type="curve" smooth="yes"/>
      <point x="93.0" y="710.0"/>
      <point x="22.6" y="631.0"/>
    </contour>
    <contour>
      <point x="42.6" y="350.0" type="curve" smooth="yes"/>
      <point x="42.6" y="615.0"/>
      <point x="106.2" y="690.0"/>
      <point x="203.4" y="690.0" type="curve" smooth="yes"/>
      <point x="300.6" y="690.0"/>
      <point x="364.20000000000005" y="615.0"/>
      <point x="364.20000000000005" y="350.0" type="curve" smooth="yes"/>
      <point x="364.20000000000005" y="85.8"/>
      <point x="300.6" y="10.0"/>
      <point x="203.4" y="10.0" type="curve" smooth="yes"/>
      <point x="106.2" y="10.0"/>
      <point x="42.6" y="85.8"/>
    </contour>
  </outline>
</glyph>
<glyph name="one" format="2">
  <advance width="406.8"/>
  <unicode hex="0031"/>
  <outline>
    <contour>
      <point x="31.0" y="0.0" type="line"/>
      <point x="393.6" y="0.0" type="line"/>
      <point x="393.6" y="20.0" type="line"/>
      <point x="235.60000000000002" y="20.0" type="line"/>
      <point x="235.60000000000002" y="702.0" type="line"/>
      <point x="223.60000000000002" y="702.0" type="line"/>
      <point x="18.6" y="563.8" type="line"/>
      <point x="29.8" y="549.0" type="line"/>
      <point x="215.60000000000002" y="669.0" type="line"/>
      <point x="215.60000000000002" y="20.0" type="line"/>
      <point x="31.0" y="20.0" type="line"/>
    </contour>
  </outline>
</glyph>
<glyph name="two" format="2">
  <advance width="407.0"/>
  <unicode hex="0032"/>
  <outline>
    <contour>
      <point x="39.5" y="17.0" type="curve"/>
      <point x="44.5" y="0.0" type="line"/>
      <point x="377.5" y="0.0" type="line"/>
      <point x="377.5" y="20.0" type="line"/>
      <point x="66.0" y="20.0" type="line"/>
      <point x="267.5" y="292.0"/>
      <point x="322.0" y="416.0"/>
      <point x="322.0" y="527.0" type="curve" smooth="yes"/>
      <point x="322.0" y="656.0"/>
      <point x="269.0" y="710.0"/>
      <point x="182.5" y="710.0" type="curve" smooth="yes"/>
      <point x="132.0" y="710.0"/>
      <point x="85.5" y="694.5"/>
      <point x="44.5" y="654.5" type="curve"/>
      <point x="56.5" y="641.5" type="line"/>
      <point x="94.0" y="676.5"/>
      <point x="135.5" y="691.0"/>
      <point x="182.5" y="691.0" type="curve" smooth="yes"/>
      <point x="256.0" y="691.0"/>
      <point x="303.0" y="646.0"/>
      <point x="303.0" y="530.0" type="curve" smooth="yes"/>
      <point x="303.0" y="422.5"/>
      <point x="251.0" y="296.5"/>
    </contour>
  </outline>
</glyph>
<glyph name="three" format="2">
  <advance width="407.0"/>
  <unicode hex="0033"/>
  <outline>
    <contour>
      <point x="13.0" y="44.0" type="line"/>
      <point x="55.5" y="7.5"/>
      <point x="103.0" y="-10.0"/>
      <point x="169.5" y="-10.0" type="curve" smooth="yes"/>
      <point x="289.5" y="-10.0"/>
      <point x="360.0" y="68.0"/>
      <point x="360.0" y="200.5" type="curve" smooth="yes"/>
      <point x="360.0" y="291.0"/>
      <point x="322.0" y="353.5"/>
      <point x="247.5" y="370.0" type="curve"/>
      <point x="303.0" y="391.0"/>
      <point x="333.5" y="451.0"/>
      <point x="333.5" y="533.0" type="curve" smooth="yes"/>
      <point x="333.5" y="641.5"/>
      <point x="283.5" y="710.0"/>
      <point x="173.5" y="710.0" type="curve" smooth="yes"/>
      <point x="124.0" y="710.0"/>
      <point x="75.0" y="697.0"/>
      <point x="38.0" y="675.0" type="curve"/>
      <point x="48.5" y="661.0" type="line"/>
      <point x="84.5" y="680.0"/>
      <point x="127.0" y="690.0"/>
      <point x="173.5" y="690.0" type="curve" smooth="yes"/>
      <point x="270.0" y="690.0"/>
      <point x="313.5" y="629.5"/>
      <point x="313.5" y="533.0" type="curve" smooth="yes"/>
      <point x="313.5" y="440.5"/>
      <point x="271.0" y="379.0"/>
      <point x="202.0" y="379.0" type="curve" smooth="yes"/>
      <point x="107.5" y="379.0" type="line"/>
      <point x="107.5" y="359.0" type="line"/>
      <point x="188.0" y="359.0" type="line" smooth="yes"/>
      <point x="289.0" y="359.0"/>
      <point x="340.0" y="307.0"/>
      <point x="340.0" y="200.5" type="curve" smooth="yes"/>
      <point x="340.0" y="81.0"/>
      <point x="276.5" y="10.0"/>
      <point x="170.0" y="10.0" type="curve" smooth="yes"/>
      <point x="108.0" y="10.0"/>
      <point x="67.5" y="25.0"/>
      <point x="26.5" y="57.0" type="curve"/>
    </contour>
  </outline>
</glyph>
<glyph name="four" format="2">
  <advance width="407.0"/>
  <unicode hex="0034"/>
  <outline>
    <contour>
      <point x="24.5" y="196.0" type="line"/>
      <point x="280.5" y="196.0" type="line"/>
      <point x="280.5" y="0.0" type="line"/>
      <point x="300.5" y="0.0" type="line"/>
      <point x="300.5" y="196.0" type="line"/>
      <point x="393.0" y="196.0" type="line"/>
      <point x="393.0" y="216.0" type="line"/>
      <point x="300.5" y="216.0" type="line"/>
      <point x="300.5" y="699.0" type="line"/>
      <point x="285.5" y="705.0" type="line"/>
      <point x="18.0" y="213.0" type="line"/>
    </contour>
    <contour>
      <point x="43.5" y="216.0" type="line"/>
      <point x="280.5" y="644.5" type="line"/>
      <point x="280.5" y="216.0" type="line"/>
    </contour>
  </outline>
</glyph>
<glyph name="five" format="2">
  <advance width="406.8"/>
  <unicode hex="0035"/>
  <outline>
    <contour>
      <point x="31.0" y="47.8" type="line"/>
      <point x="70.0" y="11.0"/>
      <point x="114.80000000000001" y="-9.8"/>
      <point x="184.2" y="-9.8" type="curve" smooth="yes"/>
      <point x="307.2" y="-9.8"/>
      <point x="371.6" y="66.2"/>
      <point x="371.6" y="198.0" type="curve" smooth="yes"/>
      <point x="371.6" y="321.2"/>
      <point x="321.8" y="385.8"/>
      <point x="219.4" y="385.8" type="curve" smooth="yes"/>
      <point x="80.4" y="385.8" type="line"/>
      <point x="101.4" y="680.0" type="line"/>
      <point x="342.8" y="680.0" type="line"/>
      <point x="342.8" y="700.0" type="line"/>
      <point x="83.0" y="700.0" type="line"/>
      <point x="60.0" y="376.8" type="line"/>
      <point x="70.0" y="365.8" type="line"/>
      <point x="215.60000000000002" y="365.8" type="line" smooth="yes"/>
      <point x="307.6" y="365.8"/>
      <point x="351.6" y="308.4"/>
      <point x="351.6" y="198.0" type="curve" smooth="yes"/>
      <point x="351.6" y="77.8"/>
      <point x="296.0" y="10.2"/>
      <point x="184.2" y="10.2" type="curve" smooth="yes"/>
      <point x="116.4" y="10.2"/>
      <point x="79.6" y="32.6"/>
      <point x="45.8" y="61.0" type="curve"/>
    </contour>
  </outline>
</glyph>
<glyph name="six" format="2">
  <advance width="406.8"/>
  <unicode hex="0036"/>
  <outline>
    <contour>
      <point x="213.8" y="-10.0" type="curve" smooth="yes"/>
      <point x="316.4" y="-10.0"/>
      <point x="381.0" y="73.8"/>
      <point x="381.0" y="205.8" type="curve" smooth="yes"/>
      <point x="381.0" y="333.0"/>
      <point x="320.6" y="404.8"/>
      <point x="221.4" y="404.8" type="curve" smooth="yes"/>
      <point x="144.0" y="404.8"/>
      <point x="66.8" y="356.4"/>
      <point x="39.0" y="290.2" type="curve"/>
      <point x="44.0" y="262.6" type="line"/>
      <point x="73.8" y="338.6"/>
      <point x="144.8" y="385.6"/>
      <point x="220.60000000000002" y="385.6" type="curve" smooth="yes"/>
      <point x="307.8" y="385.6"/>
      <point x="361.0" y="320.2"/>
      <point x="361.0" y="203.4" type="curve" smooth="yes"/>
      <point x="361.0" y="84.2"/>
      <point x="303.8" y="8.4"/>
      <point x="213.0" y="8.4" type="curve" smooth="yes"/>
      <point x="97.6" y="8.4"/>
      <point x="45.2" y="99.2"/>
      <point x="45.2" y="328.8" type="curve" smooth="yes"/>
      <point x="45.2" y="577.0"/>
      <point x="106.0" y="691.6"/>
      <point x="228.0" y="691.6" type="curve" smooth="yes"/>
      <point x="274.0" y="691.6"/>
      <point x="308.6" y="679.2"/>
      <point x="349.20000000000005" y="660.0" type="curve"/>
      <point x="360.4" y="675.2" type="line"/>
      <point x="318.0" y="697.8"/>
      <point x="278.6" y="710.0"/>
      <point x="229.60000000000002" y="710.0" type="curve" smooth="yes"/>
      <point x="93.0" y="710.0"/>
      <point x="25.200000000000003" y="605.4"/>
      <point x="25.200000000000003" y="331.6" type="curve" smooth="yes"/>
      <point x="25.200000000000003" y="81.4"/>
      <point x="81.2" y="-10.0"/>
    </contour>
  </outline>
</glyph>
<glyph name="seven" format="2">
  <advance width="406.8"/>
  <unicode hex="0037"/>
  <outline>
    <contour>
      <point x="153.6" y="0.0" type="curve"/>
      <point x="173.6" y="0.0" type="line"/>
      <point x="174.4" y="140.8"/>
      <point x="198.4" y="254.6"/>
      <point x="244.60000000000002" y="368.8" type="curve" smooth="yes"/>
      <point x="372.0" y="683.0" type="line"/>
      <point x="372.0" y="700.0" type="line"/>
      <point x="29.8" y="700.0" type="line"/>
      <point x="29.8" y="680.0" type="line"/>
      <point x="348.4" y="680.0" type="line"/>
      <point x="245.4" y="424.8" type="line" smooth="yes"/>
      <point x="176.0" y="251.8"/>
      <point x="153.6" y="140.4"/>
    </contour>
  </outline>
</glyph>
<glyph name="eight" format="2">
  <advance width="407.0"/>
  <unicode hex="0038"/>
  <outline>
    <contour>
      <point x="231.5" y="362.0" type="curve"/>
      <point x="248.0" y="353.0" type="line"/>
      <point x="335.5" y="402.5"/>
      <point x="368.0" y="464.5"/>
      <point x="368.0" y="544.5" type="curve" smooth="yes"/>
      <point x="368.0" y="653.0"/>
      <point x="311.5" y="710.0"/>
      <point x="206.0" y="710.0" type="curve" smooth="yes"/>
      <point x="101.0" y="710.0"/>
      <point x="39.0" y="650.5"/>
      <point x="39.0" y="546.0" type="curve" smooth="yes"/>
      <point x="39.0" y="307.5"/>
      <point x="368.0" y="413.0"/>
      <point x="368.0" y="168.5" type="curve" smooth="yes"/>
      <point x="368.0" y="66.0"/>
      <point x="308.5" y="10.0"/>
      <point x="202.5" y="10.0" type="curve" smooth="yes"/>
      <point x="97.0" y="10.0"/>
      <point x="39.0" y="70.5"/>
      <point x="39.0" y="177.5" type="curve" smooth="yes"/>
      <point x="39.0" y="269.0"/>
      <point x="79.0" y="336.0"/>
      <point x="167.0" y="378.5" type="curve"/>
      <point x="149.0" y="389.0" type="line"/>
      <point x="56.0" y="337.5"/>
      <point x="19.0" y="266.5"/>
      <point x="19.0" y="174.5" type="curve" smooth="yes"/>
      <point x="19.0" y="57.0"/>
      <point x="83.5" y="-10.0"/>
      <point x="202.0" y="-10.0" type="curve" smooth="yes"/>
      <point x="320.5" y="-10.0"/>
      <point x="388.0" y="54.0"/>
      <point x="388.0" y="168.5" type="curve" smooth="yes"/>
      <point x="388.0" y="426.5"/>
      <point x="59.0" y="324.5"/>
      <point x="59.0" y="549.0" type="curve" smooth="yes"/>
      <point x="59.0" y="639.0"/>
      <point x="113.5" y="691.0"/>
      <point x="206.0" y="691.0" type="curve" smooth="yes"/>
      <point x="299.5" y="691.0"/>
      <point x="348.0" y="641.5"/>
      <point x="348.0" y="543.5" type="curve" smooth="yes"/>
      <point x="348.0" y="467.0"/>
      <point x="320.0" y="411.0"/>
    </contour>
  </outline>
</glyph>
<glyph name="nine" format="2">
  <advance width="406.8"/>
  <unicode hex="0039"/>
  <outline>
    <contour>
      <point x="178.2" y="-10.0" type="curve" smooth="yes"/>
      <point x="314.8" y="-10.0"/>
      <point x="379.4" y="94.6"/>
      <point x="379.4" y="368.4" type="curve" smooth="yes"/>
      <point x="379.4" y="618.6"/>
      <point x="323.4" y="710.0"/>
      <point x="198.8" y="710.0" type="curve" smooth="yes"/>
      <point x="93.0" y="710.0"/>
      <point x="23.6" y="627.4"/>
      <point x="23.6" y="494.4" type="curve" smooth="yes"/>
      <point x="23.6" y="368.2"/>
      <point x="84.8" y="295.2"/>
      <point x="183.2" y="295.2" type="curve" smooth="yes"/>
      <point x="260.6" y="295.2"/>
      <point x="337.8" y="345.2"/>
      <point x="365.6" y="411.4" type="curve"/>
      <point x="365.4" y="447.0" type="line"/>
      <point x="333.20000000000005" y="360.6"/>
      <point x="259.8" y="314.4"/>
      <point x="184.0" y="314.4" type="curve" smooth="yes"/>
      <point x="99.6" y="314.4"/>
      <point x="43.6" y="381.0"/>
      <point x="43.6" y="496.8" type="curve" smooth="yes"/>
      <point x="43.6" y="617.0"/>
      <point x="105.6" y="691.6"/>
      <point x="199.60000000000002" y="691.6" type="curve" smooth="yes"/>
      <point x="307.0" y="691.6"/>
      <point x="359.4" y="600.8"/>
      <point x="359.4" y="371.2" type="curve" smooth="yes"/>
      <point x="359.4" y="123.0"/>
      <point x="301.8" y="8.4"/>
      <point x="179.8" y="8.4" type="curve" smooth="yes"/>
      <point x="133.8" y="8.4"/>
      <point x="96.0" y="20.8"/>
      <point x="55.4" y="40.0" type="curve"/>
      <point x="44.2" y="24.8" type="line"/>
      <point x="86.6" y="2.2"/>
      <point x="129.2" y="-10.0"/>
    </contour>
  </outline>
</glyph>
<glyph name="less" format="2">
  <advance width="408.0"/>
  <unicode hex="003C"/>
  <outline>
    <contour>
      <point x="363.4" y="85.0" type="line"/>
      <point x="363.4" y="108.6" type="line"/>
      <point x="65.0" y="289.8" type="line"/>
      <point x="363.4" y="472.2" type="line"/>
      <point x="363.4" y="494.0" type="line"/>
      <point x="44.6" y="299.8" type="line"/>
      <point x="44.6" y="279.8" type="line"/>
    </contour>
  </outline>
</glyph>
<glyph name="equal" format="2">
  <advance width="408.0"/>
  <unicode hex="003D"/>
  <outline>
    <contour>
      <point x="364.2" y="197.0" type="line"/>
      <point x="43.8" y="197.0" type="line"/>
      <point x="43.8" y="177.0" type="line"/>
      <point x="364.2" y="177.0" type="line"/>
    </contour>
    <contour>
      <point x="364.2" y="404.0" type="line"/>
      <point x="43.8" y="404.0" type="line"/>
      <point x="43.8" y="384.0" type="line"/>
      <point x="364.2" y="384.0" type="line"/>
    </contour>
  </outline>
</glyph>
<glyph name="greater" format="2">
  <advance width="408.0"/>
  <unicode hex="003E"/>
  <outline>
    <contour>
      <point x="363.4" y="279.0" type="line"/>
      <point x="363.4" y="299.0" type="line"/>
      <point x="44.6" y="494.0" type="line"/>
      <point x="44.6" y="470.4" type="line"/>
      <point x="343.0" y="289.0" type="line"/>
      <point x="44.6" y="107.0" type="line"/>
      <point x="44.6" y="85.0" type="line"/>
    </contour>
  </outline>
</glyph>
<glyph name="question" format="2">
  <advance width="318.8"/>
  <unicode hex="003F"/>
  <outline>
    <contour>
      <point x="134.0" y="263.4" type="line"/>
      <point x="154.0" y="263.4" type="line"/>
      <point x="154.0" y="339.0" type="line"/>
      <point x="249.2" y="412.2"/>
      <point x="297.8" y="458.4"/>
      <point x="297.8" y="571.4" type="curve" smooth="yes"/>
      <point x="297.8" y="698.0"/>
      <point x="224.4" y="750.0"/>
      <point x="151.6" y="750.0" type="curve" smooth="yes"/>
      <point x="100.4" y="750.0"/>
      <point x="48.4" y="728.4"/>
      <point x="8.8" y="691.6" type="curve"/>
      <point x="20.4" y="677.6" type="line"/>
      <point x="62.0" y="714.8"/>
      <point x="109.2" y="730.8"/>
      <point x="151.6" y="730.8" type="curve" smooth="yes"/>
      <point x="216.8" y="730.8"/>
      <point x="277.0" y="675.6"/>
      <point x="277.0" y="573.0" type="curve" smooth="yes"/>
      <point x="277.0" y="481.2"/>
      <point x="241.4" y="422.4"/>
      <point x="134.0" y="349.4" type="curve"/>
    </contour>
    <contour>
      <point x="130.0" y="17.0" type="curve" smooth="yes"/>
      <point x="130.0" y="1.0"/>
      <point x="132.8" y="0.0"/>
      <point x="145.4" y="0.0" type="curve" smooth="yes"/>
      <point x="159.0" y="0.0"/>
      <point x="160.0" y="1.0"/>
      <point x="160.0" y="17.0" type="curve" smooth="yes"/>
      <point x="160.0" y="33.0"/>
      <point x="159.0" y="34.0"/>
      <point x="145.4" y="34.0" type="curve" smooth="yes"/>
      <point x="131.0" y="34.0"/>
      <point x="130.0" y="33.0"/>
    </contour>
  </outline>
</glyph>
<glyph name="at" format="2">
  <advance width="532.8"/>
  <unicode hex="0040"/>
  <outline>
    <contour>
      <point x="273.6" y="-123.0" type="curve" smooth="yes"/>
      <point x="343.4" y="-123.0"/>
      <point x="402.8" y="-90.2"/>
      <point x="433.2" y="-55.6" type="curve"/>
      <point x="420.6" y="-44.8" type="line"/>
      <point x="388.4" y="-78.4"/>
      <point x="337.2" y="-104.6"/>
      <point x="273.6" y="-104.6" type="curve" smooth="yes"/>
      <point x="126.80000000000001" y="-104.6"/>
      <point x="53.4" y="-7.199999999999999"/>
      <point x="53.4" y="268.8" type="curve" smooth="yes"/>
      <point x="53.4" y="512.0"/>
      <point x="106.2" y="692.4"/>
      <point x="276.8" y="692.4" type="curve" smooth="yes"/>
      <point x="435.6" y="692.4"/>
      <point x="480.20000000000005" y="580.0"/>
      <point x="480.20000000000005" y="351.0" type="curve" smooth="yes"/>
      <point x="480.20000000000005" y="208.2"/>
      <point x="464.8" y="80.0"/>
      <point x="413.4" y="80.0" type="curve" smooth="yes"/>
      <point x="383.4" y="80.0"/>
      <point x="356.8" y="105.2"/>
      <point x="363.6" y="249.6" type="curve" smooth="yes"/>
      <point x="376.6" y="513.8" type="line"/>
      <point x="341.0" y="526.0"/>
      <point x="311.0" y="533.4"/>
      <point x="285.8" y="533.4" type="curve" smooth="yes"/>
      <point x="182.8" y="533.4"/>
      <point x="149.6" y="404.4"/>
      <point x="149.6" y="269.6" type="curve" smooth="yes"/>
      <point x="149.6" y="115.0"/>
      <point x="182.8" y="63.2"/>
      <point x="238.8" y="63.2" type="curve" smooth="yes"/>
      <point x="303.6" y="63.2"/>
      <point x="330.8" y="125.0"/>
      <point x="347.2" y="222.4" type="curve"/>
      <point x="344.8" y="97.8"/>
      <point x="362.0" y="60.2"/>
      <point x="413.2" y="60.2" type="curve" smooth="yes"/>
      <point x="481.0" y="60.2"/>
      <point x="500.0" y="198.0"/>
      <point x="500.0" y="351.0" type="curve" smooth="yes"/>
      <point x="500.0" y="600.2"/>
      <point x="448.4" y="709.8"/>
      <point x="276.8" y="709.8" type="curve" smooth="yes"/>
      <point x="93.2" y="709.8"/>
      <point x="33.4" y="522.0"/>
      <point x="33.4" y="268.8" type="curve" smooth="yes"/>
      <point x="33.4" y="-19.2"/>
      <point x="115.4" y="-123.0"/>
    </contour>
    <contour>
      <point x="240.4" y="83.0" type="curve" smooth="yes"/>
      <point x="200.4" y="83.0"/>
      <point x="169.6" y="127.0"/>
      <point x="169.6" y="269.6" type="curve" smooth="yes"/>
      <point x="169.6" y="386.6"/>
      <point x="201.6" y="514.2"/>
      <point x="284.8" y="514.2" type="curve" smooth="yes"/>
      <point x="304.6" y="514.2"/>
      <point x="330.6" y="508.8"/>
      <point x="356.6" y="499.4" type="curve"/>
      <point x="352.0" y="421.0" type="line" smooth="yes"/>
      <point x="330.8" y="125.8"/>
      <point x="294.2" y="83.0"/>
    </contour>
  </outline>
</glyph>
<glyph name="A" format="2">
  <advance width="417.6"/>
  <unicode hex="0041"/>
  <anchor x="399.6" y="0.0" name="ogonek"/>
  <anchor x="209.60000000000002" y="0.0" name="bottom"/>
  <anchor x="209.60000000000002" y="700.0" name="top"/>
  <outline>
    <contour>
      <point x="18.0" y="0.0" type="line"/>
      <point x="38.4" y="0.0" type="line"/>
      <point x="95.2" y="221.2" type="line"/>
      <point x="322.8" y="221.2" type="line"/>
      <point x="379.0" y="0.0" type="line"/>
      <point x="399.6" y="0.0" type="line"/>
      <point x="216.60000000000002" y="710.0" type="line"/>
      <point x="202.2" y="710.0" type="line"/>
    </contour>
    <contour>
      <point x="100.2" y="240.2" type="line"/>
      <point x="209.2" y="660.0" type="line"/>
      <point x="318.0" y="240.2" type="line"/>
    </contour>
  </outline>
</glyph>
<glyph name="B" format="2">
  <advance width="424.0"/>
  <unicode hex="0042"/>
  <anchor x="206.0" y="700.0" name="top"/>
  <anchor x="206.0" y="0.0" name="bottom"/>
  <outline>
    <contour>
      <point x="62.8" y="-3.8" type="line"/>
      <point x="121.0" y="-8.6"/>
      <point x="156.4" y="-10.0"/>
      <point x="202.2" y="-10.0" type="curve" smooth="yes"/>
      <point x="336.6" y="-10.0"/>
      <point x="394.6" y="50.2"/>
      <point x="394.6" y="183.6" type="curve" smooth="yes"/>
      <point x="394.6" y="279.4"/>
      <point x="350.20000000000005" y="343.6"/>
      <point x="275.4" y="360.0" type="curve"/>
      <point x="275.4" y="361.2" type="line"/>
      <point x="332.20000000000005" y="381.6"/>
      <point x="369.4" y="450.2"/>
      <point x="369.4" y="535.2" type="curve" smooth="yes"/>
      <point x="369.4" y="657.0"/>
      <point x="319.4" y="710.0"/>
      <point x="198.0" y="710.0" type="curve" smooth="yes"/>
      <point x="160.60000000000002" y="710.0"/>
      <point x="124.2" y="707.6"/>
      <point x="62.8" y="702.2" type="curve"/>
    </contour>
    <contour>
      <point x="82.8" y="367.2" type="line"/>
      <point x="82.8" y="685.8" type="line"/>
      <point x="138.4" y="690.6"/>
      <point x="152.4" y="691.6"/>
      <point x="194.60000000000002" y="691.6" type="curve" smooth="yes"/>
      <point x="303.4" y="691.6"/>
      <point x="349.4" y="642.2"/>
      <point x="349.4" y="535.2" type="curve" smooth="yes"/>
      <point x="349.4" y="438.8"/>
      <point x="300.2" y="367.2"/>
      <point x="224.2" y="367.2" type="curve" smooth="yes"/>
    </contour>
    <contour>
      <point x="82.8" y="14.4" type="curve"/>
      <point x="82.8" y="347.2" type="line"/>
      <point x="229.0" y="347.2" type="line" smooth="yes"/>
      <point x="321.4" y="347.2"/>
      <point x="374.6" y="283.8"/>
      <point x="374.6" y="184.0" type="curve" smooth="yes"/>
      <point x="374.6" y="59.4"/>
      <point x="324.8" y="9.0"/>
      <point x="198.8" y="9.0" type="curve" smooth="yes"/>
      <point x="169.2" y="9.0"/>
      <point x="146.8" y="10.4"/>
    </contour>
  </outline>
</glyph>
<glyph name="C" format="2">
  <advance width="405.20000000000005"/>
  <unicode hex="0043"/>
  <anchor x="240.0" y="700.0" name="top"/>
  <anchor x="239.2" y="0.0" name="bottom"/>
  <outline>
    <contour>
      <point x="40.8" y="336.2" type="curve" smooth="yes"/>
      <point x="40.8" y="65.8"/>
      <point x="119.6" y="-10.0"/>
      <point x="247.4" y="-10.0" type="curve" smooth="yes"/>
      <point x="291.2" y="-10.0"/>
      <point x="344.8" y="-4.6"/>
      <point x="383.0" y="7.4" type="curve"/>
      <point x="378.6" y="26.6" type="line"/>
      <point x="343.6" y="15.4"/>
      <point x="288.0" y="8.4"/>
      <point x="248.2" y="8.4" type="curve" smooth="yes"/>
      <point x="131.8" y="8.4"/>
      <point x="60.8" y="85.2"/>
      <point x="60.8" y="336.2" type="curve" smooth="yes"/>
      <point x="60.8" y="611.6"/>
      <point x="134.0" y="690.8"/>
      <point x="255.60000000000002" y="690.8" type="curve" smooth="yes"/>
      <point x="295.6" y="690.8"/>
      <point x="327.4" y="687.0"/>
      <point x="365.0" y="676.2" type="curve"/>
      <point x="369.4" y="694.6" type="line"/>
      <point x="330.20000000000005" y="706.2"/>
      <point x="295.8" y="710.0"/>
      <point x="254.8" y="710.0" type="curve" smooth="yes"/>
      <point x="115.4" y="710.0"/>
      <point x="40.8" y="612.6"/>
    </contour>
  </outline>
</glyph>
<glyph name="D" format="2">
  <advance width="460.0"/>
  <unicode hex="0044"/>
  <anchor x="217.2" y="700.0" name="top"/>
  <outline>
    <contour>
      <point x="200.2" y="-10.0" type="curve" smooth="yes"/>
      <point x="349.6" y="-10.0"/>
      <point x="419.20000000000005" y="93.8"/>
      <point x="419.20000000000005" y="348.4" type="curve" smooth="yes"/>
      <point x="419.20000000000005" y="607.2"/>
      <point x="353.8" y="710.0"/>
      <point x="196.8" y="710.0" type="curve" smooth="yes"/>
      <point x="157.0" y="710.0"/>
      <point x="113.6" y="707.8"/>
      <point x="62.8" y="703.2" type="curve"/>
      <point x="62.8" y="-4.8" type="line"/>
      <point x="108.4" y="-8.0"/>
      <point x="159.0" y="-10.0"/>
    </contour>
    <contour>
      <point x="188.60000000000002" y="8.4" type="curve" smooth="yes"/>
      <point x="164.4" y="8.4"/>
      <point x="114.6" y="10.2"/>
      <point x="82.8" y="12.8" type="curve"/>
      <point x="82.8" y="686.4" type="line"/>
      <point x="118.2" y="689.2"/>
      <point x="162.0" y="690.8"/>
      <point x="187.0" y="690.8" type="curve" smooth="yes"/>
      <point x="337.8" y="690.8"/>
      <point x="398.20000000000005" y="602.2"/>
      <point x="398.20000000000005" y="348.6" type="curve" smooth="yes"/>
      <point x="398.20000000000005" y="98.4"/>
      <point x="336.0" y="8.4"/>
    </contour>
  </outline>
</glyph>
<glyph name="E" format="2">
  <advance width="382.0"/>
  <unicode hex="0045"/>
  <anchor x="362.6" y="0.0" name="ogonek"/>
  <anchor x="213.2" y="0.0" name="bottom"/>
  <anchor x="207.0" y="700.0" name="top"/>
  <outline>
    <contour>
      <point x="62.8" y="0.0" type="line"/>
      <point x="362.6" y="0.0" type="line"/>
      <point x="362.6" y="20.0" type="line"/>
      <point x="82.8" y="20.0" type="line"/>
      <point x="82.8" y="357.8" type="line"/>
      <point x="330.4" y="357.8" type="line"/>
      <point x="330.4" y="377.0" type="line"/>
      <point x="82.8" y="377.0" type="line"/>
      <point x="82.8" y="680.0" type="line"/>
      <point x="348.8" y="680.0" type="line"/>
      <point x="348.8" y="700.0" type="line"/>
      <point x="62.8" y="700.0" type="line"/>
    </contour>
  </outline>
</glyph>
<glyph name="F" format="2">
  <advance width="359.8"/>
  <unicode hex="0046"/>
  <outline>
    <contour>
      <point x="62.8" y="0.0" type="line"/>
      <point x="82.8" y="0.0" type="line"/>
      <point x="82.8" y="340.6" type="line"/>
      <point x="307.0" y="340.6" type="line"/>
      <point x="307.0" y="359.8" type="line"/>
      <point x="82.8" y="359.8" type="line"/>
      <point x="82.8" y="680.0" type="line"/>
      <point x="348.8" y="680.0" type="line"/>
      <point x="348.8" y="700.0" type="line"/>
      <point x="62.8" y="700.0" type="line"/>
    </contour>
  </outline>
</glyph>
<glyph name="G" format="2">
  <advance width="434.20000000000005"/>
  <unicode hex="0047"/>
  <anchor x="236.0" y="700.0" name="top"/>
  <anchor x="239.2" y="0.0" name="bottom"/>
  <outline>
    <contour>
      <point x="40.8" y="336.2" type="curve" smooth="yes"/>
      <point x="40.8" y="99.6"/>
      <point x="105.6" y="-10.0"/>
      <point x="242.0" y="-10.0" type="curve" smooth="yes"/>
      <point x="299.4" y="-10.0"/>
      <point x="354.4" y="-2.8"/>
      <point x="384.8" y="10.0" type="curve"/>
      <point x="384.8" y="333.2" type="line"/>
      <point x="224.2" y="333.2" type="line"/>
      <point x="224.2" y="314.0" type="line"/>
      <point x="364.8" y="314.0" type="line"/>
      <point x="364.8" y="24.0" type="line"/>
      <point x="332.4" y="13.2"/>
      <point x="293.2" y="8.4"/>
      <point x="242.8" y="8.4" type="curve" smooth="yes"/>
      <point x="121.80000000000001" y="8.4"/>
      <point x="60.8" y="112.6"/>
      <point x="60.8" y="336.2" type="curve" smooth="yes"/>
      <point x="60.8" y="582.8"/>
      <point x="123.6" y="690.8"/>
      <point x="249.0" y="690.8" type="curve" smooth="yes"/>
      <point x="288.8" y="690.8"/>
      <point x="326.20000000000005" y="685.8"/>
      <point x="365.4" y="673.6" type="curve"/>
      <point x="369.8" y="691.6" type="line"/>
      <point x="333.0" y="703.8"/>
      <point x="291.6" y="710.0"/>
      <point x="248.2" y="710.0" type="curve" smooth="yes"/>
      <point x="109.2" y="710.0"/>
      <point x="40.8" y="594.8"/>
    </contour>
  </outline>
</glyph>
<glyph name="H" format="2">
  <advance width="484.20000000000005"/>
  <unicode hex="0048"/>
  <anchor x="242.2" y="700.0" name="top"/>
  <outline>
    <contour>
      <point x="62.8" y="0.0" type="line"/>
      <point x="82.8" y="0.0" type="line"/>
      <point x="82.8" y="290.8" type="line"/>
      <point x="401.4" y="290.8" type="line"/>
      <point x="401.4" y="0.0" type="line"/>
      <point x="421.4" y="0.0" type="line"/>
      <point x="421.4" y="700.0" type="line"/>
      <point x="401.4" y="700.0" type="line"/>
      <point x="401.4" y="310.0" type="line"/>
      <point x="82.8" y="310.0" type="line"/>
      <point x="82.8" y="700.0" type="line"/>
      <point x="62.8" y="700.0" type="line"/>
    </contour>
  </outline>
</glyph>
<glyph name="J" format="2">
  <advance width="316.4"/>
  <unicode hex="004A"/>
  <anchor x="152.0" y="700.0" name="top"/>
  <outline>
    <contour>
      <point x="9.8" y="5.6" type="line"/>
      <point x="43.400000000000006" y="-4.8"/>
      <point x="84.4" y="-10.2"/>
      <point x="115.2" y="-10.2" type="curve" smooth="yes"/>
      <point x="227.2" y="-10.2"/>
      <point x="263.6" y="49.6"/>
      <point x="263.6" y="143.4" type="curve" smooth="yes"/>
      <point x="263.6" y="700.0" type="line"/>
      <point x="33.2" y="700.0" type="line"/>
      <point x="33.2" y="680.8" type="line"/>
      <point x="243.60000000000002" y="680.8" type="line"/>
      <point x="243.60000000000002" y="141.0" type="line" smooth="yes"/>
      <point x="243.60000000000002" y="46.0"/>
      <point x="199.2" y="9.0"/>
      <point x="115.2" y="9.0" type="curve" smooth="yes"/>
      <point x="85.0" y="9.0"/>
      <point x="47.2" y="13.6"/>
      <point x="15.0" y="24.0" type="curve"/>
    </contour>
  </outline>
</glyph>
<glyph name="K" format="2">
  <advance width="416.5"/>
  <unicode hex="004B"/>
  <anchor x="208.5" y="700.0" name="top"/>
  <anchor x="212.5" y="0.0" name="bottom"/>
  <outline>
    <contour>
      <point x="401.5" y="-10.0" type="curve" smooth="yes"/>
      <point x="404.5" y="-10.0"/>
      <point x="409.5" y="-10.0"/>
      <point x="415.5" y="-8.0" type="curve"/>
      <point x="415.5" y="12.5" type="line"/>
      <point x="412.5" y="11.5"/>
      <point x="409.0" y="11.5"/>
      <point x="406.5" y="11.5" type="curve" smooth="yes"/>
      <point x="378.0" y="12.0"/>
      <point x="358.5" y="26.5"/>
      <point x="293.0" y="119.5" type="curve" smooth="yes"/>
      <point x="83.0" y="418.0" type="line"/>
      <point x="83.0" y="700.0" type="line"/>
      <point x="63.0" y="700.0" type="line"/>
      <point x="63.0" y="0.0" type="line"/>
      <point x="83.0" y="0.0" type="line"/>
      <point x="83.0" y="379.5" type="line"/>
      <point x="276.0" y="108.0" type="line" smooth="yes"/>
      <point x="335.5" y="24.5"/>
      <point x="364.0" y="-10.0"/>
    </contour>
    <contour>
      <point x="150.5" y="303.5" type="line"/>
      <point x="222.5" y="377.5"/>
      <point x="332.5" y="509.0"/>
      <point x="385.0" y="697.0" type="curve"/>
      <point x="366.5" y="703.0" type="line"/>
      <point x="314.0" y="518.5"/>
      <point x="210.0" y="396.5"/>
      <point x="139.5" y="322.0" type="curve"/>
    </contour>
  </outline>
</glyph>
<glyph name="L" format="2">
  <advance width="340.20000000000005"/>
  <unicode hex="004C"/>
  <anchor x="170.2" y="350.0" name="center"/>
  <anchor x="72.8" y="700.0" name="top"/>
  <anchor x="227.2" y="700.0" name="topright"/>
  <anchor x="196.0" y="0.0" name="bottom"/>
  <outline>
    <contour>
      <point x="62.8" y="0.0" type="line"/>
      <point x="331.2" y="0.0" type="line"/>
      <point x="331.2" y="19.2" type="line"/>
      <point x="82.8" y="19.2" type="line"/>
      <point x="82.8" y="700.0" type="line"/>
      <point x="62.8" y="700.0" type="line"/>
    </contour>
  </outline>
</glyph>
<glyph name="M" format="2">
  <advance width="530.0"/>
  <unicode hex="004D"/>
  <outline>
    <contour>
      <point x="63.0" y="0.0" type="line"/>
      <point x="83.0" y="0.0" type="line"/>
      <point x="83.0" y="650.5" type="line"/>
      <point x="258.0" y="280.0" type="line"/>
      <point x="271.0" y="280.0" type="line"/>
      <point x="447.0" y="650.5" type="line"/>
      <point x="447.0" y="0.0" type="line"/>
      <point x="467.0" y="0.0" type="line"/>
      <point x="467.0" y="700.0" type="line"/>
      <point x="446.5" y="700.0" type="line"/>
      <point x="265.5" y="316.5" type="line"/>
      <point x="84.0" y="700.0" type="line"/>
      <point x="63.0" y="700.0" type="line"/>
    </contour>
  </outline>
</glyph>
<glyph name="N" format="2">
  <advance width="480.5"/>
  <unicode hex="004E"/>
  <anchor x="240.5" y="700.0" name="top"/>
  <anchor x="240.5" y="0.0" name="bottom"/>
  <outline>
    <contour>
      <point x="63.0" y="0.0" type="line"/>
      <point x="83.0" y="0.0" type="line"/>
      <point x="83.0" y="650.5" type="line"/>
      <point x="397.0" y="0.0" type="line"/>
      <point x="417.5" y="0.0" type="line"/>
      <point x="417.5" y="700.0" type="line"/>
      <point x="397.5" y="700.0" type="line"/>
      <point x="397.5" y="48.5" type="line"/>
      <point x="83.0" y="702.0" type="line"/>
      <point x="63.0" y="702.0" type="line"/>
    </contour>
  </outline>
</glyph>
<glyph name="O" format="2">
  <advance width="491.0"/>
  <unicode hex="004F"/>
  <anchor x="275.0" y="0.0" name="ogonek"/>
  <anchor x="244.5" y="700.0" name="top"/>
  <anchor x="351.5" y="683.5" name="topright"/>
  <anchor x="244.5" y="0.0" name="bottom"/>
  <outline>
    <contour>
      <point x="244.5" y="8.5" type="curve" smooth="yes"/>
      <point x="142.5" y="8.5"/>
      <point x="61.0" y="77.0"/>
      <point x="61.0" y="349.0" type="curve" smooth="yes"/>
      <point x="61.0" y="625.5"/>
      <point x="142.5" y="691.5"/>
      <point x="244.5" y="691.5" type="curve" smooth="yes"/>
      <point x="347.5" y="691.5"/>
      <point x="429.5" y="626.0"/>
      <point x="429.5" y="349.0" type="curve" smooth="yes"/>
      <point x="429.5" y="74.0"/>
      <point x="347.5" y="8.5"/>
    </contour>
    <contour>
      <point x="244.5" y="-10.0" type="curve" smooth="yes"/>
      <point x="362.5" y="-10.0"/>
      <point x="450.0" y="58.5"/>
      <point x="450.0" y="350.0" type="curve" smooth="yes"/>
      <point x="450.0" y="641.5"/>
      <point x="360.0" y="710.0"/>
      <point x="244.5" y="710.0" type="curve" smooth="yes"/>
      <point x="129.0" y="710.0"/>
      <point x="41.0" y="641.0"/>
      <point x="41.0" y="349.0" type="curve" smooth="yes"/>
      <point x="41.0" y="62.0"/>
      <point x="129.0" y="-10.0"/>
    </contour>
  </outline>
</glyph>
<glyph name="P" format="2">
  <advance width="406.0"/>
  <unicode hex="0050"/>
  <outline>
    <contour>
      <point x="62.8" y="0.0" type="line"/>
      <point x="82.8" y="0.0" type="line"/>
      <point x="82.8" y="286.0" type="line"/>
      <point x="123.2" y="284.4"/>
      <point x="152.2" y="284.2"/>
      <point x="190.2" y="284.2" type="curve" smooth="yes"/>
      <point x="320.8" y="284.2"/>
      <point x="379.6" y="344.0"/>
      <point x="379.6" y="506.2" type="curve" smooth="yes"/>
      <point x="379.6" y="658.8"/>
      <point x="338.8" y="710.0"/>
      <point x="187.60000000000002" y="710.0" type="curve" smooth="yes"/>
      <point x="159.60000000000002" y="710.0"/>
      <point x="126.4" y="708.0"/>
      <point x="62.8" y="703.2" type="curve"/>
    </contour>
    <contour>
      <point x="82.8" y="686.4" type="line"/>
      <point x="136.8" y="690.4"/>
      <point x="164.0" y="691.6"/>
      <point x="188.4" y="691.6" type="curve" smooth="yes"/>
      <point x="327.20000000000005" y="691.6"/>
      <point x="359.6" y="639.0"/>
      <point x="359.6" y="503.8" type="curve" smooth="yes"/>
      <point x="359.6" y="358.8"/>
      <point x="312.4" y="304.2"/>
      <point x="191.0" y="304.2" type="curve" smooth="yes"/>
      <point x="149.0" y="304.2"/>
      <point x="123.80000000000001" y="304.8"/>
      <point x="82.8" y="306.2" type="curve"/>
    </contour>
  </outline>
</glyph>
<glyph name="Q" format="2">
  <advance width="491.0"/>
  <unicode hex="0051"/>
  <outline>
    <contour>
      <point x="267.0" y="3.0" type="curve"/>
      <point x="248.0" y="-0.5" type="line"/>
      <point x="274.0" y="-152.0"/>
      <point x="303.0" y="-209.5"/>
      <point x="361.5" y="-209.5" type="curve" smooth="yes"/>
      <point x="380.5" y="-209.5"/>
      <point x="403.5" y="-203.5"/>
      <point x="430.0" y="-192.5" type="curve"/>
      <point x="423.5" y="-175.5" type="line"/>
      <point x="401.0" y="-186.0"/>
      <point x="381.0" y="-191.0"/>
      <point x="364.5" y="-191.0" type="curve" smooth="yes"/>
      <point x="316.0" y="-191.0"/>
      <point x="291.5" y="-141.0"/>
    </contour>
    <component base="O"/>
  </outline>
</glyph>
<glyph name="R" format="2">
  <advance width="437.5"/>
  <unicode hex="0052"/>
  <anchor x="205.5" y="700.0" name="top"/>
  <anchor x="217.5" y="0.0" name="bottom"/>
  <outline>
    <contour>
      <point x="422.5" y="-10.0" type="curve" smooth="yes"/>
      <point x="428.0" y="-10.0"/>
      <point x="433.5" y="-7.5"/>
      <point x="437.0" y="-6.0" type="curve"/>
      <point x="434.0" y="12.0" type="line"/>
      <point x="430.5" y="11.0"/>
      <point x="423.5" y="10.0"/>
      <point x="421.5" y="10.0" type="curve" smooth="yes"/>
      <point x="388.5" y="10.0"/>
      <point x="340.5" y="51.0"/>
      <point x="252.0" y="312.5" type="curve"/>
      <point x="333.5" y="330.5"/>
      <point x="375.5" y="391.0"/>
      <point x="375.5" y="516.0" type="curve" smooth="yes"/>
      <point x="375.5" y="665.0"/>
      <point x="320.0" y="710.0"/>
      <point x="181.0" y="710.0" type="curve" smooth="yes"/>
      <point x="138.5" y="710.0"/>
      <point x="107.5" y="708.0"/>
      <point x="63.0" y="703.5" type="curve"/>
      <point x="63.0" y="0.0" type="line"/>
      <point x="83.0" y="0.0" type="line"/>
      <point x="83.0" y="306.5" type="line"/>
      <point x="117.0" y="305.0"/>
      <point x="152.5" y="304.5"/>
      <point x="188.0" y="304.5" type="curve" smooth="yes"/>
      <point x="203.5" y="304.5"/>
      <point x="218.0" y="305.5"/>
      <point x="233.0" y="307.0" type="curve"/>
      <point x="325.0" y="34.5"/>
      <point x="370.5" y="-10.0"/>
    </contour>
    <contour>
      <point x="189.0" y="324.5" type="curve" smooth="yes"/>
      <point x="153.5" y="324.5"/>
      <point x="119.5" y="325.0"/>
      <point x="83.0" y="326.5" type="curve"/>
      <point x="83.0" y="687.0" type="line"/>
      <point x="121.0" y="690.5"/>
      <point x="143.5" y="691.5"/>
      <point x="182.0" y="691.5" type="curve" smooth="yes"/>
      <point x="312.5" y="691.5"/>
      <point x="355.5" y="643.5"/>
      <point x="355.5" y="514.0" type="curve" smooth="yes"/>
      <point x="355.5" y="373.5"/>
      <point x="304.0" y="324.5"/>
    </contour>
  </outline>
</glyph>
<glyph name="S" format="2">
  <advance width="384.0"/>
  <unicode hex="0053"/>
  <anchor x="199.0" y="700.0" name="top"/>
  <anchor x="192.0" y="0.0" name="bottom"/>
  <outline>
    <contour>
      <point x="323.5" y="689.0" type="line"/>
      <point x="295.0" y="700.5"/>
      <point x="244.5" y="710.0"/>
      <point x="204.5" y="710.0" type="curve" smooth="yes"/>
      <point x="109.5" y="710.0"/>
      <point x="41.5" y="652.0"/>
      <point x="41.5" y="558.5" type="curve" smooth="yes"/>
      <point x="41.5" y="467.5"/>
      <point x="87.5" y="408.0"/>
      <point x="190.0" y="344.0" type="curve" smooth="yes"/>
      <point x="286.0" y="282.5"/>
      <point x="331.0" y="225.0"/>
      <point x="331.0" y="140.5" type="curve" smooth="yes"/>
      <point x="331.0" y="53.5"/>
      <point x="265.5" y="10.0"/>
      <point x="175.5" y="10.0" type="curve" smooth="yes"/>
      <point x="131.0" y="10.0"/>
      <point x="69.5" y="20.0"/>
      <point x="33.5" y="35.0" type="curve"/>
      <point x="25.5" y="16.5" type="line"/>
      <point x="56.5" y="3.0"/>
      <point x="127.5" y="-10.0"/>
      <point x="175.5" y="-10.0" type="curve" smooth="yes"/>
      <point x="277.5" y="-10.0"/>
      <point x="351.5" y="43.0"/>
      <point x="351.5" y="143.0" type="curve" smooth="yes"/>
      <point x="351.5" y="234.0"/>
      <point x="305.5" y="292.5"/>
      <point x="202.5" y="358.0" type="curve" smooth="yes"/>
      <point x="105.0" y="420.5"/>
      <point x="62.0" y="475.0"/>
      <point x="62.0" y="558.5" type="curve" smooth="yes"/>
      <point x="62.0" y="639.5"/>
      <point x="119.0" y="691.5"/>
      <point x="204.5" y="691.5" type="curve" smooth="yes"/>
      <point x="244.5" y="691.5"/>
      <point x="287.0" y="683.5"/>
      <point x="316.0" y="672.0" type="curve"/>
    </contour>
  </outline>
</glyph>
<glyph name="T" format="2">
  <advance width="354.4"/>
  <unicode hex="0054"/>
  <anchor x="177.2" y="700.0" name="top"/>
  <anchor x="177.2" y="0.0" name="bottom"/>
  <outline>
    <contour>
      <point x="349.2" y="681.0" type="line"/>
      <point x="349.2" y="700.0" type="line"/>
      <point x="5.2" y="700.0" type="line"/>
      <point x="5.2" y="681.0" type="line"/>
      <point x="167.2" y="681.0" type="line"/>
      <point x="167.2" y="0.0" type="line"/>
      <point x="187.2" y="0.0" type="line"/>
      <point x="187.2" y="681.0" type="line"/>
    </contour>
  </outline>
</glyph>
<glyph name="U" format="2">
  <advance width="463.6"/>
  <unicode hex="0055"/>
  <anchor x="262.6" y="0.0" name="ogonek"/>
  <anchor x="232.2" y="700.0" name="top"/>
  <anchor x="410.8" y="700.0" name="topright"/>
  <anchor x="232.2" y="0.0" name="bottom"/>
  <outline>
    <contour>
      <point x="52.8" y="167.2" type="line"/>
      <point x="52.8" y="21.2"/>
      <point x="147.2" y="-10.0"/>
      <point x="232.2" y="-10.0" type="curve" smooth="yes"/>
      <point x="317.2" y="-10.0"/>
      <point x="410.8" y="21.2"/>
      <point x="410.8" y="167.2" type="curve" smooth="yes"/>
      <point x="410.8" y="700.0" type="line"/>
      <point x="390.8" y="700.0" type="line"/>
      <point x="390.8" y="167.2" type="line" smooth="yes"/>
      <point x="390.8" y="34.8"/>
      <point x="307.2" y="10.0"/>
      <point x="232.2" y="10.0" type="curve" smooth="yes"/>
      <point x="157.2" y="10.0"/>
      <point x="72.8" y="34.8"/>
      <point x="72.8" y="167.2" type="curve" smooth="yes"/>
      <point x="72.8" y="700.0" type="line"/>
      <point x="52.8" y="700.0" type="line"/>
    </contour>
  </outline>
</glyph>
<glyph name="V" format="2">
  <advance width="404.0"/>
  <unicode hex="0056"/>
  <outline>
    <contour>
      <point x="192.0" y="0.0" type="line"/>
      <point x="212.0" y="0.0" type="line"/>
      <point x="393.0" y="698.0" type="line"/>
      <point x="375.0" y="703.0" type="line"/>
      <point x="202.0" y="44.5" type="line"/>
      <point x="29.0" y="703.0" type="line"/>
      <point x="11.0" y="698.0" type="line"/>
    </contour>
  </outline>
</glyph>
<glyph name="W" format="2">
  <advance width="562.5"/>
  <unicode hex="0057"/>
  <anchor x="281.0" y="700.0" name="top"/>
  <anchor x="281.0" y="0.0" name="bottom"/>
  <outline>
    <contour>
      <point x="435.0" y="0.0" type="line"/>
      <point x="552.5" y="698.5" type="line"/>
      <point x="533.0" y="702.5" type="line"/>
      <point x="422.5" y="46.5" type="line"/>
      <point x="293.5" y="692.5" type="line"/>
      <point x="269.0" y="692.5" type="line"/>
      <point x="140.0" y="46.5" type="line"/>
      <point x="29.5" y="702.5" type="line"/>
      <point x="10.0" y="698.5" type="line"/>
      <point x="128.0" y="0.0" type="line"/>
      <point x="149.0" y="0.0" type="line"/>
      <point x="280.5" y="649.5" type="line"/>
      <point x="412.5" y="0.0" type="line"/>
    </contour>
  </outline>
</glyph>
<glyph name="X" format="2">
  <advance width="412.0"/>
  <unicode hex="0058"/>
  <outline>
    <contour>
      <point x="25.0" y="3.0" type="line"/>
      <point x="42.0" y="-5.0" type="line"/>
      <point x="204.5" y="337.5" type="line"/>
      <point x="370.0" y="-5.0" type="line"/>
      <point x="386.5" y="3.0" type="line"/>
      <point x="217.0" y="360.0" type="line"/>
      <point x="376.0" y="696.0" type="line"/>
      <point x="359.5" y="704.0" type="line"/>
      <point x="207.0" y="384.0" type="line"/>
      <point x="52.0" y="704.0" type="line"/>
      <point x="35.5" y="696.0" type="line"/>
      <point x="195.5" y="360.0" type="line"/>
    </contour>
  </outline>
</glyph>
<glyph name="Y" format="2">
  <advance width="392.4"/>
  <unicode hex="0059"/>
  <anchor x="197.0" y="700.0" name="top"/>
  <anchor x="197.60000000000002" y="0.0" name="bottom"/>
  <outline>
    <contour>
      <point x="188.4" y="0.0" type="line"/>
      <point x="208.4" y="0.0" type="line"/>
      <point x="208.4" y="314.6" type="line"/>
      <point x="379.20000000000005" y="696.0" type="line"/>
      <point x="362.4" y="704.0" type="line"/>
      <point x="198.4" y="341.4" type="line"/>
      <point x="26.8" y="704.0" type="line"/>
      <point x="10.0" y="696.0" type="line"/>
      <point x="188.4" y="314.6" type="line"/>
    </contour>
  </outline>
</glyph>
<glyph name="Z" format="2">
  <advance width="388.20000000000005"/>
  <unicode hex="005A"/>
  <anchor x="200.4" y="350.0" name="center"/>
  <anchor x="200.4" y="0.0" name="bottom"/>
  <anchor x="199.2" y="700.0" name="top"/>
  <outline>
    <contour>
      <point x="21.0" y="0.0" type="line"/>
      <point x="374.4" y="0.0" type="line"/>
      <point x="374.4" y="19.2" type="line"/>
      <point x="46.4" y="19.2" type="line"/>
      <point x="46.4" y="21.2" type="line"/>
      <point x="353.8" y="685.0" type="line"/>
      <point x="353.8" y="700.0" type="line"/>
      <point x="44.4" y="700.0" type="line"/>
      <point x="44.4" y="680.8" type="line"/>
      <point x="328.4" y="680.8" type="line"/>
      <point x="328.4" y="678.8" type="line"/>
      <point x="21.0" y="15.0" type="line"/>
    </contour>
  </outline>
</glyph>
<glyph name="bracketleft" format="2">
  <advance width="230.0"/>
  <unicode hex="005B"/>
  <outline>
    <contour>
      <point x="89.8" y="-190.0" type="line"/>
      <point x="89.8" y="720.0" type="line"/>
      <point x="216.0" y="720.0" type="line"/>
      <point x="216.0" y="740.0" type="line"/>
      <point x="69.8" y="740.0" type="line"/>
      <point x="69.8" y="-210.0" type="line"/>
      <point x="216.0" y="-210.0" type="line"/>
      <point x="216.0" y="-190.0" type="line"/>
    </contour>
  </outline>
</glyph>
<glyph name="bracketright" format="2">
  <advance width="230.0"/>
  <unicode hex="005D"/>
  <outline>
    <contour>
      <point x="14.0" y="-190.0" type="line"/>
      <point x="14.0" y="-210.0" type="line"/>
      <point x="160.2" y="-210.0" type="line"/>
      <point x="160.2" y="740.0" type="line"/>
      <point x="14.0" y="740.0" type="line"/>
      <point x="14.0" y="720.0" type="line"/>
      <point x="140.2" y="720.0" type="line"/>
      <point x="140.2" y="-190.0" type="line"/>
    </contour>
  </outline>
</glyph>
<glyph name="asciicircum" format="2">
  <advance width="408.0"/>
  <unicode hex="005E"/>
  <outline>
    <contour>
      <point x="38.2" y="278.4" type="line"/>
      <point x="59.6" y="278.4" type="line"/>
      <point x="204.0" y="687.6" type="line"/>
      <point x="348.4" y="278.4" type="line"/>
      <point x="369.8" y="278.4" type="line"/>
      <point x="214.0" y="710.0" type="line"/>
      <point x="194.0" y="710.0" type="line"/>
    </contour>
  </outline>
</glyph>
<glyph name="underscore" format="2">
  <advance width="686.4"/>
  <unicode hex="005F"/>
  <outline>
    <contour>
      <point x="0.0" y="-136.0" type="line"/>
      <point x="686.4" y="-136.0" type="line"/>
      <point x="686.4" y="-116.0" type="line"/>
      <point x="0.0" y="-116.0" type="line"/>
    </contour>
  </outline>
</glyph>
<glyph name="a" format="2">
  <advance width="361.5"/>
  <unicode hex="0061"/>
  <anchor x="361.0" y="-1.0" name="ogonek"/>
  <anchor x="170.0" y="0.0" name="bottom"/>
  <anchor x="172.5" y="530.0" name="top"/>
  <outline>
    <contour>
      <point x="23.0" y="109.0" type="curve" smooth="yes"/>
      <point x="23.0" y="30.5"/>
      <point x="63.5" y="-10.0"/>
      <point x="127.0" y="-10.0" type="curve" smooth="yes"/>
      <point x="187.5" y="-10.0"/>
      <point x="237.5" y="22.0"/>
      <point x="272.5" y="56.0" type="curve"/>
      <point x="272.5" y="13.0"/>
      <point x="291.5" y="-10.0"/>
      <point x="324.0" y="-10.0" type="curve" smooth="yes"/>
      <point x="335.0" y="-10.0"/>
      <point x="346.5" y="-8.0"/>
      <point x="361.0" y="-1.0" type="curve"/>
      <point x="354.5" y="16.0" type="line"/>
      <point x="343.0" y="11.0"/>
      <point x="333.5" y="9.0"/>
      <point x="324.5" y="9.0" type="curve" smooth="yes"/>
      <point x="304.5" y="9.0"/>
      <point x="293.0" y="21.0"/>
      <point x="293.0" y="59.5" type="curve" smooth="yes"/>
      <point x="293.0" y="407.5" type="line" smooth="yes"/>
      <point x="293.0" y="494.5"/>
      <point x="249.5" y="540.0"/>
      <point x="168.0" y="540.0" type="curve" smooth="yes"/>
      <point x="135.0" y="540.0"/>
      <point x="96.5" y="534.0"/>
      <point x="54.5" y="520.0" type="curve"/>
      <point x="61.0" y="502.0" type="line"/>
      <point x="102.5" y="515.5"/>
      <point x="138.5" y="520.0"/>
      <point x="168.5" y="520.0" type="curve" smooth="yes"/>
      <point x="240.5" y="520.0"/>
      <point x="273.5" y="479.0"/>
      <point x="273.5" y="407.5" type="curve" smooth="yes"/>
      <point x="273.5" y="281.5" type="line"/>
      <point x="122.0" y="257.5"/>
      <point x="23.0" y="226.5"/>
    </contour>
    <contour>
      <point x="43.0" y="114.0" type="curve" smooth="yes"/>
      <point x="43.0" y="215.5"/>
      <point x="148.0" y="245.5"/>
      <point x="273.5" y="262.5" type="curve"/>
      <point x="273.5" y="82.0" type="line"/>
      <point x="236.5" y="44.0"/>
      <point x="184.0" y="9.0"/>
      <point x="128.5" y="9.0" type="curve" smooth="yes"/>
      <point x="76.0" y="9.0"/>
      <point x="43.0" y="46.0"/>
    </contour>
  </outline>
</glyph>
<glyph name="b" format="2">
  <advance width="377.0"/>
  <unicode hex="0062"/>
  <outline>
    <contour>
      <point x="60.0" y="7.4" type="line"/>
      <point x="105.4" y="-4.8"/>
      <point x="137.8" y="-10.0"/>
      <point x="168.8" y="-10.0" type="curve" smooth="yes"/>
      <point x="287.8" y="-10.0"/>
      <point x="339.0" y="71.6"/>
      <point x="339.0" y="277.8" type="curve" smooth="yes"/>
      <point x="339.0" y="446.2"/>
      <point x="290.4" y="540.0"/>
      <point x="204.4" y="540.0" type="curve" smooth="yes"/>
      <point x="163.2" y="540.0"/>
      <point x="120.0" y="525.4"/>
      <point x="80.0" y="497.8" type="curve"/>
      <point x="80.0" y="740.0" type="line"/>
      <point x="60.0" y="740.0" type="line"/>
    </contour>
    <contour>
      <point x="80.0" y="19.4" type="curve"/>
      <point x="80.0" y="477.4" type="line"/>
      <point x="127.4" y="510.0"/>
      <point x="159.2" y="521.6"/>
      <point x="200.4" y="521.6" type="curve" smooth="yes"/>
      <point x="275.6" y="521.6"/>
      <point x="319.0" y="434.0"/>
      <point x="319.0" y="277.8" type="curve" smooth="yes"/>
      <point x="319.0" y="79.4"/>
      <point x="274.2" y="7.4"/>
      <point x="164.8" y="7.4" type="curve" smooth="yes"/>
      <point x="141.6" y="7.4"/>
      <point x="117.4" y="10.8"/>
    </contour>
  </outline>
</glyph>
<glyph name="c" format="2">
  <advance width="328.6"/>
  <unicode hex="0063"/>
  <anchor x="195.60000000000002" y="530.0" name="top"/>
  <anchor x="196.4" y="0.0" name="bottom"/>
  <outline>
    <contour>
      <point x="38.0" y="258.2" type="curve" smooth="yes"/>
      <point x="38.0" y="70.4"/>
      <point x="92.6" y="-10.0"/>
      <point x="202.4" y="-10.0" type="curve" smooth="yes"/>
      <point x="236.0" y="-10.0"/>
      <point x="278.8" y="-4.0"/>
      <point x="306.8" y="3.2" type="curve"/>
      <point x="302.8" y="21.6" type="line"/>
      <point x="275.0" y="15.2"/>
      <point x="231.8" y="9.2"/>
      <point x="203.2" y="9.2" type="curve" smooth="yes"/>
      <point x="108.6" y="9.2"/>
      <point x="58.0" y="84.0"/>
      <point x="58.0" y="253.4" type="curve" smooth="yes"/>
      <point x="58.0" y="440.0"/>
      <point x="108.6" y="520.8"/>
      <point x="206.0" y="520.8" type="curve" smooth="yes"/>
      <point x="234.8" y="520.8"/>
      <point x="268.2" y="516.0"/>
      <point x="296.0" y="508.6" type="curve"/>
      <point x="300.0" y="527.0" type="line"/>
      <point x="271.4" y="535.2"/>
      <point x="235.4" y="540.0"/>
      <point x="208.4" y="540.0" type="curve" smooth="yes"/>
      <point x="95.0" y="540.0"/>
      <point x="38.0" y="456.8"/>
    </contour>
  </outline>
</glyph>
<glyph name="d" format="2">
  <advance width="377.0"/>
  <unicode hex="0064"/>
  <anchor x="188.6" y="275.0" name="center"/>
  <anchor x="191.2" y="740.0" name="top"/>
  <anchor x="393.0" y="740.0" name="topright"/>
  <anchor x="188.6" y="0.0" name="bottom"/>
  <outline>
    <contour>
      <point x="301.6" y="0.0" type="line"/>
      <point x="317.0" y="0.0" type="line"/>
      <point x="317.0" y="740.0" type="line"/>
      <point x="297.0" y="740.0" type="line"/>
      <point x="297.0" y="528.4" type="line"/>
      <point x="265.0" y="536.6"/>
      <point x="235.60000000000002" y="540.0"/>
      <point x="208.2" y="540.0" type="curve" smooth="yes"/>
      <point x="89.2" y="540.0"/>
      <point x="38.0" y="458.4"/>
      <point x="38.0" y="252.2" type="curve" smooth="yes"/>
      <point x="38.0" y="81.4"/>
      <point x="87.4" y="-10.0"/>
      <point x="175.8" y="-10.0" type="curve" smooth="yes"/>
      <point x="217.0" y="-10.0"/>
      <point x="256.2" y="3.0"/>
      <point x="297.0" y="32.0" type="curve"/>
    </contour>
    <contour>
      <point x="297.0" y="52.6" type="line"/>
      <point x="249.60000000000002" y="20.0"/>
      <point x="217.8" y="8.4"/>
      <point x="175.8" y="8.4" type="curve" smooth="yes"/>
      <point x="101.4" y="8.4"/>
      <point x="58.0" y="95.0"/>
      <point x="58.0" y="252.2" type="curve" smooth="yes"/>
      <point x="58.0" y="450.6"/>
      <point x="102.8" y="522.6"/>
      <point x="212.2" y="522.6" type="curve" smooth="yes"/>
      <point x="235.4" y="522.6"/>
      <point x="260.4" y="519.2"/>
      <point x="297.0" y="510.6" type="curve"/>
    </contour>
  </outline>
</glyph>
<glyph name="e" format="2">
  <advance width="365.6"/>
  <unicode hex="0065"/>
  <anchor x="298.8" y="4.6000000000000005" name="ogonek"/>
  <anchor x="198.0" y="0.0" name="bottom"/>
  <anchor x="194.8" y="530.0" name="top"/>
  <outline>
    <contour>
      <point x="193.2" y="-10.0" type="curve" smooth="yes"/>
      <point x="240.4" y="-10.0"/>
      <point x="289.2" y="-0.7999999999999998"/>
      <point x="324.0" y="11.2" type="curve"/>
      <point x="319.2" y="29.6" type="line"/>
      <point x="284.2" y="17.8"/>
      <point x="238.4" y="9.2"/>
      <point x="194.0" y="9.2" type="curve" smooth="yes"/>
      <point x="105.2" y="9.2"/>
      <point x="58.0" y="68.0"/>
      <point x="58.0" y="261.8" type="curve" smooth="yes"/>
      <point x="58.0" y="270.0"/>
      <point x="58.2" y="278.8"/>
      <point x="58.4" y="286.8" type="curve"/>
      <point x="194.0" y="286.8"/>
      <point x="293.4" y="297.8"/>
      <point x="333.4" y="303.2" type="curve"/>
      <point x="333.6" y="306.8"/>
      <point x="334.4" y="319.2"/>
      <point x="334.4" y="325.0" type="curve" smooth="yes"/>
      <point x="334.4" y="478.2"/>
      <point x="289.6" y="540.0"/>
      <point x="203.0" y="540.0" type="curve" smooth="yes"/>
      <point x="110.4" y="540.0"/>
      <point x="38.0" y="477.8"/>
      <point x="38.0" y="249.8" type="curve" smooth="yes"/>
      <point x="38.0" y="59.6"/>
      <point x="89.80000000000001" y="-10.0"/>
    </contour>
    <contour>
      <point x="59.0" y="305.2" type="curve"/>
      <point x="71.0" y="481.0"/>
      <point x="137.2" y="521.6"/>
      <point x="203.0" y="521.6" type="curve" smooth="yes"/>
      <point x="278.2" y="521.6"/>
      <point x="314.2" y="466.4"/>
      <point x="314.2" y="319.6" type="curve"/>
      <point x="287.8" y="314.2"/>
      <point x="175.2" y="305.2"/>
    </contour>
  </outline>
</glyph>
<glyph name="f" format="2">
  <advance width="260.4"/>
  <unicode hex="0066"/>
  <outline>
    <contour>
      <point x="93.8" y="0.0" type="line"/>
      <point x="113.8" y="0.0" type="line"/>
      <point x="113.8" y="464.8" type="line"/>
      <point x="249.2" y="464.8" type="line"/>
      <point x="249.2" y="484.0" type="line"/>
      <point x="113.8" y="484.0" type="line"/>
      <point x="113.8" y="511.8" type="line" smooth="yes"/>
      <point x="113.8" y="667.2"/>
      <point x="151.8" y="731.0"/>
      <point x="231.4" y="731.0" type="curve" smooth="yes"/>
      <point x="255.4" y="731.0"/>
      <point x="277.8" y="727.8"/>
      <point x="305.4" y="719.4" type="curve"/>
      <point x="309.6" y="737.8" type="line"/>
      <point x="278.8" y="746.8"/>
      <point x="255.2" y="750.2"/>
      <point x="230.6" y="750.2" type="curve" smooth="yes"/>
      <point x="140.4" y="750.2"/>
      <point x="93.8" y="681.2"/>
      <point x="93.8" y="511.8" type="curve" smooth="yes"/>
      <point x="93.8" y="484.0" type="line"/>
      <point x="17.8" y="478.2" type="line"/>
      <point x="17.8" y="464.8" type="line"/>
      <point x="93.8" y="464.8" type="line"/>
    </contour>
  </outline>
</glyph>
<glyph name="g" format="2">
  <advance width="380.4"/>
  <unicode hex="0067"/>
  <anchor x="197.8" y="530.0" name="top"/>
  <anchor x="196.4" y="-212.0" name="bottom"/>
  <outline>
    <contour>
      <point x="198.8" y="-220.0" type="curve" smooth="yes"/>
      <point x="307.6" y="-220.0"/>
      <point x="370.8" y="-163.4"/>
      <point x="370.8" y="-70.6" type="curve" smooth="yes"/>
      <point x="370.8" y="12.0"/>
      <point x="329.2" y="55.4"/>
      <point x="249.4" y="55.4" type="curve" smooth="yes"/>
      <point x="152.4" y="55.4" type="line" smooth="yes"/>
      <point x="91.6" y="55.4"/>
      <point x="69.8" y="84.8"/>
      <point x="69.8" y="126.0" type="curve" smooth="yes"/>
      <point x="69.8" y="165.8"/>
      <point x="89.0" y="199.4"/>
      <point x="123.4" y="224.0" type="curve"/>
      <point x="110.8" y="233.6" type="line"/>
      <point x="70.0" y="204.2"/>
      <point x="50.6" y="167.0"/>
      <point x="50.6" y="124.4" type="curve" smooth="yes"/>
      <point x="50.6" y="70.2"/>
      <point x="78.6" y="36.2"/>
      <point x="151.8" y="36.2" type="curve" smooth="yes"/>
      <point x="250.2" y="36.2" type="line" smooth="yes"/>
      <point x="314.4" y="36.2"/>
      <point x="350.8" y="-2.5999999999999996"/>
      <point x="350.8" y="-70.2" type="curve" smooth="yes"/>
      <point x="350.8" y="-153.2"/>
      <point x="296.8" y="-200.8"/>
      <point x="198.8" y="-200.8" type="curve" smooth="yes"/>
      <point x="101.4" y="-200.8"/>
      <point x="50.2" y="-159.0"/>
      <point x="50.2" y="-73.6" type="curve" smooth="yes"/>
      <point x="50.2" y="-21.4"/>
      <point x="66.8" y="20.6"/>
      <point x="113.8" y="50.2" type="curve"/>
      <point x="96.6" y="57.0" type="line"/>
      <point x="47.4" y="24.6"/>
      <point x="30.2" y="-19.4"/>
      <point x="30.2" y="-73.8" type="curve" smooth="yes"/>
      <point x="30.2" y="-171.0"/>
      <point x="88.0" y="-220.0"/>
    </contour>
    <contour>
      <point x="192.8" y="206.6" type="curve" smooth="yes"/>
      <point x="282.8" y="206.6"/>
      <point x="326.4" y="261.6"/>
      <point x="326.4" y="373.0" type="curve" smooth="yes"/>
      <point x="326.4" y="484.4"/>
      <point x="282.8" y="540.0"/>
      <point x="192.8" y="540.0" type="curve" smooth="yes"/>
      <point x="102.8" y="540.0"/>
      <point x="59.2" y="484.4"/>
      <point x="59.2" y="373.0" type="curve" smooth="yes"/>
      <point x="59.2" y="261.6"/>
      <point x="102.8" y="206.6"/>
    </contour>
    <contour>
      <point x="192.8" y="225.6" type="curve" smooth="yes"/>
      <point x="114.8" y="225.6"/>
      <point x="79.2" y="271.8"/>
      <point x="79.2" y="373.0" type="curve" smooth="yes"/>
      <point x="79.2" y="475.0"/>
      <point x="114.8" y="521.0"/>
      <point x="192.8" y="521.0" type="curve" smooth="yes"/>
      <point x="270.8" y="521.0"/>
      <point x="306.4" y="475.0"/>
      <point x="306.4" y="373.0" type="curve" smooth="yes"/>
      <point x="306.4" y="271.8"/>
      <point x="270.8" y="225.6"/>
    </contour>
    <contour>
      <point x="286.2" y="484.2" type="line"/>
      <point x="302.2" y="517.4"/>
      <point x="322.2" y="531.6"/>
      <point x="349.6" y="531.6" type="curve" smooth="yes"/>
      <point x="357.6" y="531.6"/>
      <point x="361.8" y="531.4"/>
      <point x="367.0" y="530.0" type="curve"/>
      <point x="368.2" y="550.0" type="line"/>
      <point x="361.6" y="551.4"/>
      <point x="358.0" y="551.6"/>
      <point x="349.6" y="551.6" type="curve" smooth="yes"/>
      <point x="315.6" y="551.6"/>
      <point x="287.0" y="532.4"/>
      <point x="274.8" y="501.0" type="curve"/>
    </contour>
  </outline>
</glyph>
<glyph name="h" format="2">
  <advance width="387.4"/>
  <unicode hex="0068"/>
  <anchor x="194.2" y="395.0" name="center"/>
  <anchor x="194.2" y="0.0" name="bottom"/>
  <anchor x="197.4" y="740.0" name="top"/>
  <outline>
    <contour>
      <point x="60.0" y="0.0" type="line"/>
      <point x="80.0" y="0.0" type="line"/>
      <point x="80.0" y="479.0" type="line"/>
      <point x="122.4" y="504.0"/>
      <point x="167.8" y="521.6"/>
      <point x="213.60000000000002" y="521.6" type="curve" smooth="yes"/>
      <point x="277.8" y="521.6"/>
      <point x="307.4" y="485.2"/>
      <point x="307.4" y="423.4" type="curve" smooth="yes"/>
      <point x="307.4" y="0.0" type="line"/>
      <point x="327.4" y="0.0" type="line"/>
      <point x="327.4" y="423.4" type="line" smooth="yes"/>
      <point x="327.4" y="505.4"/>
      <point x="283.6" y="540.0"/>
      <point x="219.2" y="540.0" type="curve" smooth="yes"/>
      <point x="167.6" y="540.0"/>
      <point x="122.80000000000001" y="522.8"/>
      <point x="80.0" y="500.0" type="curve"/>
      <point x="80.0" y="740.0" type="line"/>
      <point x="60.0" y="740.0" type="line"/>
    </contour>
  </outline>
</glyph>
<glyph name="i" format="2">
  <advance width="140.0"/>
  <unicode hex="0069"/>
  <anchor x="79.8" y="0.0" name="ogonek"/>
  <anchor x="70.0" y="0.0" name="bottom"/>
  <outline>
    <contour>
      <point x="70.0" y="677.0" type="curve" smooth="yes"/>
      <point x="84.4" y="677.0"/>
      <point x="84.6" y="678.0"/>
      <point x="84.6" y="694.0" type="curve" smooth="yes"/>
      <point x="84.6" y="710.0"/>
      <point x="84.4" y="711.0"/>
      <point x="70.0" y="711.0" type="curve" smooth="yes"/>
      <point x="55.6" y="711.0"/>
      <point x="55.4" y="710.0"/>
      <point x="55.4" y="694.0" type="curve" smooth="yes"/>
      <point x="55.4" y="678.0"/>
      <point x="56.6" y="677.0"/>
    </contour>
    <contour>
      <point x="60.0" y="0.0" type="line"/>
      <point x="80.0" y="0.0" type="line"/>
      <point x="80.0" y="530.0" type="line"/>
      <point x="60.0" y="530.0" type="line"/>
    </contour>
  </outline>
</glyph>
<glyph name="j" format="2">
  <advance width="139.6"/>
  <unicode hex="006A"/>
  <outline>
    <contour>
      <point x="79.8" y="530.0" type="line"/>
      <point x="59.8" y="530.0" type="line"/>
      <point x="59.8" y="14.0" type="line" smooth="yes"/>
      <point x="59.8" y="-83.4"/>
      <point x="39.2" y="-146.4"/>
      <point x="1.4000000000000004" y="-178.4" type="curve" smooth="yes"/>
      <point x="-4.6" y="-183.6"/>
      <point x="-10.6" y="-187.8"/>
      <point x="-17.6" y="-191.0" type="curve"/>
      <point x="-8.4" y="-208.4" type="line"/>
      <point x="0.40000000000000036" y="-203.6"/>
      <point x="8.4" y="-197.6"/>
      <point x="16.0" y="-191.6" type="curve" smooth="yes"/>
      <point x="57.8" y="-155.0"/>
      <point x="79.8" y="-90.0"/>
      <point x="79.8" y="14.0" type="curve" smooth="yes"/>
    </contour>
    <contour>
      <point x="69.4" y="677.0" type="curve" smooth="yes"/>
      <point x="83.0" y="677.0"/>
      <point x="84.0" y="678.0"/>
      <point x="84.0" y="694.0" type="curve" smooth="yes"/>
      <point x="84.0" y="710.0"/>
      <point x="83.0" y="711.0"/>
      <point x="69.4" y="711.0" type="curve" smooth="yes"/>
      <point x="55.0" y="711.0"/>
      <point x="54.8" y="710.0"/>
      <point x="54.8" y="694.0" type="curve" smooth="yes"/>
      <point x="54.8" y="678.0"/>
      <point x="56.0" y="677.0"/>
    </contour>
  </outline>
</glyph>
<glyph name="l" format="2">
  <advance width="177.0"/>
  <unicode hex="006C"/>
  <anchor x="89.0" y="395.0" name="center"/>
  <anchor x="70.0" y="740.0" name="top"/>
  <anchor x="156.0" y="740.0" name="topright"/>
  <anchor x="117.8" y="0.0" name="bottom"/>
  <outline>
    <contour>
      <point x="80.0" y="740.0" type="line"/>
      <point x="60.0" y="740.0" type="line"/>
      <point x="60.0" y="99.0" type="line" smooth="yes"/>
      <point x="60.0" y="8.0"/>
      <point x="87.0" y="-10.0"/>
      <point x="130.4" y="-10.0" type="curve" smooth="yes"/>
      <point x="144.6" y="-10.0"/>
      <point x="161.0" y="-7.0"/>
      <point x="175.8" y="-1.2" type="curve"/>
      <point x="171.8" y="18.0" type="line"/>
      <point x="154.6" y="12.2"/>
      <point x="141.6" y="10.0"/>
      <point x="130.4" y="10.0" type="curve" smooth="yes"/>
      <point x="101.0" y="10.0"/>
      <point x="80.0" y="24.0"/>
      <point x="80.0" y="99.0" type="curve" smooth="yes"/>
    </contour>
  </outline>
</glyph>
<glyph name="m" format="2">
  <advance width="595.0"/>
  <unicode hex="006D"/>
  <outline>
    <contour>
      <point x="60.0" y="0.0" type="line"/>
      <point x="80.0" y="0.0" type="line"/>
      <point x="80.0" y="480.8" type="line"/>
      <point x="117.6" y="504.6"/>
      <point x="158.2" y="520.6"/>
      <point x="199.4" y="520.6" type="curve" smooth="yes"/>
      <point x="268.8" y="520.6"/>
      <point x="288.0" y="472.6"/>
      <point x="288.0" y="422.4" type="curve" smooth="yes"/>
      <point x="288.0" y="0.0" type="line"/>
      <point x="308.0" y="0.0" type="line"/>
      <point x="308.0" y="422.4" type="line" smooth="yes"/>
      <point x="308.0" y="442.6"/>
      <point x="305.2" y="461.6"/>
      <point x="299.0" y="478.4" type="curve"/>
      <point x="332.4" y="501.0"/>
      <point x="378.2" y="521.6"/>
      <point x="425.6" y="521.6" type="curve" smooth="yes"/>
      <point x="495.8" y="521.6"/>
      <point x="515.0" y="473.4"/>
      <point x="515.0" y="423.2" type="curve" smooth="yes"/>
      <point x="515.0" y="0.0" type="line"/>
      <point x="535.0" y="0.0" type="line"/>
      <point x="535.0" y="423.2" type="line" smooth="yes"/>
      <point x="535.0" y="491.4"/>
      <point x="503.4" y="540.0"/>
      <point x="431.20000000000005" y="540.0" type="curve" smooth="yes"/>
      <point x="368.2" y="540.0"/>
      <point x="318.8" y="513.0"/>
      <point x="291.0" y="494.2" type="curve"/>
      <point x="274.8" y="521.8"/>
      <point x="246.4" y="539.0"/>
      <point x="205.0" y="539.0" type="curve" smooth="yes"/>
      <point x="157.2" y="539.0"/>
      <point x="116.2" y="522.0"/>
      <point x="80.0" y="501.6" type="curve"/>
      <point x="80.0" y="530.0" type="line"/>
      <point x="60.0" y="530.0" type="line"/>
    </contour>
  </outline>
</glyph>
<glyph name="o" format="2">
  <advance width="384.4"/>
  <unicode hex="006F"/>
  <anchor x="229.2" y="0.0" name="ogonek"/>
  <anchor x="192.2" y="530.0" name="top"/>
  <anchor x="264.2" y="522.0" name="topright"/>
  <anchor x="192.2" y="0.0" name="bottom"/>
  <outline>
    <contour>
      <point x="38.0" y="265.4" type="curve" smooth="yes"/>
      <point x="38.0" y="52.0"/>
      <point x="83.8" y="-10.0"/>
      <point x="192.2" y="-10.0" type="curve" smooth="yes"/>
      <point x="300.6" y="-10.0"/>
      <point x="346.4" y="52.0"/>
      <point x="346.4" y="265.4" type="curve" smooth="yes"/>
      <point x="346.4" y="476.2"/>
      <point x="304.0" y="540.0"/>
      <point x="192.2" y="540.0" type="curve" smooth="yes"/>
      <point x="80.4" y="540.0"/>
      <point x="38.0" y="476.2"/>
    </contour>
    <contour>
      <point x="58.0" y="265.4" type="curve" smooth="yes"/>
      <point x="58.0" y="460.2"/>
      <point x="93.4" y="521.6"/>
      <point x="192.2" y="521.6" type="curve" smooth="yes"/>
      <point x="291.0" y="521.6"/>
      <point x="326.4" y="460.2"/>
      <point x="326.4" y="265.4" type="curve" smooth="yes"/>
      <point x="326.4" y="68.6"/>
      <point x="287.6" y="8.4"/>
      <point x="192.2" y="8.4" type="curve" smooth="yes"/>
      <point x="96.8" y="8.4"/>
      <point x="58.0" y="68.6"/>
    </contour>
  </outline>
</glyph>
<glyph name="p" format="2">
  <advance width="377.0"/>
  <unicode hex="0070"/>
  <outline>
    <contour>
      <point x="60.0" y="-210.0" type="line"/>
      <point x="80.0" y="-210.0" type="line"/>
      <point x="80.0" y="1.8000000000000003" type="line"/>
      <point x="114.8" y="-6.6"/>
      <point x="142.8" y="-10.0"/>
      <point x="168.8" y="-10.0" type="curve" smooth="yes"/>
      <point x="287.8" y="-10.0"/>
      <point x="339.0" y="71.6"/>
      <point x="339.0" y="277.8" type="curve" smooth="yes"/>
      <point x="339.0" y="446.2"/>
      <point x="290.4" y="540.0"/>
      <point x="204.4" y="540.0" type="curve" smooth="yes"/>
      <point x="163.2" y="540.0"/>
      <point x="120.0" y="525.4"/>
      <point x="80.0" y="497.8" type="curve"/>
      <point x="80.0" y="538.0" type="line"/>
      <point x="60.0" y="538.0" type="line"/>
    </contour>
    <contour>
      <point x="164.8" y="7.4" type="curve" smooth="yes"/>
      <point x="141.6" y="7.4"/>
      <point x="117.4" y="10.8"/>
      <point x="80.0" y="19.4" type="curve"/>
      <point x="80.0" y="477.4" type="line"/>
      <point x="127.4" y="510.0"/>
      <point x="159.2" y="521.6"/>
      <point x="200.4" y="521.6" type="curve" smooth="yes"/>
      <point x="275.6" y="521.6"/>
      <point x="319.0" y="434.0"/>
      <point x="319.0" y="277.8" type="curve" smooth="yes"/>
      <point x="319.0" y="79.4"/>
      <point x="274.2" y="7.4"/>
    </contour>
  </outline>
</glyph>
<glyph name="q" format="2">
  <advance width="377.0"/>
  <unicode hex="0071"/>
  <outline>
    <contour>
      <point x="317.0" y="523.4" type="line"/>
      <point x="269.2" y="535.6"/>
      <point x="239.2" y="540.0"/>
      <point x="208.2" y="540.0" type="curve" smooth="yes"/>
      <point x="89.2" y="540.0"/>
      <point x="38.0" y="458.4"/>
      <point x="38.0" y="252.2" type="curve" smooth="yes"/>
      <point x="38.0" y="84.6"/>
      <point x="87.4" y="-10.0"/>
      <point x="172.6" y="-10.0" type="curve" smooth="yes"/>
      <point x="213.8" y="-10.0"/>
      <point x="257.0" y="4.6000000000000005"/>
      <point x="297.0" y="32.2" type="curve"/>
      <point x="297.0" y="-210.0" type="line"/>
      <point x="317.0" y="-210.0" type="line"/>
    </contour>
    <contour>
      <point x="297.0" y="509.8" type="curve"/>
      <point x="297.0" y="52.6" type="line"/>
      <point x="249.60000000000002" y="20.0"/>
      <point x="217.8" y="8.4"/>
      <point x="176.6" y="8.4" type="curve" smooth="yes"/>
      <point x="102.2" y="8.4"/>
      <point x="58.0" y="97.6"/>
      <point x="58.0" y="252.2" type="curve" smooth="yes"/>
      <point x="58.0" y="450.6"/>
      <point x="102.8" y="522.6"/>
      <point x="212.2" y="522.6" type="curve" smooth="yes"/>
      <point x="234.60000000000002" y="522.6"/>
      <point x="259.6" y="519.2"/>
    </contour>
  </outline>
</glyph>
<glyph name="r" format="2">
  <advance width="271.8"/>
  <unicode hex="0072"/>
  <anchor x="161.4" y="530.0" name="top"/>
  <anchor x="70.0" y="0.0" name="bottom"/>
  <outline>
    <contour>
      <point x="80.0" y="530.0" type="line"/>
      <point x="60.0" y="530.0" type="line"/>
      <point x="60.0" y="0.0" type="line"/>
      <point x="80.0" y="0.0" type="line"/>
      <point x="80.0" y="451.8" type="line"/>
      <point x="125.4" y="502.0"/>
      <point x="167.6" y="521.6"/>
      <point x="210.6" y="521.6" type="curve" smooth="yes"/>
      <point x="228.8" y="521.6"/>
      <point x="249.0" y="518.4"/>
      <point x="267.2" y="513.2" type="curve"/>
      <point x="272.0" y="530.8" type="line"/>
      <point x="254.60000000000002" y="536.6"/>
      <point x="232.4" y="540.0"/>
      <point x="209.8" y="540.0" type="curve" smooth="yes"/>
      <point x="164.0" y="540.0"/>
      <point x="119.2" y="519.4"/>
      <point x="80.0" y="479.2" type="curve"/>
    </contour>
  </outline>
</glyph>
<glyph name="s" format="2">
  <advance width="314.5"/>
  <unicode hex="0073"/>
  <anchor x="154.0" y="530.0" name="top"/>
  <anchor x="152.0" y="0.0" name="bottom"/>
  <outline>
    <contour>
      <point x="13.5" y="15.5" type="line"/>
      <point x="44.5" y="-1.0"/>
      <point x="97.0" y="-10.0"/>
      <point x="143.5" y="-10.0" type="curve" smooth="yes"/>
      <point x="234.0" y="-10.0"/>
      <point x="292.5" y="34.0"/>
      <point x="292.5" y="117.0" type="curve" smooth="yes"/>
      <point x="292.5" y="201.0"/>
      <point x="239.5" y="241.0"/>
      <point x="166.5" y="280.0" type="curve" smooth="yes"/>
      <point x="108.0" y="313.0"/>
      <point x="53.0" y="349.0"/>
      <point x="53.0" y="419.5" type="curve" smooth="yes"/>
      <point x="53.0" y="479.5"/>
      <point x="96.5" y="520.0"/>
      <point x="173.0" y="520.0" type="curve" smooth="yes"/>
      <point x="206.0" y="520.0"/>
      <point x="238.5" y="512.5"/>
      <point x="262.0" y="504.0" type="curve"/>
      <point x="269.5" y="522.0" type="line"/>
      <point x="244.5" y="532.5"/>
      <point x="208.5" y="540.0"/>
      <point x="173.0" y="540.0" type="curve" smooth="yes"/>
      <point x="81.5" y="540.0"/>
      <point x="33.0" y="490.0"/>
      <point x="33.0" y="419.5" type="curve" smooth="yes"/>
      <point x="33.0" y="339.5"/>
      <point x="91.0" y="299.0"/>
      <point x="156.0" y="263.0" type="curve" smooth="yes"/>
      <point x="228.0" y="225.5"/>
      <point x="272.5" y="189.0"/>
      <point x="272.5" y="117.0" type="curve" smooth="yes"/>
      <point x="272.5" y="48.0"/>
      <point x="221.5" y="10.0"/>
      <point x="143.5" y="10.0" type="curve" smooth="yes"/>
      <point x="101.0" y="10.0"/>
      <point x="52.5" y="18.5"/>
      <point x="22.5" y="33.0" type="curve"/>
    </contour>
  </outline>
</glyph>
<glyph name="t" format="2">
  <advance width="279.0"/>
  <unicode hex="0074"/>
  <anchor x="139.6" y="275.0" name="center"/>
  <anchor x="99.8" y="665.0" name="top"/>
  <anchor x="229.0" y="751.0" name="topright"/>
  <anchor x="172.2" y="0.0" name="bottom"/>
  <outline>
    <contour>
      <point x="195.2" y="-10.0" type="curve" smooth="yes"/>
      <point x="217.6" y="-10.0"/>
      <point x="245.8" y="-5.8"/>
      <point x="276.6" y="3.8000000000000007" type="curve"/>
      <point x="272.2" y="22.0" type="line"/>
      <point x="247.2" y="13.4"/>
      <point x="222.2" y="9.2"/>
      <point x="196.0" y="9.2" type="curve" smooth="yes"/>
      <point x="132.2" y="9.2"/>
      <point x="107.0" y="43.2"/>
      <point x="107.0" y="121.4" type="curve" smooth="yes"/>
      <point x="107.0" y="510.8" type="line"/>
      <point x="266.8" y="510.8" type="line"/>
      <point x="266.8" y="530.0" type="line"/>
      <point x="107.0" y="530.0" type="line"/>
      <point x="107.0" y="665.0" type="line"/>
      <point x="91.8" y="665.0" type="line"/>
      <point x="87.0" y="530.0" type="line"/>
      <point x="8.8" y="524.2" type="line"/>
      <point x="8.8" y="510.8" type="line"/>
      <point x="87.0" y="510.8" type="line"/>
      <point x="87.0" y="121.4" type="line" smooth="yes"/>
      <point x="87.0" y="42.6"/>
      <point x="111.6" y="-10.0"/>
    </contour>
  </outline>
</glyph>
<glyph name="u" format="2">
  <advance width="389.2"/>
  <unicode hex="0075"/>
  <anchor x="387.4" y="-1.0" name="ogonek"/>
  <anchor x="189.0" y="530.0" name="top"/>
  <anchor x="318.8" y="530.0" name="topright"/>
  <anchor x="195.0" y="0.0" name="bottom"/>
  <outline>
    <contour>
      <point x="165.0" y="-10.0" type="curve" smooth="yes"/>
      <point x="214.60000000000002" y="-10.0"/>
      <point x="258.2" y="7.2"/>
      <point x="301.6" y="31.8" type="curve"/>
      <point x="305.8" y="4.0"/>
      <point x="327.2" y="-10.0"/>
      <point x="350.0" y="-10.0" type="curve" smooth="yes"/>
      <point x="361.0" y="-10.0"/>
      <point x="372.8" y="-7.8"/>
      <point x="387.4" y="-1.0" type="curve"/>
      <point x="380.6" y="15.8" type="line"/>
      <point x="370.4" y="10.8"/>
      <point x="360.6" y="8.6"/>
      <point x="351.0" y="8.6" type="curve" smooth="yes"/>
      <point x="331.8" y="8.6"/>
      <point x="318.8" y="20.8"/>
      <point x="318.8" y="55.0" type="curve" smooth="yes"/>
      <point x="318.8" y="530.0" type="line"/>
      <point x="298.8" y="530.0" type="line"/>
      <point x="298.8" y="50.8" type="line"/>
      <point x="258.8" y="26.2"/>
      <point x="214.2" y="8.4"/>
      <point x="170.6" y="8.4" type="curve" smooth="yes"/>
      <point x="109.6" y="8.4"/>
      <point x="80.0" y="43.8"/>
      <point x="80.0" y="102.6" type="curve" smooth="yes"/>
      <point x="80.0" y="530.0" type="line"/>
      <point x="60.0" y="530.0" type="line"/>
      <point x="60.0" y="102.6" type="line" smooth="yes"/>
      <point x="60.0" y="24.6"/>
      <point x="102.8" y="-10.0"/>
    </contour>
  </outline>
</glyph>
<glyph name="v" format="2">
  <advance width="341.4"/>
  <unicode hex="0076"/>
  <outline>
    <contour>
      <point x="162.4" y="0.0" type="line"/>
      <point x="178.8" y="0.0" type="line"/>
      <point x="327.6" y="527.2" type="line"/>
      <point x="308.4" y="532.8" type="line"/>
      <point x="170.8" y="41.2" type="line"/>
      <point x="33.0" y="532.8" type="line"/>
      <point x="13.8" y="527.2" type="line"/>
    </contour>
  </outline>
</glyph>
<glyph name="w" format="2">
  <advance width="510.5"/>
  <unicode hex="0077"/>
  <anchor x="255.0" y="530.0" name="top"/>
  <anchor x="255.0" y="0.0" name="bottom"/>
  <outline>
    <contour>
      <point x="130.0" y="0.0" type="line"/>
      <point x="146.5" y="0.0" type="line"/>
      <point x="255.0" y="487.0" type="line"/>
      <point x="364.5" y="0.0" type="line"/>
      <point x="381.0" y="0.0" type="line"/>
      <point x="499.0" y="526.5" type="line"/>
      <point x="479.5" y="532.0" type="line"/>
      <point x="373.5" y="44.0" type="line"/>
      <point x="265.0" y="530.0" type="line"/>
      <point x="245.0" y="530.0" type="line"/>
      <point x="138.5" y="43.5" type="line"/>
      <point x="31.0" y="532.0" type="line"/>
      <point x="11.0" y="526.5" type="line"/>
    </contour>
  </outline>
</glyph>
<glyph name="x" format="2">
  <advance width="362.5"/>
  <unicode hex="0078"/>
  <outline>
    <contour>
      <point x="10.5" y="-3.0" type="line"/>
      <point x="28.0" y="-9.5" type="line"/>
      <point x="180.5" y="252.5" type="line"/>
      <point x="335.0" y="-9.5" type="line"/>
      <point x="353.0" y="-3.0" type="line"/>
      <point x="193.0" y="271.5" type="line"/>
      <point x="340.0" y="527.0" type="line"/>
      <point x="322.0" y="533.5" type="line"/>
      <point x="182.0" y="293.0" type="line"/>
      <point x="41.0" y="534.0" type="line"/>
      <point x="23.0" y="526.0" type="line"/>
      <point x="169.5" y="273.5" type="line"/>
    </contour>
  </outline>
</glyph>
<glyph name="y" format="2">
  <advance width="341.6"/>
  <unicode hex="0079"/>
  <anchor x="169.8" y="530.0" name="top"/>
  <anchor x="268.6" y="0.0" name="bottom"/>
  <outline>
    <contour>
      <point x="125.0" y="-207.4" type="line"/>
      <point x="145.4" y="-213.4" type="line"/>
      <point x="326.2" y="528.2" type="line"/>
      <point x="306.6" y="533.4" type="line"/>
      <point x="185.0" y="36.8" type="line"/>
      <point x="33.8" y="533.6" type="line"/>
      <point x="14.6" y="528.0" type="line"/>
      <point x="173.6" y="0.0" type="line"/>
      <point x="175.0" y="0.0" type="line"/>
    </contour>
  </outline>
</glyph>
<glyph name="z" format="2">
  <advance width="340.2"/>
  <unicode hex="007A"/>
  <anchor x="172.4" y="530.0" name="top"/>
  <outline>
    <contour>
      <point x="23.8" y="0.0" type="line"/>
      <point x="323.4" y="0.0" type="line"/>
      <point x="323.4" y="19.2" type="line"/>
      <point x="48.2" y="19.2" type="line"/>
      <point x="303.8" y="512.0" type="line"/>
      <point x="303.8" y="530.0" type="line"/>
      <point x="38.6" y="530.0" type="line"/>
      <point x="38.6" y="510.8" type="line"/>
      <point x="280.2" y="510.8" type="line"/>
      <point x="23.8" y="18.0" type="line"/>
    </contour>
  </outline>
</glyph>
<glyph name="braceleft" format="2">
  <advance width="248.4"/>
  <unicode hex="007B"/>
  <outline>
    <contour>
      <point x="95.2" y="-72.2" type="curve" smooth="yes"/>
      <point x="95.2" y="-144.6"/>
      <point x="119.2" y="-210.0"/>
      <point x="189.6" y="-210.0" type="curve" smooth="yes"/>
      <point x="214.0" y="-210.0" type="line"/>
      <point x="214.0" y="-190.0" type="line"/>
      <point x="189.6" y="-190.0" type="line" smooth="yes"/>
      <point x="133.6" y="-190.0"/>
      <point x="115.2" y="-134.6"/>
      <point x="115.2" y="-72.2" type="curve" smooth="yes"/>
      <point x="115.2" y="11.6"/>
      <point x="148.2" y="77.4"/>
      <point x="148.2" y="165.0" type="curve" smooth="yes"/>
      <point x="148.2" y="199.8"/>
      <point x="138.6" y="250.2"/>
      <point x="107.6" y="265.0" type="curve"/>
      <point x="138.4" y="284.6"/>
      <point x="148.2" y="329.8"/>
      <point x="148.2" y="364.6" type="curve" smooth="yes"/>
      <point x="148.2" y="447.4"/>
      <point x="115.2" y="512.2"/>
      <point x="115.2" y="601.8" type="curve" smooth="yes"/>
      <point x="115.2" y="664.2"/>
      <point x="133.6" y="720.0"/>
      <point x="189.6" y="720.0" type="curve" smooth="yes"/>
      <point x="214.0" y="720.0" type="line"/>
      <point x="214.0" y="740.0" type="line"/>
      <point x="189.6" y="740.0" type="line" smooth="yes"/>
      <point x="119.2" y="740.0"/>
      <point x="95.2" y="674.2"/>
      <point x="95.2" y="601.8" type="curve" smooth="yes"/>
      <point x="95.2" y="507.0"/>
      <point x="128.2" y="446.2"/>
      <point x="128.2" y="364.6" type="curve" smooth="yes"/>
      <point x="128.2" y="326.0"/>
      <point x="117.4" y="275.0"/>
      <point x="89.0" y="275.0" type="curve" smooth="yes"/>
      <point x="68.0" y="275.0" type="line"/>
      <point x="68.0" y="255.0" type="line"/>
      <point x="89.0" y="255.0" type="line" smooth="yes"/>
      <point x="117.4" y="255.0"/>
      <point x="128.2" y="204.4"/>
      <point x="128.2" y="165.0" type="curve" smooth="yes"/>
      <point x="128.2" y="81.4"/>
      <point x="95.2" y="16.6"/>
    </contour>
  </outline>
</glyph>
<glyph name="braceright" format="2">
  <advance width="248.4"/>
  <unicode hex="007D"/>
  <outline>
    <contour>
      <point x="34.4" y="-190.0" type="line"/>
      <point x="34.4" y="-210.0" type="line"/>
      <point x="59.6" y="-210.0" type="line" smooth="yes"/>
      <point x="130.0" y="-210.0"/>
      <point x="154.0" y="-144.6"/>
      <point x="154.0" y="-72.2" type="curve" smooth="yes"/>
      <point x="154.0" y="16.6"/>
      <point x="121.0" y="81.4"/>
      <point x="121.0" y="165.0" type="curve" smooth="yes"/>
      <point x="121.0" y="204.4"/>
      <point x="131.8" y="255.0"/>
      <point x="160.2" y="255.0" type="curve" smooth="yes"/>
      <point x="180.4" y="255.0" type="line"/>
      <point x="180.4" y="275.0" type="line"/>
      <point x="160.2" y="275.0" type="line" smooth="yes"/>
      <point x="131.0" y="275.0"/>
      <point x="121.0" y="326.0"/>
      <point x="121.0" y="364.6" type="curve" smooth="yes"/>
      <point x="121.0" y="446.2"/>
      <point x="154.0" y="507.0"/>
      <point x="154.0" y="601.8" type="curve" smooth="yes"/>
      <point x="154.0" y="674.2"/>
      <point x="130.0" y="740.0"/>
      <point x="59.6" y="740.0" type="curve" smooth="yes"/>
      <point x="34.4" y="740.0" type="line"/>
      <point x="34.4" y="720.0" type="line"/>
      <point x="59.6" y="720.0" type="line" smooth="yes"/>
      <point x="114.8" y="720.0"/>
      <point x="134.0" y="664.2"/>
      <point x="134.0" y="601.8" type="curve" smooth="yes"/>
      <point x="134.0" y="512.2"/>
      <point x="101.0" y="447.4"/>
      <point x="101.0" y="364.6" type="curve" smooth="yes"/>
      <point x="101.0" y="329.8"/>
      <point x="110.0" y="284.6"/>
      <point x="141.6" y="265.0" type="curve"/>
      <point x="109.8" y="250.2"/>
      <point x="101.0" y="199.8"/>
      <point x="101.0" y="165.0" type="curve" smooth="yes"/>
      <point x="101.0" y="77.4"/>
      <point x="134.0" y="11.6"/>
      <point x="134.0" y="-72.2" type="curve" smooth="yes"/>
      <point x="134.0" y="-134.6"/>
      <point x="114.8" y="-190.0"/>
      <point x="59.6" y="-190.0" type="curve" smooth="yes"/>
    </contour>
  </outline>
</glyph>
<glyph name="asciitilde" format="2">
  <advance width="408.0"/>
  <unicode hex="007E"/>
  <outline>
    <contour>
      <point x="349.8" y="255.0" type="curve"/>
      <point x="349.8" y="279.8" type="line"/>
      <point x="331.0" y="255.0"/>
      <point x="315.0" y="240.8"/>
      <point x="289.8" y="240.8" type="curve" smooth="yes"/>
      <point x="226.0" y="240.8"/>
      <point x="188.4" y="358.0"/>
      <point x="119.0" y="358.0" type="curve" smooth="yes"/>
      <point x="93.0" y="358.0"/>
      <point x="76.0" y="346.4"/>
      <point x="59.0" y="324.2" type="curve"/>
      <point x="59.0" y="299.2" type="line"/>
      <point x="77.0" y="323.6"/>
      <point x="93.4" y="338.0"/>
      <point x="118.6" y="338.0" type="curve" smooth="yes"/>
      <point x="177.6" y="338.0"/>
      <point x="216.0" y="220.8"/>
      <point x="289.4" y="220.8" type="curve" smooth="yes"/>
      <point x="317.2" y="220.8"/>
      <point x="333.0" y="232.8"/>
    </contour>
  </outline>
</glyph>
<glyph name="exclamdown" format="2">
  <advance width="158.4"/>
  <unicode hex="00A1"/>
  <outline>
    <contour>
      <point x="89.2" y="266.0" type="line"/>
      <point x="69.2" y="266.0" type="line"/>
      <point x="69.2" y="-210.0" type="line"/>
      <point x="89.2" y="-210.0" type="line"/>
    </contour>
    <contour>
      <point x="93.8" y="513.0" type="curve" smooth="yes"/>
      <point x="93.8" y="529.0"/>
      <point x="93.6" y="530.0"/>
      <point x="79.2" y="530.0" type="curve" smooth="yes"/>
      <point x="65.8" y="530.0"/>
      <point x="64.6" y="529.0"/>
      <point x="64.6" y="513.0" type="curve" smooth="yes"/>
      <point x="64.6" y="497.0"/>
      <point x="64.8" y="496.0"/>
      <point x="79.2" y="496.0" type="curve" smooth="yes"/>
      <point x="93.6" y="496.0"/>
      <point x="93.8" y="497.0"/>
    </contour>
  </outline>
</glyph>
<glyph name="cent" format="2">
  <advance width="406.8"/>
  <unicode hex="00A2"/>
  <outline>
    <contour>
      <point x="227.60000000000002" y="-10.0" type="curve" smooth="yes"/>
      <point x="259.0" y="-10.0"/>
      <point x="296.2" y="-5.4"/>
      <point x="326.20000000000005" y="2.8000000000000007" type="curve"/>
      <point x="322.20000000000005" y="20.4" type="line"/>
      <point x="293.4" y="13.2"/>
      <point x="258.2" y="9.2"/>
      <point x="228.2" y="9.2" type="curve" smooth="yes"/>
      <point x="142.6" y="9.2"/>
      <point x="101.4" y="87.0"/>
      <point x="101.4" y="253.4" type="curve" smooth="yes"/>
      <point x="101.4" y="435.6"/>
      <point x="149.4" y="520.8"/>
      <point x="235.0" y="520.8" type="curve" smooth="yes"/>
      <point x="264.2" y="520.8"/>
      <point x="285.8" y="517.4"/>
      <point x="314.6" y="509.4" type="curve"/>
      <point x="319.4" y="527.0" type="line"/>
      <point x="290.4" y="536.2"/>
      <point x="263.6" y="540.0"/>
      <point x="235.0" y="540.0" type="curve" smooth="yes"/>
      <point x="132.6" y="540.0"/>
      <point x="81.4" y="444.4"/>
      <point x="81.4" y="253.4" type="curve" smooth="yes"/>
      <point x="81.4" y="75.2"/>
      <point x="127.2" y="-10.0"/>
    </contour>
    <contour>
      <point x="208.8" y="-105.0" type="line"/>
      <point x="228.8" y="-105.0" type="line"/>
      <point x="228.8" y="-4.8" type="line"/>
      <point x="208.8" y="-2.6" type="line"/>
    </contour>
    <contour>
      <point x="208.8" y="531.6" type="line"/>
      <point x="228.8" y="535.0" type="line"/>
      <point x="228.8" y="635.0" type="line"/>
      <point x="208.8" y="635.0" type="line"/>
    </contour>
  </outline>
</glyph>
<glyph name="sterling" format="2">
  <advance width="406.8"/>
  <unicode hex="00A3"/>
  <outline>
    <contour>
      <point x="62.6" y="0.0" type="line"/>
      <point x="369.20000000000005" y="0.0" type="line"/>
      <point x="369.20000000000005" y="20.0" type="line"/>
      <point x="85.0" y="20.0" type="line"/>
      <point x="140.8" y="101.0"/>
      <point x="169.8" y="152.4"/>
      <point x="169.8" y="239.2" type="curve" smooth="yes"/>
      <point x="169.8" y="345.6"/>
      <point x="103.4" y="405.0"/>
      <point x="103.4" y="522.2" type="curve" smooth="yes"/>
      <point x="103.4" y="642.0"/>
      <point x="162.6" y="690.0"/>
      <point x="243.8" y="690.0" type="curve" smooth="yes"/>
      <point x="273.6" y="690.0"/>
      <point x="315.0" y="683.8"/>
      <point x="345.4" y="675.2" type="curve"/>
      <point x="351.0" y="692.0" type="line"/>
      <point x="324.8" y="702.6"/>
      <point x="275.6" y="710.0"/>
      <point x="243.8" y="710.0" type="curve" smooth="yes"/>
      <point x="139.4" y="710.0"/>
      <point x="83.4" y="633.6"/>
      <point x="83.4" y="522.0" type="curve" smooth="yes"/>
      <point x="83.4" y="393.6"/>
      <point x="149.8" y="342.0"/>
      <point x="149.8" y="238.8" type="curve" smooth="yes"/>
      <point x="149.8" y="154.4"/>
      <point x="123.0" y="113.8"/>
      <point x="62.6" y="20.0" type="curve"/>
    </contour>
    <contour>
      <point x="45.0" y="366.0" type="line"/>
      <point x="304.0" y="366.0" type="line"/>
      <point x="304.0" y="386.0" type="line"/>
      <point x="45.0" y="386.0" type="line"/>
    </contour>
  </outline>
</glyph>
<glyph name="currency" format="2">
  <advance width="423.0"/>
  <unicode hex="00A4"/>
  <outline>
    <contour>
      <point x="36.0" y="451.0" type="line"/>
      <point x="110.0" y="376.0" type="line"/>
      <point x="91.0" y="353.0"/>
      <point x="79.0" y="323.0"/>
      <point x="79.0" y="289.0" type="curve" smooth="yes"/>
      <point x="79.0" y="255.0"/>
      <point x="91.0" y="225.0"/>
      <point x="111.0" y="202.0" type="curve"/>
      <point x="36.0" y="127.0" type="line"/>
      <point x="50.0" y="113.0" type="line"/>
      <point x="125.0" y="188.0" type="line"/>
      <point x="148.0" y="168.0"/>
      <point x="178.0" y="157.0"/>
      <point x="211.0" y="157.0" type="curve" smooth="yes"/>
      <point x="244.0" y="157.0"/>
      <point x="275.0" y="168.0"/>
      <point x="298.0" y="188.0" type="curve"/>
      <point x="373.0" y="113.0" type="line"/>
      <point x="387.0" y="127.0" type="line"/>
      <point x="312.0" y="202.0" type="line"/>
      <point x="332.0" y="225.0"/>
      <point x="344.0" y="255.0"/>
      <point x="344.0" y="289.0" type="curve" smooth="yes"/>
      <point x="344.0" y="323.0"/>
      <point x="332.0" y="353.0"/>
      <point x="312.0" y="376.0" type="curve"/>
      <point x="387.0" y="451.0" type="line"/>
      <point x="373.0" y="465.0" type="line"/>
      <point x="298.0" y="390.0" type="line"/>
      <point x="275.0" y="410.0"/>
      <point x="245.0" y="422.0"/>
      <point x="211.0" y="422.0" type="curve" smooth="yes"/>
      <point x="177.0" y="422.0"/>
      <point x="147.0" y="410.0"/>
      <point x="124.0" y="390.0" type="curve"/>
      <point x="50.0" y="465.0" type="line"/>
    </contour>
    <contour>
      <point x="211.0" y="177.0" type="curve" smooth="yes"/>
      <point x="149.0" y="177.0"/>
      <point x="99.0" y="227.0"/>
      <point x="99.0" y="289.0" type="curve" smooth="yes"/>
      <point x="99.0" y="352.0"/>
      <point x="149.0" y="402.0"/>
      <point x="211.0" y="402.0" type="curve" smooth="yes"/>
      <point x="274.0" y="402.0"/>
      <point x="324.0" y="352.0"/>
      <point x="324.0" y="289.0" type="curve" smooth="yes"/>
      <point x="324.0" y="227.0"/>
      <point x="274.0" y="177.0"/>
    </contour>
  </outline>
</glyph>
<glyph name="yen" format="2">
  <advance width="407.0"/>
  <unicode hex="00A5"/>
  <outline>
    <contour>
      <point x="67.0" y="366.0" type="line"/>
      <point x="197.5" y="366.0" type="line"/>
      <point x="197.5" y="221.5" type="line"/>
      <point x="67.0" y="221.5" type="line"/>
      <point x="67.0" y="201.5" type="line"/>
      <point x="197.5" y="201.5" type="line"/>
      <point x="197.5" y="0.0" type="line"/>
      <point x="217.5" y="0.0" type="line"/>
      <point x="217.5" y="201.5" type="line"/>
      <point x="348.0" y="201.5" type="line"/>
      <point x="348.0" y="221.5" type="line"/>
      <point x="217.5" y="221.5" type="line"/>
      <point x="217.5" y="366.0" type="line"/>
      <point x="348.0" y="366.0" type="line"/>
      <point x="348.0" y="386.0" type="line"/>
      <point x="217.5" y="386.0" type="line"/>
      <point x="357.5" y="696.0" type="line"/>
      <point x="339.5" y="704.0" type="line"/>
      <point x="207.5" y="412.0" type="line"/>
      <point x="67.5" y="704.0" type="line"/>
      <point x="49.5" y="696.0" type="line"/>
      <point x="197.5" y="386.0" type="line"/>
      <point x="67.0" y="386.0" type="line"/>
    </contour>
  </outline>
</glyph>
<glyph name="brokenbar" format="2">
  <advance width="147.2"/>
  <unicode hex="00A6"/>
  <outline>
    <contour>
      <point x="83.6" y="391.0" type="line"/>
      <point x="83.6" y="790.0" type="line"/>
      <point x="63.6" y="790.0" type="line"/>
      <point x="63.6" y="391.0" type="line"/>
    </contour>
    <contour>
      <point x="63.6" y="190.0" type="line"/>
      <point x="63.6" y="-210.0" type="line"/>
      <point x="83.6" y="-210.0" type="line"/>
      <point x="83.6" y="190.0" type="line"/>
    </contour>
  </outline>
</glyph>
<glyph name="section" format="2">
  <advance width="373.6"/>
  <unicode hex="00A7"/>
  <outline>
    <contour>
      <point x="153.0" y="-220.0" type="curve" smooth="yes"/>
      <point x="273.0" y="-220.0"/>
      <point x="350.0" y="-105.6"/>
      <point x="350.0" y="49.2" type="curve" smooth="yes"/>
      <point x="350.0" y="138.6"/>
      <point x="329.8" y="218.2"/>
      <point x="258.2" y="417.2" type="curve" smooth="yes"/>
      <point x="202.2" y="575.2"/>
      <point x="193.4" y="600.4"/>
      <point x="193.4" y="643.2" type="curve" smooth="yes"/>
      <point x="193.4" y="697.4"/>
      <point x="221.4" y="729.4"/>
      <point x="266.8" y="729.4" type="curve" smooth="yes"/>
      <point x="284.0" y="729.4"/>
      <point x="300.8" y="726.4"/>
      <point x="323.8" y="717.2" type="curve"/>
      <point x="331.4" y="732.8" type="line"/>
      <point x="303.2" y="744.6"/>
      <point x="274.6" y="749.2"/>
      <point x="245.6" y="749.2" type="curve" smooth="yes"/>
      <point x="120.2" y="749.2"/>
      <point x="43.0" y="649.8"/>
      <point x="42.0" y="483.6" type="curve" smooth="yes"/>
      <point x="42.0" y="389.0"/>
      <point x="64.0" y="299.6"/>
      <point x="130.6" y="125.0" type="curve" smooth="yes"/>
      <point x="180.0" y="-13.399999999999999"/>
      <point x="198.0" y="-65.0"/>
      <point x="198.2" y="-113.2" type="curve" smooth="yes"/>
      <point x="198.4" y="-166.6"/>
      <point x="170.2" y="-198.4"/>
      <point x="126.2" y="-198.4" type="curve" smooth="yes"/>
      <point x="96.8" y="-198.4"/>
      <point x="71.8" y="-187.6"/>
      <point x="35.2" y="-156.8" type="curve"/>
      <point x="23.6" y="-171.2" type="line"/>
      <point x="68.4" y="-208.2"/>
      <point x="100.4" y="-220.0"/>
    </contour>
    <contour>
      <point x="154.6" y="-205.8" type="curve" smooth="yes"/>
      <point x="132.4" y="-205.8"/>
      <point x="118.4" y="-203.6"/>
      <point x="106.6" y="-199.6" type="curve"/>
      <point x="122.2" y="-211.8" type="line"/>
      <point x="177.8" y="-212.0"/>
      <point x="216.4" y="-172.0"/>
      <point x="216.4" y="-114.0" type="curve" smooth="yes"/>
      <point x="216.4" y="-67.2"/>
      <point x="202.6" y="-15.799999999999999"/>
      <point x="148.0" y="132.0" type="curve" smooth="yes"/>
      <point x="79.4" y="319.8"/>
      <point x="61.2" y="389.8"/>
      <point x="61.2" y="483.6" type="curve" smooth="yes"/>
      <point x="61.2" y="633.2"/>
      <point x="132.6" y="732.6"/>
      <point x="236.8" y="732.6" type="curve" smooth="yes"/>
      <point x="243.4" y="732.6"/>
      <point x="249.4" y="732.4"/>
      <point x="258.2" y="731.2" type="curve"/>
      <point x="248.6" y="740.6" type="line"/>
      <point x="202.0" y="731.4"/>
      <point x="173.6" y="692.6"/>
      <point x="173.4" y="642.8" type="curve" smooth="yes"/>
      <point x="173.4" y="597.6"/>
      <point x="185.8" y="556.2"/>
      <point x="240.0" y="411.0" type="curve" smooth="yes"/>
      <point x="311.6" y="211.6"/>
      <point x="331.6" y="135.6"/>
      <point x="331.6" y="49.2" type="curve" smooth="yes"/>
      <point x="331.8" y="-97.8"/>
      <point x="263.8" y="-205.6"/>
    </contour>
  </outline>
</glyph>
<glyph name="copyright" format="2">
  <advance width="451.6"/>
  <unicode hex="00A9"/>
  <outline>
    <contour>
      <point x="225.8" y="7.6" type="curve" smooth="yes"/>
      <point x="126.4" y="7.6"/>
      <point x="58.6" y="85.8"/>
      <point x="58.6" y="350.0" type="curve" smooth="yes"/>
      <point x="58.6" y="615.0"/>
      <point x="126.4" y="692.4"/>
      <point x="225.8" y="692.4" type="curve" smooth="yes"/>
      <point x="325.2" y="692.4"/>
      <point x="393.0" y="615.0"/>
      <point x="393.0" y="350.0" type="curve" smooth="yes"/>
      <point x="393.0" y="85.8"/>
      <point x="325.2" y="7.6"/>
    </contour>
    <contour>
      <point x="225.8" y="710.0" type="curve" smooth="yes"/>
      <point x="113.2" y="710.0"/>
      <point x="41.0" y="631.0"/>
      <point x="41.0" y="350.0" type="curve" smooth="yes"/>
      <point x="41.0" y="69.8"/>
      <point x="113.2" y="-10.0"/>
      <point x="225.8" y="-10.0" type="curve" smooth="yes"/>
      <point x="338.4" y="-10.0"/>
      <point x="410.6" y="69.8"/>
      <point x="410.6" y="350.0" type="curve" smooth="yes"/>
      <point x="410.6" y="631.0"/>
      <point x="338.4" y="710.0"/>
    </contour>
    <contour>
      <point x="132.2" y="335.6" type="curve" smooth="yes"/>
      <point x="132.2" y="223.4"/>
      <point x="167.0" y="168.6"/>
      <point x="232.8" y="168.6" type="curve" smooth="yes"/>
      <point x="260.2" y="168.6"/>
      <point x="287.6" y="173.4"/>
      <point x="303.2" y="176.8" type="curve"/>
      <point x="298.8" y="195.2" type="line"/>
      <point x="285.4" y="191.6"/>
      <point x="258.0" y="187.8"/>
      <point x="232.8" y="187.8" type="curve" smooth="yes"/>
      <point x="176.0" y="187.8"/>
      <point x="152.2" y="244.2"/>
      <point x="152.2" y="335.6" type="curve" smooth="yes"/>
      <point x="152.2" y="454.2"/>
      <point x="184.2" y="497.0"/>
      <point x="240.8" y="497.0" type="curve" smooth="yes"/>
      <point x="259.4" y="497.0"/>
      <point x="273.8" y="496.0"/>
      <point x="291.4" y="490.8" type="curve"/>
      <point x="295.8" y="509.2" type="line"/>
      <point x="277.4" y="514.4"/>
      <point x="259.8" y="516.2"/>
      <point x="240.8" y="516.2" type="curve" smooth="yes"/>
      <point x="175.0" y="516.2"/>
      <point x="132.2" y="469.6"/>
    </contour>
  </outline>
</glyph>
<glyph name="ordfeminine" format="2">
  <advance width="256.2"/>
  <unicode hex="00AA"/>
  <outline>
    <contour>
      <point x="33.8" y="296.6" type="line"/>
      <point x="228.4" y="296.6" type="line"/>
      <point x="228.4" y="314.2" type="line"/>
      <point x="33.8" y="314.2" type="line"/>
    </contour>
    <component base="a.superior" xOffset="12.6"/>
  </outline>
</glyph>
<glyph name="logicalnot" format="2">
  <advance width="408.0"/>
  <unicode hex="00AC"/>
  <outline>
    <contour>
      <point x="47.0" y="384.0" type="line"/>
      <point x="341.8" y="384.0" type="line"/>
      <point x="341.8" y="177.0" type="line"/>
      <point x="361.8" y="177.0" type="line"/>
      <point x="361.8" y="404.0" type="line"/>
      <point x="47.0" y="404.0" type="line"/>
    </contour>
  </outline>
</glyph>
<glyph name="registered" format="2">
  <advance width="433.20000000000005"/>
  <unicode hex="00AE"/>
  <outline>
    <contour>
      <point x="217.0" y="208.2" type="curve" smooth="yes"/>
      <point x="323.8" y="208.2"/>
      <point x="392.20000000000005" y="284.0"/>
      <point x="392.20000000000005" y="550.2" type="curve" smooth="yes"/>
      <point x="392.20000000000005" y="817.2"/>
      <point x="323.8" y="892.2"/>
      <point x="217.0" y="892.2" type="curve" smooth="yes"/>
      <point x="110.2" y="892.2"/>
      <point x="41.0" y="817.2"/>
      <point x="41.0" y="550.2" type="curve" smooth="yes"/>
      <point x="41.0" y="284.0"/>
      <point x="110.2" y="208.2"/>
    </contour>
    <contour>
      <point x="217.0" y="224.8" type="curve" smooth="yes"/>
      <point x="122.4" y="224.8"/>
      <point x="58.4" y="299.0"/>
      <point x="58.4" y="550.2" type="curve" smooth="yes"/>
      <point x="58.4" y="802.2"/>
      <point x="122.4" y="875.6"/>
      <point x="217.0" y="875.6" type="curve" smooth="yes"/>
      <point x="311.6" y="875.6"/>
      <point x="375.6" y="802.2"/>
      <point x="375.6" y="550.2" type="curve" smooth="yes"/>
      <point x="375.6" y="299.0"/>
      <point x="311.6" y="224.8"/>
    </contour>
    <contour>
      <point x="312.4" y="400.2" type="curve" smooth="yes"/>
      <point x="315.4" y="400.2"/>
      <point x="316.6" y="400.2"/>
      <point x="321.2" y="401.0" type="curve"/>
      <point x="318.8" y="419.2" type="line"/>
      <point x="316.8" y="418.4"/>
      <point x="315.6" y="418.4"/>
      <point x="313.6" y="418.4" type="curve" smooth="yes"/>
      <point x="294.8" y="418.4"/>
      <point x="275.8" y="451.8"/>
      <point x="244.0" y="539.2" type="curve"/>
      <point x="281.6" y="553.0"/>
      <point x="293.0" y="585.2"/>
      <point x="293.0" y="630.8" type="curve" smooth="yes"/>
      <point x="293.0" y="692.4"/>
      <point x="268.6" y="715.0"/>
      <point x="206.0" y="715.0" type="curve" smooth="yes"/>
      <point x="185.4" y="715.0"/>
      <point x="168.0" y="713.4"/>
      <point x="143.8" y="709.6" type="curve"/>
      <point x="143.8" y="402.0" type="line"/>
      <point x="162.8" y="402.0" type="line"/>
      <point x="162.8" y="536.2" type="line"/>
      <point x="180.0" y="535.2"/>
      <point x="193.8" y="534.2"/>
      <point x="208.60000000000002" y="534.2" type="curve" smooth="yes"/>
      <point x="213.60000000000002" y="534.2"/>
      <point x="218.60000000000002" y="534.2"/>
      <point x="223.60000000000002" y="535.0" type="curve"/>
      <point x="261.2" y="425.4"/>
      <point x="284.4" y="400.2"/>
    </contour>
    <contour>
      <point x="205.4" y="552.4" type="curve" smooth="yes"/>
      <point x="191.4" y="552.4"/>
      <point x="178.4" y="552.6"/>
      <point x="162.8" y="553.6" type="curve"/>
      <point x="162.8" y="693.6" type="line"/>
      <point x="181.4" y="695.8"/>
      <point x="190.2" y="696.8"/>
      <point x="206.8" y="696.8" type="curve" smooth="yes"/>
      <point x="265.6" y="696.8"/>
      <point x="274.0" y="669.8"/>
      <point x="274.0" y="629.2" type="curve" smooth="yes"/>
      <point x="274.0" y="582.0"/>
      <point x="258.6" y="552.4"/>
    </contour>
  </outline>
</glyph>
<glyph name="plusminus" format="2">
  <advance width="433.6"/>
  <unicode hex="00B1"/>
  <outline>
    <contour>
      <point x="43.8" y="72.0" type="line"/>
      <point x="389.8" y="72.0" type="line"/>
      <point x="389.8" y="92.0" type="line"/>
      <point x="226.8" y="92.0" type="line"/>
      <point x="226.8" y="298.0" type="line"/>
      <point x="389.8" y="298.0" type="line"/>
      <point x="389.8" y="318.0" type="line"/>
      <point x="226.8" y="318.0" type="line"/>
      <point x="226.8" y="506.6" type="line"/>
      <point x="206.8" y="506.6" type="line"/>
      <point x="206.8" y="318.0" type="line"/>
      <point x="43.8" y="318.0" type="line"/>
      <point x="43.8" y="298.0" type="line"/>
      <point x="206.8" y="298.0" type="line"/>
      <point x="206.8" y="92.0" type="line"/>
      <point x="43.8" y="92.0" type="line"/>
    </contour>
  </outline>
</glyph>
<glyph name="uni00B2" format="2">
  <advance width="307.4"/>
  <unicode hex="00B2"/>
  <outline>
    <contour>
      <point x="60.2" y="370.0" type="line"/>
      <point x="254.0" y="370.0" type="line"/>
      <point x="254.0" y="386.0" type="line"/>
      <point x="81.4" y="386.0" type="line"/>
      <point x="189.4" y="532.8"/>
      <point x="220.2" y="606.4"/>
      <point x="220.2" y="670.2" type="curve" smooth="yes"/>
      <point x="220.2" y="736.2"/>
      <point x="191.4" y="774.8"/>
      <point x="139.2" y="774.8" type="curve" smooth="yes"/>
      <point x="111.2" y="774.8"/>
      <point x="82.6" y="767.0"/>
      <point x="59.4" y="743.2" type="curve"/>
      <point x="67.0" y="730.6" type="line"/>
      <point x="88.8" y="753.2"/>
      <point x="112.6" y="758.2"/>
      <point x="138.0" y="758.2" type="curve" smooth="yes"/>
      <point x="178.4" y="758.2"/>
      <point x="201.8" y="723.2"/>
      <point x="201.8" y="667.4" type="curve" smooth="yes"/>
      <point x="201.8" y="607.4"/>
      <point x="166.0" y="524.6"/>
      <point x="57.2" y="384.0" type="curve"/>
    </contour>
  </outline>
</glyph>
<glyph name="uni00B3" format="2">
  <advance width="297.0"/>
  <unicode hex="00B3"/>
  <outline>
    <contour>
      <point x="41.6" y="389.8" type="line"/>
      <point x="67.6" y="369.6"/>
      <point x="97.6" y="360.0"/>
      <point x="138.2" y="360.0" type="curve" smooth="yes"/>
      <point x="208.4" y="360.0"/>
      <point x="250.4" y="405.4"/>
      <point x="250.4" y="481.0" type="curve" smooth="yes"/>
      <point x="250.4" y="533.8"/>
      <point x="228.2" y="569.4"/>
      <point x="183.8" y="577.8" type="curve"/>
      <point x="217.0" y="588.6"/>
      <point x="234.60000000000002" y="623.4"/>
      <point x="234.60000000000002" y="668.8" type="curve" smooth="yes"/>
      <point x="234.60000000000002" y="733.0"/>
      <point x="197.2" y="773.6"/>
      <point x="136.6" y="773.6" type="curve" smooth="yes"/>
      <point x="101.4" y="773.6"/>
      <point x="73.6" y="764.8"/>
      <point x="56.6" y="752.8" type="curve"/>
      <point x="63.6" y="740.4" type="line"/>
      <point x="81.2" y="750.2"/>
      <point x="101.0" y="756.4"/>
      <point x="134.8" y="756.4" type="curve" smooth="yes"/>
      <point x="186.6" y="756.4"/>
      <point x="217.0" y="723.4"/>
      <point x="217.0" y="668.2" type="curve" smooth="yes"/>
      <point x="217.0" y="620.8"/>
      <point x="196.0" y="584.6"/>
      <point x="147.4" y="584.6" type="curve" smooth="yes"/>
      <point x="99.2" y="584.6" type="line"/>
      <point x="99.2" y="568.8" type="line"/>
      <point x="147.2" y="568.8" type="line" smooth="yes"/>
      <point x="208.2" y="568.8"/>
      <point x="231.2" y="536.2"/>
      <point x="231.2" y="481.0" type="curve" smooth="yes"/>
      <point x="231.2" y="415.4"/>
      <point x="196.2" y="376.8"/>
      <point x="137.4" y="376.8" type="curve" smooth="yes"/>
      <point x="99.6" y="376.8"/>
      <point x="74.4" y="384.8"/>
      <point x="50.8" y="402.6" type="curve"/>
    </contour>
  </outline>
</glyph>
<glyph name="uni00B5" format="2">
  <advance width="389.2"/>
  <unicode hex="00B5"/>
  <outline>
    <contour>
      <point x="60.0" y="-210.0" type="line"/>
      <point x="80.0" y="-210.0" type="line"/>
      <point x="80.0" y="32.0" type="line"/>
      <point x="97.4" y="2.2"/>
      <point x="127.0" y="-10.0"/>
      <point x="165.0" y="-10.0" type="curve" smooth="yes"/>
      <point x="214.60000000000002" y="-10.0"/>
      <point x="258.2" y="7.2"/>
      <point x="301.6" y="31.8" type="curve"/>
      <point x="305.8" y="4.0"/>
      <point x="327.2" y="-10.0"/>
      <point x="350.0" y="-10.0" type="curve" smooth="yes"/>
      <point x="361.0" y="-10.0"/>
      <point x="372.8" y="-7.8"/>
      <point x="387.4" y="-1.0" type="curve"/>
      <point x="380.6" y="15.8" type="line"/>
      <point x="370.4" y="10.8"/>
      <point x="360.6" y="8.6"/>
      <point x="351.0" y="8.6" type="curve" smooth="yes"/>
      <point x="331.8" y="8.6"/>
      <point x="318.8" y="20.8"/>
      <point x="318.8" y="55.0" type="curve" smooth="yes"/>
      <point x="318.8" y="530.0" type="line"/>
      <point x="298.8" y="530.0" type="line"/>
      <point x="298.8" y="50.8" type="line"/>
      <point x="258.8" y="26.2"/>
      <point x="214.2" y="8.4"/>
      <point x="170.6" y="8.4" type="curve" smooth="yes"/>
      <point x="109.6" y="8.4"/>
      <point x="80.0" y="43.8"/>
      <point x="80.0" y="102.6" type="curve" smooth="yes"/>
      <point x="80.0" y="530.0" type="line"/>
      <point x="60.0" y="530.0" type="line"/>
    </contour>
  </outline>
</glyph>
<glyph name="paragraph" format="2">
  <advance width="459.8"/>
  <unicode hex="00B6"/>
  <outline>
    <contour>
      <point x="378.8" y="-210.0" type="line"/>
      <point x="398.8" y="-210.0" type="line"/>
      <point x="398.8" y="740.0" type="line"/>
      <point x="378.8" y="740.0" type="line"/>
    </contour>
    <contour>
      <point x="192.4" y="197.2" type="line"/>
      <point x="90.0" y="215.6"/>
      <point x="45.8" y="312.4"/>
      <point x="45.8" y="457.8" type="curve" smooth="yes"/>
      <point x="45.8" y="609.0"/>
      <point x="106.0" y="717.0"/>
      <point x="246.2" y="721.6" type="curve"/>
      <point x="246.2" y="-210.0" type="line"/>
      <point x="266.2" y="-210.0" type="line"/>
      <point x="266.2" y="740.0" type="line"/>
      <point x="251.6" y="740.0" type="line" smooth="yes"/>
      <point x="94.0" y="740.0"/>
      <point x="25.8" y="618.8"/>
      <point x="25.8" y="457.8" type="curve" smooth="yes"/>
      <point x="25.8" y="303.6"/>
      <point x="76.0" y="198.4"/>
      <point x="191.2" y="177.2" type="curve"/>
    </contour>
  </outline>
</glyph>
<glyph name="uni00B9" format="2">
  <advance width="280.6"/>
  <unicode hex="00B9"/>
  <outline>
    <contour>
      <point x="29.6" y="370.0" type="line"/>
      <point x="251.60000000000002" y="370.0" type="line"/>
      <point x="251.60000000000002" y="386.8" type="line"/>
      <point x="157.4" y="386.8" type="line"/>
      <point x="157.4" y="769.6" type="line"/>
      <point x="147.2" y="769.6" type="line"/>
      <point x="28.8" y="690.8" type="line"/>
      <point x="36.4" y="675.6" type="line"/>
      <point x="138.4" y="742.6" type="line"/>
      <point x="138.4" y="386.8" type="line"/>
      <point x="29.6" y="386.8" type="line"/>
    </contour>
  </outline>
</glyph>
<glyph name="ordmasculine" format="2">
  <advance width="281.2"/>
  <unicode hex="00BA"/>
  <outline>
    <contour>
      <point x="44.6" y="296.8" type="line"/>
      <point x="240.8" y="296.8" type="line"/>
      <point x="240.8" y="314.4" type="line"/>
      <point x="44.6" y="314.4" type="line"/>
    </contour>
    <component base="o.superior" xOffset="17.6"/>
  </outline>
</glyph>
<glyph name="questiondown" format="2">
  <advance width="323.0"/>
  <unicode hex="00BF"/>
  <outline>
    <contour>
      <point x="198.2" y="266.6" type="line"/>
      <point x="178.2" y="266.6" type="line"/>
      <point x="178.2" y="191.0" type="line"/>
      <point x="83.0" y="117.8"/>
      <point x="34.4" y="71.6"/>
      <point x="34.4" y="-41.4" type="curve" smooth="yes"/>
      <point x="34.4" y="-168.0"/>
      <point x="107.8" y="-220.0"/>
      <point x="180.6" y="-220.0" type="curve" smooth="yes"/>
      <point x="231.8" y="-220.0"/>
      <point x="283.8" y="-198.4"/>
      <point x="323.4" y="-161.6" type="curve"/>
      <point x="311.8" y="-147.6" type="line"/>
      <point x="270.2" y="-184.8"/>
      <point x="223.0" y="-200.8"/>
      <point x="180.6" y="-200.8" type="curve" smooth="yes"/>
      <point x="115.4" y="-200.8"/>
      <point x="55.2" y="-145.6"/>
      <point x="55.2" y="-43.0" type="curve" smooth="yes"/>
      <point x="55.2" y="48.8"/>
      <point x="90.8" y="107.6"/>
      <point x="198.2" y="180.6" type="curve"/>
    </contour>
    <contour>
      <point x="202.2" y="513.0" type="curve" smooth="yes"/>
      <point x="202.2" y="529.0"/>
      <point x="199.4" y="530.0"/>
      <point x="186.8" y="530.0" type="curve" smooth="yes"/>
      <point x="173.2" y="530.0"/>
      <point x="172.2" y="529.0"/>
      <point x="172.2" y="513.0" type="curve" smooth="yes"/>
      <point x="172.2" y="497.0"/>
      <point x="173.2" y="496.0"/>
      <point x="186.8" y="496.0" type="curve" smooth="yes"/>
      <point x="201.2" y="496.0"/>
      <point x="202.2" y="497.0"/>
    </contour>
  </outline>
</glyph>
<glyph name="AE" format="2">
  <advance width="659.2"/>
  <unicode hex="00C6"/>
  <anchor x="351.2" y="700.0" name="top"/>
  <outline>
    <contour>
      <point x="16.2" y="0.0" type="line"/>
      <point x="37.8" y="-0.8" type="line"/>
      <point x="181.6" y="324.6" type="line"/>
      <point x="340.0" y="324.6" type="line"/>
      <point x="340.0" y="0.0" type="line"/>
      <point x="639.8" y="0.0" type="line"/>
      <point x="639.8" y="20.0" type="line"/>
      <point x="360.0" y="20.0" type="line"/>
      <point x="360.0" y="323.8" type="line"/>
      <point x="607.6" y="323.8" type="line"/>
      <point x="607.6" y="343.8" type="line"/>
      <point x="360.0" y="343.8" type="line"/>
      <point x="360.0" y="680.0" type="line"/>
      <point x="626.0" y="680.0" type="line"/>
      <point x="626.0" y="700.0" type="line"/>
      <point x="328.0" y="700.0" type="line"/>
    </contour>
    <contour>
      <point x="189.8" y="343.8" type="line"/>
      <point x="340.0" y="680.4" type="line"/>
      <point x="340.0" y="343.8" type="line"/>
    </contour>
  </outline>
</glyph>
<glyph name="multiply" format="2">
  <advance width="392.0"/>
  <unicode hex="00D7"/>
  <outline>
    <contour>
      <point x="74.8" y="76.6" type="line"/>
      <point x="195.4" y="268.4" type="line"/>
      <point x="317.0" y="78.0" type="line"/>
      <point x="334.2" y="88.0" type="line"/>
      <point x="207.8" y="288.0" type="line"/>
      <point x="333.8" y="490.0" type="line"/>
      <point x="316.6" y="500.0" type="line"/>
      <point x="195.4" y="308.4" type="line"/>
      <point x="74.6" y="500.4" type="line"/>
      <point x="57.4" y="490.4" type="line"/>
      <point x="183.8" y="288.0" type="line"/>
      <point x="57.6" y="86.6" type="line"/>
    </contour>
  </outline>
</glyph>
<glyph name="Oslash" format="2">
  <advance width="491.0"/>
  <unicode hex="00D8"/>
  <anchor x="243.5" y="700.0" name="top"/>
  <outline>
    <contour>
      <point x="61.0" y="-10.0" type="line"/>
      <point x="104.0" y="65.5" type="line"/>
      <point x="106.5" y="70.5" type="line"/>
      <point x="395.0" y="609.5" type="line"/>
      <point x="397.5" y="615.0" type="line"/>
      <point x="450.0" y="710.0" type="line"/>
      <point x="427.5" y="710.0" type="line"/>
      <point x="385.5" y="635.5" type="line"/>
      <point x="382.5" y="630.0" type="line"/>
      <point x="94.5" y="91.0" type="line"/>
      <point x="92.5" y="87.5" type="line"/>
      <point x="39.0" y="-10.0" type="line"/>
    </contour>
    <contour>
      <point x="243.5" y="8.5" type="curve" smooth="yes"/>
      <point x="141.5" y="8.5"/>
      <point x="60.0" y="77.0"/>
      <point x="60.0" y="349.0" type="curve" smooth="yes"/>
      <point x="60.0" y="625.5"/>
      <point x="141.5" y="691.5"/>
      <point x="243.5" y="691.5" type="curve" smooth="yes"/>
      <point x="346.5" y="691.5"/>
      <point x="428.5" y="626.0"/>
      <point x="428.5" y="349.0" type="curve" smooth="yes"/>
      <point x="428.5" y="74.0"/>
      <point x="346.5" y="8.5"/>
    </contour>
    <contour>
      <point x="243.5" y="-10.0" type="curve" smooth="yes"/>
      <point x="361.5" y="-10.0"/>
      <point x="449.0" y="58.5"/>
      <point x="449.0" y="350.0" type="curve" smooth="yes"/>
      <point x="449.0" y="641.5"/>
      <point x="359.0" y="710.0"/>
      <point x="243.5" y="710.0" type="curve" smooth="yes"/>
      <point x="128.0" y="710.0"/>
      <point x="40.0" y="641.0"/>
      <point x="40.0" y="349.0" type="curve" smooth="yes"/>
      <point x="40.0" y="62.0"/>
      <point x="128.0" y="-10.0"/>
    </contour>
  </outline>
</glyph>
<glyph name="Thorn" format="2">
  <advance width="408.0"/>
  <unicode hex="00DE"/>
  <outline>
    <contour>
      <point x="62.8" y="0.0" type="line"/>
      <point x="82.8" y="0.0" type="line"/>
      <point x="82.8" y="183.4" type="line"/>
      <point x="123.2" y="181.8"/>
      <point x="152.2" y="181.6"/>
      <point x="190.2" y="181.6" type="curve" smooth="yes"/>
      <point x="320.8" y="181.6"/>
      <point x="379.6" y="241.4"/>
      <point x="379.6" y="403.6" type="curve" smooth="yes"/>
      <point x="379.6" y="556.2"/>
      <point x="338.8" y="607.4"/>
      <point x="187.60000000000002" y="607.4" type="curve" smooth="yes"/>
      <point x="164.0" y="607.4"/>
      <point x="136.4" y="606.2"/>
      <point x="82.8" y="603.0" type="curve"/>
      <point x="82.8" y="700.0" type="line"/>
      <point x="62.8" y="700.0" type="line"/>
    </contour>
    <contour>
      <point x="191.0" y="201.6" type="curve" smooth="yes"/>
      <point x="149.0" y="201.6"/>
      <point x="123.80000000000001" y="202.2"/>
      <point x="82.8" y="203.6" type="curve"/>
      <point x="82.8" y="583.8" type="line"/>
      <point x="136.8" y="587.8"/>
      <point x="164.0" y="589.0"/>
      <point x="188.4" y="589.0" type="curve" smooth="yes"/>
      <point x="327.20000000000005" y="589.0"/>
      <point x="359.6" y="536.4"/>
      <point x="359.6" y="401.2" type="curve" smooth="yes"/>
      <point x="359.6" y="256.2"/>
      <point x="312.4" y="201.6"/>
    </contour>
  </outline>
</glyph>
<glyph name="germandbls" format="2">
  <advance width="438.5"/>
  <unicode hex="00DF"/>
  <outline>
    <contour>
      <point x="93.5" y="0.0" type="line"/>
      <point x="113.5" y="0.0" type="line"/>
      <point x="113.5" y="533.5" type="line" smooth="yes"/>
      <point x="113.5" y="665.0"/>
      <point x="159.0" y="731.0"/>
      <point x="256.0" y="731.0" type="curve" smooth="yes"/>
      <point x="327.5" y="731.0"/>
      <point x="364.5" y="703.0"/>
      <point x="364.5" y="646.0" type="curve" smooth="yes"/>
      <point x="364.5" y="596.0"/>
      <point x="341.5" y="572.5"/>
      <point x="280.5" y="535.0" type="curve" smooth="yes"/>
      <point x="226.5" y="501.5"/>
      <point x="199.0" y="462.0"/>
      <point x="199.0" y="412.5" type="curve" smooth="yes"/>
      <point x="199.0" y="353.0"/>
      <point x="221.0" y="320.5"/>
      <point x="305.0" y="265.0" type="curve" smooth="yes"/>
      <point x="388.5" y="210.0"/>
      <point x="413.0" y="177.5"/>
      <point x="413.0" y="119.0" type="curve" smooth="yes"/>
      <point x="413.0" y="51.0"/>
      <point x="360.0" y="10.0"/>
      <point x="289.5" y="10.0" type="curve" smooth="yes"/>
      <point x="248.5" y="10.0"/>
      <point x="205.5" y="19.0"/>
      <point x="171.5" y="33.0" type="curve"/>
      <point x="162.5" y="15.5" type="line"/>
      <point x="198.0" y="-0.5"/>
      <point x="244.5" y="-10.0"/>
      <point x="289.5" y="-10.0" type="curve" smooth="yes"/>
      <point x="373.0" y="-10.0"/>
      <point x="433.0" y="38.0"/>
      <point x="433.0" y="119.0" type="curve" smooth="yes"/>
      <point x="433.0" y="183.5"/>
      <point x="404.0" y="224.0"/>
      <point x="319.5" y="279.5" type="curve" smooth="yes"/>
      <point x="239.5" y="332.5"/>
      <point x="219.0" y="360.0"/>
      <point x="219.0" y="412.5" type="curve" smooth="yes"/>
      <point x="219.0" y="458.5"/>
      <point x="244.0" y="491.0"/>
      <point x="292.5" y="521.5" type="curve" smooth="yes"/>
      <point x="355.0" y="559.5"/>
      <point x="384.5" y="591.5"/>
      <point x="384.5" y="646.0" type="curve" smooth="yes"/>
      <point x="384.5" y="714.5"/>
      <point x="338.0" y="750.0"/>
      <point x="256.5" y="750.0" type="curve" smooth="yes"/>
      <point x="146.5" y="750.0"/>
      <point x="94.0" y="682.0"/>
      <point x="93.5" y="545.0" type="curve" smooth="yes"/>
      <point x="93.5" y="484.5" type="line"/>
      <point x="18.0" y="478.5" type="line"/>
      <point x="18.0" y="464.5" type="line"/>
      <point x="93.5" y="464.5" type="line"/>
    </contour>
  </outline>
</glyph>
<glyph name="ae" format="2">
  <advance width="594.5"/>
  <unicode hex="00E6"/>
  <anchor x="302.0" y="530.0" name="top"/>
  <outline>
    <contour>
      <point x="127.5" y="-10.0" type="curve" smooth="yes"/>
      <point x="192.5" y="-10.0"/>
      <point x="248.5" y="29.0"/>
      <point x="293.5" y="81.0" type="curve"/>
      <point x="294.5" y="81.0" type="line"/>
      <point x="317.5" y="18.5"/>
      <point x="358.0" y="-10.0"/>
      <point x="427.0" y="-10.0" type="curve" smooth="yes"/>
      <point x="480.5" y="-10.0"/>
      <point x="520.0" y="-2.5"/>
      <point x="553.0" y="10.5" type="curve"/>
      <point x="548.5" y="29.0" type="line"/>
      <point x="515.5" y="17.5"/>
      <point x="476.5" y="9.5"/>
      <point x="428.0" y="9.5" type="curve" smooth="yes"/>
      <point x="336.5" y="9.5"/>
      <point x="293.5" y="64.5"/>
      <point x="293.5" y="261.0" type="curve" smooth="yes"/>
      <point x="293.5" y="267.5"/>
      <point x="293.5" y="277.0"/>
      <point x="294.0" y="282.5" type="curve"/>
      <point x="431.0" y="282.5"/>
      <point x="522.0" y="296.5"/>
      <point x="562.5" y="302.0" type="curve"/>
      <point x="562.5" y="306.0"/>
      <point x="563.5" y="310.5"/>
      <point x="563.5" y="324.0" type="curve" smooth="yes"/>
      <point x="563.5" y="470.0"/>
      <point x="513.5" y="540.0"/>
      <point x="425.0" y="540.0" type="curve" smooth="yes"/>
      <point x="364.5" y="540.0"/>
      <point x="310.5" y="503.5"/>
      <point x="290.0" y="418.0" type="curve"/>
      <point x="289.0" y="418.0" type="line"/>
      <point x="290.0" y="496.5"/>
      <point x="246.0" y="540.0"/>
      <point x="168.5" y="540.0" type="curve" smooth="yes"/>
      <point x="133.5" y="540.0"/>
      <point x="94.5" y="533.5"/>
      <point x="55.0" y="520.0" type="curve"/>
      <point x="61.0" y="502.0" type="line"/>
      <point x="100.5" y="515.0"/>
      <point x="136.5" y="520.0"/>
      <point x="169.0" y="520.0" type="curve" smooth="yes"/>
      <point x="239.5" y="520.0"/>
      <point x="274.5" y="481.0"/>
      <point x="274.5" y="407.5" type="curve" smooth="yes"/>
      <point x="274.5" y="296.0" type="line"/>
      <point x="104.0" y="261.5"/>
      <point x="23.0" y="220.5"/>
      <point x="23.0" y="109.0" type="curve" smooth="yes"/>
      <point x="23.0" y="32.0"/>
      <point x="63.5" y="-10.0"/>
    </contour>
    <contour>
      <point x="128.5" y="9.0" type="curve" smooth="yes"/>
      <point x="76.0" y="9.0"/>
      <point x="43.0" y="46.5"/>
      <point x="43.0" y="114.0" type="curve" smooth="yes"/>
      <point x="43.0" y="211.0"/>
      <point x="131.0" y="251.5"/>
      <point x="274.0" y="277.0" type="curve"/>
      <point x="274.0" y="268.0"/>
      <point x="274.0" y="259.0"/>
      <point x="274.0" y="250.0" type="curve" smooth="yes"/>
      <point x="274.0" y="186.5"/>
      <point x="279.5" y="137.5"/>
      <point x="287.5" y="101.5" type="curve"/>
      <point x="246.0" y="50.0"/>
      <point x="184.5" y="9.0"/>
    </contour>
    <contour>
      <point x="294.5" y="301.0" type="curve"/>
      <point x="294.5" y="464.5"/>
      <point x="353.5" y="521.5"/>
      <point x="423.5" y="521.5" type="curve" smooth="yes"/>
      <point x="502.5" y="521.5"/>
      <point x="543.5" y="454.0"/>
      <point x="543.5" y="318.5" type="curve"/>
      <point x="512.5" y="312.0"/>
      <point x="406.0" y="301.0"/>
    </contour>
  </outline>
</glyph>
<glyph name="eth" format="2">
  <advance width="379.5"/>
  <unicode hex="00F0"/>
  <outline>
    <contour>
      <point x="326.0" y="481.5" type="curve"/>
      <point x="327.5" y="501.5" type="line"/>
      <point x="299.0" y="526.0"/>
      <point x="261.0" y="535.5"/>
      <point x="215.5" y="535.5" type="curve" smooth="yes"/>
      <point x="96.5" y="535.5"/>
      <point x="38.0" y="451.5"/>
      <point x="38.0" y="257.0" type="curve" smooth="yes"/>
      <point x="38.0" y="64.0"/>
      <point x="84.0" y="-10.0"/>
      <point x="183.5" y="-10.0" type="curve" smooth="yes"/>
      <point x="297.5" y="-10.0"/>
      <point x="340.5" y="69.0"/>
      <point x="340.5" y="324.5" type="curve" smooth="yes"/>
      <point x="340.5" y="594.5"/>
      <point x="293.5" y="710.0"/>
      <point x="144.0" y="710.0" type="curve" smooth="yes"/>
      <point x="107.5" y="710.0"/>
      <point x="81.0" y="706.0"/>
      <point x="40.5" y="695.5" type="curve"/>
      <point x="45.5" y="678.0" type="line"/>
      <point x="80.5" y="687.0"/>
      <point x="106.5" y="692.0"/>
      <point x="142.0" y="692.0" type="curve" smooth="yes"/>
      <point x="270.0" y="692.0"/>
      <point x="321.0" y="599.0"/>
      <point x="321.0" y="322.5" type="curve" smooth="yes"/>
      <point x="321.0" y="87.0"/>
      <point x="283.5" y="8.5"/>
      <point x="184.0" y="8.5" type="curve" smooth="yes"/>
      <point x="97.0" y="8.5"/>
      <point x="58.0" y="78.0"/>
      <point x="58.0" y="257.5" type="curve" smooth="yes"/>
      <point x="58.0" y="441.5"/>
      <point x="115.0" y="517.5"/>
      <point x="214.5" y="517.5" type="curve" smooth="yes"/>
      <point x="257.5" y="517.5"/>
      <point x="292.5" y="510.0"/>
    </contour>
    <contour>
      <point x="111.5" y="572.0" type="line"/>
      <point x="255.0" y="657.5" type="line"/>
      <point x="259.5" y="659.0" type="line"/>
      <point x="356.5" y="717.0" type="line"/>
      <point x="324.5" y="717.0" type="line"/>
      <point x="247.5" y="671.5" type="line"/>
      <point x="244.0" y="670.0" type="line"/>
      <point x="79.0" y="572.0" type="line"/>
    </contour>
  </outline>
</glyph>
<glyph name="divide" format="2">
  <advance width="408.0"/>
  <unicode hex="00F7"/>
  <outline>
    <contour>
      <point x="189.4" y="88.8" type="curve" smooth="yes"/>
      <point x="189.4" y="72.8"/>
      <point x="189.8" y="71.8"/>
      <point x="204.0" y="71.8" type="curve" smooth="yes"/>
      <point x="218.4" y="71.8"/>
      <point x="218.6" y="72.8"/>
      <point x="218.6" y="88.8" type="curve" smooth="yes"/>
      <point x="218.6" y="104.8"/>
      <point x="217.6" y="105.8"/>
      <point x="204.0" y="105.8" type="curve" smooth="yes"/>
      <point x="189.6" y="105.8"/>
      <point x="189.4" y="104.8"/>
    </contour>
    <contour>
      <point x="189.4" y="489.2" type="curve" smooth="yes"/>
      <point x="189.4" y="473.2"/>
      <point x="190.6" y="472.2"/>
      <point x="204.0" y="472.2" type="curve" smooth="yes"/>
      <point x="218.4" y="472.2"/>
      <point x="218.6" y="473.2"/>
      <point x="218.6" y="489.2" type="curve" smooth="yes"/>
      <point x="218.6" y="505.2"/>
      <point x="218.4" y="506.2"/>
      <point x="204.0" y="506.2" type="curve" smooth="yes"/>
      <point x="189.6" y="506.2"/>
      <point x="189.4" y="505.2"/>
    </contour>
    <contour>
      <point x="43.8" y="279.0" type="line"/>
      <point x="364.2" y="279.0" type="line"/>
      <point x="364.2" y="299.0" type="line"/>
      <point x="43.8" y="299.0" type="line"/>
    </contour>
  </outline>
</glyph>
<glyph name="oslash" format="2">
  <advance width="384.5"/>
  <unicode hex="00F8"/>
  <anchor x="192.0" y="530.0" name="top"/>
  <outline>
    <contour>
      <point x="192.0" y="-10.0" type="curve" smooth="yes"/>
      <point x="84.0" y="-10.0"/>
      <point x="38.0" y="52.0"/>
      <point x="38.0" y="265.5" type="curve" smooth="yes"/>
      <point x="38.0" y="476.0"/>
      <point x="80.5" y="540.0"/>
      <point x="192.0" y="540.0" type="curve" smooth="yes"/>
      <point x="304.0" y="540.0"/>
      <point x="346.5" y="476.0"/>
      <point x="346.5" y="265.5" type="curve" smooth="yes"/>
      <point x="346.5" y="52.0"/>
      <point x="300.5" y="-10.0"/>
    </contour>
    <contour>
      <point x="192.0" y="8.5" type="curve" smooth="yes"/>
      <point x="287.5" y="8.5"/>
      <point x="326.5" y="68.5"/>
      <point x="326.5" y="265.5" type="curve" smooth="yes"/>
      <point x="326.5" y="460.0"/>
      <point x="291.0" y="521.5"/>
      <point x="192.0" y="521.5" type="curve" smooth="yes"/>
      <point x="93.5" y="521.5"/>
      <point x="58.0" y="460.0"/>
      <point x="58.0" y="265.5" type="curve" smooth="yes"/>
      <point x="58.0" y="68.5"/>
      <point x="97.0" y="8.5"/>
    </contour>
    <contour>
      <point x="36.5" y="-10.0" type="line"/>
      <point x="75.5" y="64.5" type="line"/>
      <point x="77.0" y="64.5" type="line"/>
      <point x="296.5" y="488.5" type="line"/>
      <point x="298.0" y="488.5" type="line"/>
      <point x="325.5" y="540.0" type="line"/>
      <point x="348.0" y="540.0" type="line"/>
      <point x="309.0" y="465.0" type="line"/>
      <point x="307.5" y="465.0" type="line"/>
      <point x="88.5" y="42.5" type="line"/>
      <point x="87.0" y="42.5" type="line"/>
      <point x="59.0" y="-10.0" type="line"/>
    </contour>
  </outline>
</glyph>
<glyph name="thorn" format="2">
  <advance width="377.0"/>
  <unicode hex="00FE"/>
  <outline>
    <contour>
      <point x="60.0" y="-210.0" type="line"/>
      <point x="80.0" y="-210.0" type="line"/>
      <point x="80.0" y="1.6" type="line"/>
      <point x="112.0" y="-6.6"/>
      <point x="142.2" y="-10.0"/>
      <point x="168.8" y="-10.0" type="curve" smooth="yes"/>
      <point x="289.8" y="-10.0"/>
      <point x="339.0" y="68.8"/>
      <point x="339.0" y="273.8" type="curve" smooth="yes"/>
      <point x="339.0" y="446.0"/>
      <point x="285.4" y="540.0"/>
      <point x="186.2" y="540.0" type="curve" smooth="yes"/>
      <point x="151.4" y="540.0"/>
      <point x="111.0" y="531.0"/>
      <point x="80.0" y="518.8" type="curve"/>
      <point x="80.0" y="740.0" type="line"/>
      <point x="60.0" y="740.0" type="line"/>
    </contour>
    <contour>
      <point x="164.8" y="7.4" type="curve" smooth="yes"/>
      <point x="141.6" y="7.4"/>
      <point x="117.4" y="10.8"/>
      <point x="80.0" y="19.4" type="curve"/>
      <point x="80.0" y="498.6" type="line"/>
      <point x="117.6" y="515.8"/>
      <point x="148.0" y="521.8"/>
      <point x="180.8" y="521.8" type="curve" smooth="yes"/>
      <point x="271.4" y="521.8"/>
      <point x="319.0" y="434.8"/>
      <point x="319.0" y="273.8" type="curve" smooth="yes"/>
      <point x="319.0" y="76.6"/>
      <point x="276.2" y="7.4"/>
    </contour>
  </outline>
</glyph>
<glyph name="Dcroat" format="2">
  <advance width="465.6"/>
  <unicode hex="0110"/>
  <outline>
    <contour>
      <point x="4.0" y="350.0" type="line"/>
      <point x="214.8" y="350.0" type="line"/>
      <point x="214.8" y="370.0" type="line"/>
      <point x="4.0" y="370.0" type="line"/>
    </contour>
    <component base="D" xOffset="5.6"/>
  </outline>
</glyph>
<glyph name="dcroat" format="2">
  <advance width="377.0"/>
  <unicode hex="0111"/>
  <outline>
    <contour>
      <point x="179.2" y="618.0" type="line"/>
      <point x="378.6" y="618.0" type="line"/>
      <point x="378.6" y="636.0" type="line"/>
      <point x="179.2" y="636.0" type="line"/>
    </contour>
    <component base="d"/>
  </outline>
</glyph>
<glyph name="Hbar" format="2">
  <advance width="484.20000000000005"/>
  <unicode hex="0126"/>
  <outline>
    <contour>
      <point x="18.8" y="501.6" type="line"/>
      <point x="62.8" y="501.6" type="line"/>
      <point x="62.8" y="0.0" type="line"/>
      <point x="82.8" y="0.0" type="line"/>
      <point x="82.8" y="290.8" type="line"/>
      <point x="401.4" y="290.8" type="line"/>
      <point x="401.4" y="0.0" type="line"/>
      <point x="421.4" y="0.0" type="line"/>
      <point x="421.4" y="501.6" type="line"/>
      <point x="465.4" y="501.6" type="line"/>
      <point x="465.4" y="519.2" type="line"/>
      <point x="421.4" y="519.2" type="line"/>
      <point x="421.4" y="700.0" type="line"/>
      <point x="401.4" y="700.0" type="line"/>
      <point x="401.4" y="519.2" type="line"/>
      <point x="82.8" y="519.2" type="line"/>
      <point x="82.8" y="700.0" type="line"/>
      <point x="62.8" y="700.0" type="line"/>
      <point x="62.8" y="519.2" type="line"/>
      <point x="18.8" y="519.2" type="line"/>
    </contour>
    <contour>
      <point x="82.8" y="310.0" type="line"/>
      <point x="82.8" y="501.6" type="line"/>
      <point x="401.4" y="501.6" type="line"/>
      <point x="401.4" y="310.0" type="line"/>
    </contour>
  </outline>
</glyph>
<glyph name="hbar" format="2">
  <advance width="387.4"/>
  <unicode hex="0127"/>
  <outline>
    <contour>
      <point x="-0.8000000000000003" y="618.0" type="line"/>
      <point x="210.60000000000002" y="618.0" type="line"/>
      <point x="210.60000000000002" y="636.0" type="line"/>
      <point x="-0.8000000000000003" y="636.0" type="line"/>
    </contour>
    <component base="h"/>
  </outline>
</glyph>
<glyph name="Idotaccent" format="2">
  <advance width="145.6"/>
  <unicode hex="0130"/>
  <outline>
    <contour>
      <point x="72.8" y="813.0" type="curve" smooth="yes"/>
      <point x="87.2" y="813.0"/>
      <point x="87.4" y="814.0"/>
      <point x="87.4" y="830.0" type="curve" smooth="yes"/>
      <point x="87.4" y="846.0"/>
      <point x="87.2" y="847.0"/>
      <point x="72.8" y="847.0" type="curve" smooth="yes"/>
      <point x="58.400000000000006" y="847.0"/>
      <point x="58.2" y="846.0"/>
      <point x="58.2" y="830.0" type="curve" smooth="yes"/>
      <point x="58.2" y="814.0"/>
      <point x="59.400000000000006" y="813.0"/>
    </contour>
    <component base="I"/>
  </outline>
</glyph>
<glyph name="dotlessi" format="2">
  <advance width="140.0"/>
  <unicode hex="0131"/>
  <anchor x="79.8" y="0.0" name="ogonek"/>
  <anchor x="70.0" y="0.0" name="bottom"/>
  <anchor x="70.0" y="530.0" name="top"/>
  <outline>
    <contour>
      <point x="60.0" y="0.0" type="line"/>
      <point x="80.0" y="0.0" type="line"/>
      <point x="80.0" y="530.0" type="line"/>
      <point x="60.0" y="530.0" type="line"/>
    </contour>
  </outline>
</glyph>
<glyph name="kgreenlandic" format="2">
  <advance width="352.5"/>
  <unicode hex="0138"/>
  <anchor x="183.0" y="530.0" name="top"/>
  <anchor x="183.0" y="0.0" name="bottom"/>
  <outline>
    <contour>
      <point x="345.0" y="-7.0" type="curve" smooth="yes"/>
      <point x="350.5" y="-7.0"/>
      <point x="356.5" y="-5.0"/>
      <point x="361.0" y="-3.5" type="curve"/>
      <point x="358.5" y="16.0" type="line"/>
      <point x="354.0" y="15.0"/>
      <point x="349.0" y="14.0"/>
      <point x="345.5" y="14.0" type="curve" smooth="yes"/>
      <point x="324.0" y="14.0"/>
      <point x="306.5" y="27.0"/>
      <point x="223.5" y="141.5" type="curve" smooth="yes"/>
      <point x="80.0" y="339.5" type="line"/>
      <point x="80.0" y="530.0" type="line"/>
      <point x="60.0" y="530.0" type="line"/>
      <point x="60.0" y="0.0" type="line"/>
      <point x="80.0" y="0.0" type="line"/>
      <point x="80.0" y="304.5" type="line"/>
      <point x="212.0" y="125.0" type="line" smooth="yes"/>
      <point x="303.5" y="1.0"/>
      <point x="316.5" y="-7.0"/>
    </contour>
    <contour>
      <point x="140.0" y="241.5" type="line"/>
      <point x="203.0" y="311.0"/>
      <point x="289.5" y="400.5"/>
      <point x="324.5" y="529.0" type="curve"/>
      <point x="307.0" y="537.0" type="line"/>
      <point x="271.5" y="404.0"/>
      <point x="189.0" y="325.0"/>
      <point x="129.0" y="258.5" type="curve"/>
    </contour>
  </outline>
</glyph>
<glyph name="Ldot" format="2">
  <advance width="340.20000000000005"/>
  <unicode hex="013F"/>
  <outline>
    <contour>
      <point x="227.60000000000002" y="359.4" type="curve" smooth="yes"/>
      <point x="227.60000000000002" y="343.4"/>
      <point x="228.8" y="342.4"/>
      <point x="242.2" y="342.4" type="curve" smooth="yes"/>
      <point x="256.6" y="342.4"/>
      <point x="256.8" y="343.4"/>
      <point x="256.8" y="359.4" type="curve" smooth="yes"/>
      <point x="256.8" y="375.4"/>
      <point x="256.6" y="376.4"/>
      <point x="242.2" y="376.4" type="curve" smooth="yes"/>
      <point x="227.8" y="376.4"/>
      <point x="227.60000000000002" y="375.4"/>
    </contour>
    <component base="L"/>
  </outline>
</glyph>
<glyph name="ldot" format="2">
  <advance width="178.2"/>
  <unicode hex="0140"/>
  <outline>
    <contour>
      <point x="159.6" y="339.8" type="curve" smooth="yes"/>
      <point x="174.0" y="339.8"/>
      <point x="174.2" y="340.8"/>
      <point x="174.2" y="356.8" type="curve" smooth="yes"/>
      <point x="174.2" y="372.8"/>
      <point x="174.0" y="373.8"/>
      <point x="159.6" y="373.8" type="curve" smooth="yes"/>
      <point x="145.2" y="373.8"/>
      <point x="145.0" y="372.8"/>
      <point x="145.0" y="356.8" type="curve" smooth="yes"/>
      <point x="145.0" y="340.8"/>
      <point x="146.2" y="339.8"/>
    </contour>
    <component base="l"/>
  </outline>
</glyph>
<glyph name="Lslash" format="2">
  <advance width="359.4"/>
  <unicode hex="0141"/>
  <outline>
    <contour>
      <point x="24.4" y="206.6" type="line"/>
      <point x="82.0" y="255.2" type="line"/>
      <point x="82.0" y="0.0" type="line"/>
      <point x="350.4" y="0.0" type="line"/>
      <point x="350.4" y="19.2" type="line"/>
      <point x="102.0" y="19.2" type="line"/>
      <point x="102.0" y="271.8" type="line"/>
      <point x="270.4" y="410.6" type="line"/>
      <point x="270.4" y="436.2" type="line"/>
      <point x="102.0" y="298.2" type="line"/>
      <point x="102.0" y="700.0" type="line"/>
      <point x="82.0" y="700.0" type="line"/>
      <point x="82.0" y="281.6" type="line"/>
      <point x="24.4" y="233.0" type="line"/>
    </contour>
  </outline>
</glyph>
<glyph name="lslash" format="2">
  <advance width="178.2"/>
  <unicode hex="0142"/>
  <outline>
    <contour>
      <point x="132.4" y="-10.0" type="curve" smooth="yes"/>
      <point x="147.4" y="-10.0"/>
      <point x="164.4" y="-6.8"/>
      <point x="179.8" y="-1.4" type="curve"/>
      <point x="175.8" y="17.8" type="line"/>
      <point x="158.0" y="12.4"/>
      <point x="144.2" y="10.0"/>
      <point x="132.4" y="10.0" type="curve" smooth="yes"/>
      <point x="102.0" y="10.0"/>
      <point x="80.0" y="25.2"/>
      <point x="80.0" y="124.2" type="curve" smooth="yes"/>
      <point x="80.0" y="271.4" type="line"/>
      <point x="167.0" y="357.6" type="line"/>
      <point x="167.0" y="384.0" type="line"/>
      <point x="80.0" y="297.8" type="line"/>
      <point x="80.0" y="740.0" type="line"/>
      <point x="60.0" y="740.0" type="line"/>
      <point x="60.0" y="277.0" type="line"/>
      <point x="7.6000000000000005" y="225.6" type="line"/>
      <point x="7.6000000000000005" y="200.0" type="line"/>
      <point x="60.0" y="250.6" type="line"/>
      <point x="60.0" y="124.2" type="line" smooth="yes"/>
      <point x="60.0" y="9.2"/>
      <point x="88.0" y="-10.0"/>
    </contour>
  </outline>
</glyph>
<glyph name="Eng" format="2">
  <advance width="480.5"/>
  <unicode hex="014A"/>
  <outline>
    <contour>
      <point x="63.0" y="0.0" type="line"/>
      <point x="83.0" y="0.0" type="line"/>
      <point x="83.0" y="647.5" type="line"/>
      <point x="397.5" y="4.0" type="line"/>
      <point x="397.5" y="-13.0" type="line" smooth="yes"/>
      <point x="396.5" y="-96.5"/>
      <point x="350.5" y="-127.0"/>
      <point x="273.0" y="-127.0" type="curve" smooth="yes"/>
      <point x="256.5" y="-127.0"/>
      <point x="236.5" y="-124.5"/>
      <point x="222.5" y="-122.0" type="curve"/>
      <point x="221.5" y="-141.0" type="line"/>
      <point x="235.5" y="-144.0"/>
      <point x="256.0" y="-146.5"/>
      <point x="273.0" y="-146.5" type="curve" smooth="yes"/>
      <point x="378.5" y="-146.5"/>
      <point x="417.5" y="-93.0"/>
      <point x="417.5" y="-10.0" type="curve" smooth="yes"/>
      <point x="417.5" y="700.0" type="line"/>
      <point x="397.5" y="700.0" type="line"/>
      <point x="397.5" y="54.5" type="line"/>
      <point x="81.0" y="702.0" type="line"/>
      <point x="63.0" y="702.0" type="line"/>
    </contour>
  </outline>
</glyph>
<glyph name="eng" format="2">
  <advance width="387.4"/>
  <unicode hex="014B"/>
  <outline>
    <contour>
      <point x="327.4" y="12.0" type="curve"/>
      <point x="327.4" y="423.4" type="line" smooth="yes"/>
      <point x="327.4" y="505.4"/>
      <point x="283.6" y="540.0"/>
      <point x="219.2" y="540.0" type="curve" smooth="yes"/>
      <point x="167.6" y="540.0"/>
      <point x="122.6" y="522.8"/>
      <point x="80.0" y="500.0" type="curve"/>
      <point x="80.0" y="530.0" type="line"/>
      <point x="60.0" y="530.0" type="line"/>
      <point x="60.0" y="0.0" type="line"/>
      <point x="80.0" y="0.0" type="line"/>
      <point x="80.0" y="479.0" type="line"/>
      <point x="122.4" y="504.0"/>
      <point x="167.8" y="521.6"/>
      <point x="213.60000000000002" y="521.6" type="curve" smooth="yes"/>
      <point x="277.8" y="521.6"/>
      <point x="307.4" y="485.2"/>
      <point x="307.4" y="423.4" type="curve" smooth="yes"/>
      <point x="307.4" y="11.2" type="line" smooth="yes"/>
      <point x="307.4" y="-83.8"/>
      <point x="286.6" y="-146.6"/>
      <point x="249.0" y="-178.6" type="curve" smooth="yes"/>
      <point x="243.0" y="-183.8"/>
      <point x="237.0" y="-188.0"/>
      <point x="230.0" y="-191.2" type="curve"/>
      <point x="239.2" y="-208.4" type="line"/>
      <point x="248.0" y="-203.6"/>
      <point x="256.0" y="-197.6"/>
      <point x="263.6" y="-191.6" type="curve" smooth="yes"/>
      <point x="305.4" y="-155.0"/>
      <point x="327.4" y="-90.0"/>
    </contour>
  </outline>
</glyph>
<glyph name="OE" format="2">
  <advance width="696.4000000000001"/>
  <unicode hex="0152"/>
  <outline>
    <contour>
      <point x="677.0" y="0.0" type="line"/>
      <point x="677.0" y="20.0" type="line"/>
      <point x="397.20000000000005" y="20.0" type="line"/>
      <point x="397.20000000000005" y="357.0" type="line"/>
      <point x="644.8" y="357.0" type="line"/>
      <point x="644.8" y="377.0" type="line"/>
      <point x="397.20000000000005" y="377.0" type="line"/>
      <point x="397.20000000000005" y="680.0" type="line"/>
      <point x="663.2" y="680.0" type="line"/>
      <point x="663.2" y="700.0" type="line"/>
      <point x="397.20000000000005" y="700.0" type="line"/>
      <point x="352.4" y="703.2"/>
      <point x="302.6" y="705.2"/>
      <point x="262.2" y="705.2" type="curve" smooth="yes"/>
      <point x="138.8" y="705.2"/>
      <point x="40.8" y="654.4"/>
      <point x="40.8" y="351.2" type="curve" smooth="yes"/>
      <point x="40.8" y="57.8"/>
      <point x="140.60000000000002" y="-6.8"/>
      <point x="265.2" y="-6.8" type="curve" smooth="yes"/>
      <point x="306.2" y="-6.8"/>
      <point x="347.8" y="-4.0"/>
      <point x="397.20000000000005" y="0.0" type="curve"/>
    </contour>
    <contour>
      <point x="377.20000000000005" y="16.8" type="line"/>
      <point x="351.20000000000005" y="14.8"/>
      <point x="309.0" y="12.4"/>
      <point x="275.0" y="12.4" type="curve" smooth="yes"/>
      <point x="154.6" y="12.4"/>
      <point x="61.8" y="59.8"/>
      <point x="61.8" y="351.0" type="curve" smooth="yes"/>
      <point x="61.8" y="641.0"/>
      <point x="157.0" y="686.8"/>
      <point x="273.8" y="686.8" type="curve" smooth="yes"/>
      <point x="293.2" y="686.8"/>
      <point x="358.8" y="684.0"/>
      <point x="377.20000000000005" y="682.4" type="curve"/>
    </contour>
  </outline>
</glyph>
<glyph name="oe" format="2">
  <advance width="658.0"/>
  <unicode hex="0153"/>
  <outline>
    <contour>
      <point x="38.0" y="265.5" type="curve" smooth="yes"/>
      <point x="38.0" y="52.0"/>
      <point x="84.0" y="-10.0"/>
      <point x="192.5" y="-10.0" type="curve" smooth="yes"/>
      <point x="282.0" y="-10.0"/>
      <point x="319.0" y="32.5"/>
      <point x="336.5" y="127.0" type="curve"/>
      <point x="354.5" y="34.5"/>
      <point x="402.0" y="-10.0"/>
      <point x="482.0" y="-10.0" type="curve" smooth="yes"/>
      <point x="530.5" y="-10.0"/>
      <point x="582.0" y="-1.0"/>
      <point x="616.5" y="11.0" type="curve"/>
      <point x="612.0" y="29.5" type="line"/>
      <point x="577.0" y="18.0"/>
      <point x="529.0" y="9.0"/>
      <point x="481.5" y="9.0" type="curve" smooth="yes"/>
      <point x="402.5" y="9.0"/>
      <point x="346.5" y="63.0"/>
      <point x="346.5" y="238.0" type="curve" smooth="yes"/>
      <point x="346.5" y="253.0"/>
      <point x="346.5" y="271.0"/>
      <point x="347.0" y="287.0" type="curve"/>
      <point x="484.0" y="287.0"/>
      <point x="585.0" y="298.0"/>
      <point x="626.0" y="303.0" type="curve"/>
      <point x="626.0" y="307.0"/>
      <point x="627.0" y="311.0"/>
      <point x="627.0" y="325.0" type="curve" smooth="yes"/>
      <point x="627.0" y="478.0"/>
      <point x="575.0" y="540.0"/>
      <point x="487.0" y="540.0" type="curve" smooth="yes"/>
      <point x="409.0" y="540.0"/>
      <point x="361.5" y="495.0"/>
      <point x="339.5" y="397.5" type="curve"/>
      <point x="322.5" y="494.5"/>
      <point x="286.5" y="540.0"/>
      <point x="192.5" y="540.0" type="curve" smooth="yes"/>
      <point x="80.5" y="540.0"/>
      <point x="38.0" y="476.0"/>
    </contour>
    <contour>
      <point x="58.0" y="265.5" type="curve" smooth="yes"/>
      <point x="58.0" y="460.0"/>
      <point x="93.5" y="521.5"/>
      <point x="192.5" y="521.5" type="curve" smooth="yes"/>
      <point x="291.0" y="521.5"/>
      <point x="326.5" y="460.0"/>
      <point x="326.5" y="265.5" type="curve" smooth="yes"/>
      <point x="326.5" y="68.5"/>
      <point x="288.0" y="8.5"/>
      <point x="192.5" y="8.5" type="curve" smooth="yes"/>
      <point x="97.0" y="8.5"/>
      <point x="58.0" y="68.5"/>
    </contour>
    <contour>
      <point x="347.5" y="305.0" type="curve"/>
      <point x="359.5" y="481.0"/>
      <point x="420.0" y="521.5"/>
      <point x="487.0" y="521.5" type="curve" smooth="yes"/>
      <point x="563.5" y="521.5"/>
      <point x="607.0" y="466.5"/>
      <point x="607.0" y="319.5" type="curve"/>
      <point x="579.5" y="314.0"/>
      <point x="465.5" y="305.0"/>
    </contour>
  </outline>
</glyph>
<glyph name="uni0162" format="2">
  <advance width="354.4"/>
  <unicode hex="0162"/>
  <outline>
    <contour>
      <point x="117.80000000000001" y="-188.6" type="curve"/>
      <point x="110.6" y="-204.2" type="line"/>
      <point x="134.0" y="-216.0"/>
      <point x="156.4" y="-220.0"/>
      <point x="173.4" y="-220.0" type="curve" smooth="yes"/>
      <point x="218.2" y="-220.0"/>
      <point x="237.60000000000002" y="-183.4"/>
      <point x="237.60000000000002" y="-140.0" type="curve" smooth="yes"/>
      <point x="237.60000000000002" y="-95.8"/>
      <point x="213.2" y="-41.8"/>
      <point x="186.8" y="1.0" type="curve"/>
      <point x="167.2" y="0.0" type="line"/>
      <point x="195.2" y="-52.4"/>
      <point x="219.2" y="-99.6"/>
      <point x="219.2" y="-140.0" type="curve" smooth="yes"/>
      <point x="219.2" y="-179.4"/>
      <point x="201.8" y="-202.4"/>
      <point x="170.2" y="-202.4" type="curve" smooth="yes"/>
      <point x="154.4" y="-202.4"/>
      <point x="136.6" y="-197.6"/>
    </contour>
    <component base="T"/>
  </outline>
</glyph>
<glyph name="Tbar" format="2">
  <advance width="354.4"/>
  <unicode hex="0166"/>
  <outline>
    <contour>
      <point x="46.2" y="370.0" type="line"/>
      <point x="167.2" y="370.0" type="line"/>
      <point x="167.2" y="0.0" type="line"/>
      <point x="187.2" y="0.0" type="line"/>
      <point x="187.2" y="370.0" type="line"/>
      <point x="308.2" y="370.0" type="line"/>
      <point x="308.2" y="390.0" type="line"/>
      <point x="187.2" y="390.0" type="line"/>
      <point x="187.2" y="681.2" type="line"/>
      <point x="349.2" y="681.2" type="line"/>
      <point x="349.2" y="700.0" type="line"/>
      <point x="5.2" y="700.0" type="line"/>
      <point x="5.2" y="681.2" type="line"/>
      <point x="167.2" y="681.2" type="line"/>
      <point x="167.2" y="390.0" type="line"/>
      <point x="46.2" y="390.0" type="line"/>
    </contour>
  </outline>
</glyph>
<glyph name="tbar" format="2">
  <advance width="279.0"/>
  <unicode hex="0167"/>
  <outline>
    <contour>
      <point x="107.0" y="314.0" type="line"/>
      <point x="246.8" y="314.0" type="line"/>
      <point x="246.8" y="332.0" type="line"/>
      <point x="107.0" y="332.0" type="line"/>
      <point x="107.0" y="510.8" type="line"/>
      <point x="266.8" y="510.8" type="line"/>
      <point x="266.8" y="530.0" type="line"/>
      <point x="107.0" y="530.0" type="line"/>
      <point x="107.0" y="665.0" type="line"/>
      <point x="91.8" y="665.0" type="line"/>
      <point x="87.0" y="530.0" type="line"/>
      <point x="8.8" y="524.2" type="line"/>
      <point x="8.8" y="510.8" type="line"/>
      <point x="87.0" y="510.8" type="line"/>
      <point x="87.0" y="332.0" type="line"/>
      <point x="32.8" y="332.0" type="line"/>
      <point x="32.8" y="314.0" type="line"/>
      <point x="87.0" y="314.0" type="line"/>
      <point x="87.0" y="121.4" type="line" smooth="yes"/>
      <point x="87.0" y="42.6"/>
      <point x="111.6" y="-10.0"/>
      <point x="195.2" y="-10.0" type="curve" smooth="yes"/>
      <point x="217.6" y="-10.0"/>
      <point x="245.8" y="-5.8"/>
      <point x="276.6" y="3.8000000000000007" type="curve"/>
      <point x="272.2" y="22.0" type="line"/>
      <point x="247.2" y="13.4"/>
      <point x="222.2" y="9.2"/>
      <point x="196.0" y="9.2" type="curve" smooth="yes"/>
      <point x="132.2" y="9.2"/>
      <point x="107.0" y="43.2"/>
      <point x="107.0" y="121.4" type="curve" smooth="yes"/>
    </contour>
  </outline>
</glyph>
<glyph name="uogonek" format="2">
  <advance width="389.2"/>
  <unicode hex="0173"/>
  <outline>
    <contour>
      <point x="364.0" y="-221.0" type="curve" smooth="yes"/>
      <point x="375.8" y="-221.0"/>
      <point x="385.0" y="-218.2"/>
      <point x="393.8" y="-213.4" type="curve"/>
      <point x="389.0" y="-198.6" type="line"/>
      <point x="381.8" y="-202.4"/>
      <point x="375.2" y="-203.6"/>
      <point x="367.0" y="-203.6" type="curve" smooth="yes"/>
      <point x="347.4" y="-203.6"/>
      <point x="329.2" y="-193.2"/>
      <point x="329.2" y="-153.8" type="curve" smooth="yes"/>
      <point x="329.2" y="-101.2"/>
      <point x="352.6" y="-52.0"/>
      <point x="387.4" y="-1.0" type="curve"/>
      <point x="380.6" y="15.8" type="line"/>
      <point x="370.4" y="10.8"/>
      <point x="360.6" y="8.6"/>
      <point x="351.0" y="8.6" type="curve" smooth="yes"/>
      <point x="331.8" y="8.6"/>
      <point x="318.8" y="20.8"/>
      <point x="318.8" y="55.0" type="curve" smooth="yes"/>
      <point x="318.8" y="530.0" type="line"/>
      <point x="298.8" y="530.0" type="line"/>
      <point x="298.8" y="50.8" type="line"/>
      <point x="258.8" y="26.2"/>
      <point x="214.2" y="8.4"/>
      <point x="170.6" y="8.4" type="curve" smooth="yes"/>
      <point x="109.6" y="8.4"/>
      <point x="80.0" y="43.8"/>
      <point x="80.0" y="102.6" type="curve" smooth="yes"/>
      <point x="80.0" y="530.0" type="line"/>
      <point x="60.0" y="530.0" type="line"/>
      <point x="60.0" y="102.6" type="line" smooth="yes"/>
      <point x="60.0" y="24.6"/>
      <point x="102.8" y="-10.0"/>
      <point x="165.0" y="-10.0" type="curve" smooth="yes"/>
      <point x="214.60000000000002" y="-10.0"/>
      <point x="258.2" y="7.2"/>
      <point x="301.6" y="31.8" type="curve"/>
      <point x="305.8" y="4.0"/>
      <point x="327.2" y="-10.0"/>
      <point x="350.0" y="-10.0" type="curve" smooth="yes"/>
      <point x="356.4" y="-10.0"/>
      <point x="363.4" y="-8.6"/>
      <point x="371.4" y="-6.6" type="curve"/>
      <point x="374.0" y="7.0" type="line"/>
      <point x="333.2" y="-53.2"/>
      <point x="310.4" y="-107.8"/>
      <point x="310.4" y="-155.0" type="curve" smooth="yes"/>
      <point x="310.4" y="-204.2"/>
      <point x="335.4" y="-221.0"/>
    </contour>
  </outline>
</glyph>
<glyph name="longs" format="2">
  <advance width="203.8"/>
  <unicode hex="017F"/>
  <outline>
    <contour>
      <point x="113.8" y="488.6" type="line"/>
      <point x="113.8" y="690.0"/>
      <point x="159.0" y="731.0"/>
      <point x="231.4" y="731.0" type="curve" smooth="yes"/>
      <point x="256.8" y="731.0"/>
      <point x="280.8" y="727.2"/>
      <point x="309.8" y="718.8" type="curve"/>
      <point x="314.0" y="737.2" type="line"/>
      <point x="281.6" y="746.2"/>
      <point x="256.4" y="750.2"/>
      <point x="230.6" y="750.2" type="curve" smooth="yes"/>
      <point x="122.80000000000001" y="750.2"/>
      <point x="93.8" y="649.2"/>
      <point x="93.8" y="488.6" type="curve" smooth="yes"/>
      <point x="93.8" y="484.0" type="line"/>
      <point x="17.8" y="478.2" type="line"/>
      <point x="17.8" y="464.8" type="line"/>
      <point x="93.8" y="464.8" type="line"/>
      <point x="93.8" y="0.0" type="line"/>
      <point x="113.8" y="0.0" type="line"/>
    </contour>
  </outline>
</glyph>
<glyph name="uni018F" format="2">
  <advance width="435.4"/>
  <unicode hex="018F"/>
  <outline>
    <contour>
      <point x="49.8" y="667.4" type="line"/>
      <point x="90.2" y="679.6"/>
      <point x="150.6" y="692.0"/>
      <point x="203.4" y="692.0" type="curve" smooth="yes"/>
      <point x="313.2" y="692.0"/>
      <point x="374.6" y="594.0"/>
      <point x="374.6" y="354.8" type="curve" smooth="yes"/>
      <point x="374.6" y="343.0"/>
      <point x="374.20000000000005" y="331.4"/>
      <point x="373.8" y="320.0" type="curve"/>
      <point x="241.0" y="319.8"/>
      <point x="129.2" y="307.4"/>
      <point x="34.0" y="297.4" type="curve"/>
      <point x="34.0" y="290.6"/>
      <point x="33.2" y="284.6"/>
      <point x="33.2" y="271.4" type="curve" smooth="yes"/>
      <point x="33.2" y="83.8"/>
      <point x="90.2" y="-9.8"/>
      <point x="201.0" y="-9.8" type="curve" smooth="yes"/>
      <point x="329.8" y="-9.8"/>
      <point x="394.6" y="105.4"/>
      <point x="394.6" y="370.8" type="curve" smooth="yes"/>
      <point x="394.6" y="604.4"/>
      <point x="326.2" y="710.0"/>
      <point x="209.0" y="710.0" type="curve" smooth="yes"/>
      <point x="143.2" y="710.0"/>
      <point x="82.0" y="697.8"/>
      <point x="43.2" y="683.8" type="curve"/>
    </contour>
    <contour>
      <point x="373.20000000000005" y="300.2" type="curve"/>
      <point x="361.0" y="95.2"/>
      <point x="304.6" y="9.8"/>
      <point x="202.60000000000002" y="9.8" type="curve" smooth="yes"/>
      <point x="100.0" y="9.8"/>
      <point x="53.0" y="97.6"/>
      <point x="53.0" y="280.0" type="curve"/>
      <point x="136.2" y="293.0"/>
      <point x="259.4" y="299.4"/>
    </contour>
  </outline>
</glyph>
<glyph name="florin" format="2">
  <advance width="406.8"/>
  <unicode hex="0192"/>
  <outline>
    <contour>
      <point x="72.2" y="384.4" type="line"/>
      <point x="69.2" y="366.0" type="line"/>
      <point x="146.2" y="366.0" type="line"/>
      <point x="56.0" y="-210.0" type="line"/>
      <point x="73.80000000000001" y="-210.0" type="line"/>
      <point x="164.0" y="366.0" type="line"/>
      <point x="320.6" y="366.0" type="line"/>
      <point x="323.6" y="384.4" type="line"/>
      <point x="167.0" y="384.4" type="line"/>
      <point x="175.6" y="435.4" type="line" smooth="yes"/>
      <point x="206.0" y="621.2"/>
      <point x="255.8" y="692.0"/>
      <point x="332.0" y="692.0" type="curve" smooth="yes"/>
      <point x="351.8" y="692.0"/>
      <point x="374.4" y="688.4"/>
      <point x="398.20000000000005" y="681.8" type="curve"/>
      <point x="405.8" y="699.0" type="line"/>
      <point x="383.6" y="706.4"/>
      <point x="359.0" y="710.0"/>
      <point x="336.6" y="710.0" type="curve" smooth="yes"/>
      <point x="242.4" y="710.0"/>
      <point x="190.2" y="639.0"/>
      <point x="157.8" y="435.8" type="curve" smooth="yes"/>
      <point x="149.2" y="384.4" type="line"/>
    </contour>
  </outline>
</glyph>
<glyph name="uni0237" format="2">
  <advance width="139.6"/>
  <unicode hex="0237"/>
  <anchor x="69.8" y="530.0" name="top"/>
  <outline>
    <contour>
      <point x="79.8" y="14.0" type="curve" smooth="yes"/>
      <point x="79.8" y="530.0" type="line"/>
      <point x="59.8" y="530.0" type="line"/>
      <point x="59.8" y="14.0" type="line"/>
      <point x="59.8" y="-83.4"/>
      <point x="39.2" y="-146.4"/>
      <point x="1.4000000000000004" y="-178.4" type="curve" smooth="yes"/>
      <point x="-4.6" y="-183.6"/>
      <point x="-10.6" y="-187.8"/>
      <point x="-17.6" y="-191.0" type="curve"/>
      <point x="-8.4" y="-208.4" type="line"/>
      <point x="0.40000000000000036" y="-203.6"/>
      <point x="8.4" y="-197.6"/>
      <point x="16.0" y="-191.6" type="curve" smooth="yes"/>
      <point x="57.8" y="-155.0"/>
      <point x="79.8" y="-90.0"/>
    </contour>
  </outline>
</glyph>
<glyph name="uni0259" format="2">
  <advance width="363.2"/>
  <unicode hex="0259"/>
  <outline>
    <contour>
      <point x="25.8" y="226.8" type="curve"/>
      <point x="24.8" y="219.2"/>
      <point x="24.8" y="214.0"/>
      <point x="24.8" y="205.0" type="curve" smooth="yes"/>
      <point x="24.8" y="51.8"/>
      <point x="76.8" y="-10.0"/>
      <point x="165.0" y="-10.0" type="curve" smooth="yes"/>
      <point x="258.4" y="-10.0"/>
      <point x="325.2" y="52.2"/>
      <point x="325.2" y="280.2" type="curve" smooth="yes"/>
      <point x="325.2" y="470.4"/>
      <point x="265.4" y="540.0"/>
      <point x="171.2" y="540.0" type="curve" smooth="yes"/>
      <point x="121.2" y="540.0"/>
      <point x="71.6" y="532.4"/>
      <point x="35.2" y="518.8" type="curve"/>
      <point x="40.0" y="500.4" type="line"/>
      <point x="75.0" y="512.2"/>
      <point x="124.0" y="520.8"/>
      <point x="170.4" y="520.8" type="curve" smooth="yes"/>
      <point x="252.4" y="520.8"/>
      <point x="305.2" y="462.0"/>
      <point x="305.2" y="268.2" type="curve" smooth="yes"/>
      <point x="305.2" y="260.0"/>
      <point x="305.0" y="251.2"/>
      <point x="304.8" y="243.2" type="curve"/>
      <point x="167.6" y="243.2"/>
      <point x="66.6" y="232.2"/>
    </contour>
    <contour>
      <point x="304.2" y="224.8" type="curve"/>
      <point x="292.2" y="49.0"/>
      <point x="231.60000000000002" y="8.4"/>
      <point x="165.0" y="8.4" type="curve" smooth="yes"/>
      <point x="88.2" y="8.4"/>
      <point x="45.0" y="63.6"/>
      <point x="45.0" y="210.4" type="curve"/>
      <point x="72.2" y="215.8"/>
      <point x="186.4" y="224.8"/>
    </contour>
  </outline>
</glyph>
<glyph name="gravecomb" format="2">
  <unicode hex="0300"/>
  <anchor x="-243.0" y="714.0" name="top"/>
  <anchor x="-192.2" y="530.0" name="_top"/>
  <outline>
    <contour>
      <point x="-198.0" y="596.0" type="line"/>
      <point x="-177.0" y="596.0" type="line"/>
      <point x="-284.6" y="790.0" type="line"/>
      <point x="-309.0" y="790.0" type="line"/>
    </contour>
  </outline>
</glyph>
<glyph name="acutecomb" format="2">
  <unicode hex="0301"/>
  <anchor x="-140.0" y="714.0" name="top"/>
  <anchor x="-192.2" y="530.0" name="_top"/>
  <outline>
    <contour>
      <point x="-206.0" y="596.0" type="line"/>
      <point x="-185.2" y="596.0" type="line"/>
      <point x="-74.0" y="790.0" type="line"/>
      <point x="-97.6" y="790.0" type="line"/>
    </contour>
  </outline>
</glyph>
<glyph name="uni0302" format="2">
  <unicode hex="0302"/>
  <anchor x="-192.0" y="740.0" name="top"/>
  <anchor x="-192.0" y="530.0" name="_top"/>
  <anchor x="-89.5" y="669.5" name="top_viet"/>
  <outline>
    <contour>
      <point x="-299.0" y="596.0" type="line"/>
      <point x="-279.5" y="596.0" type="line"/>
      <point x="-192.0" y="764.5" type="line"/>
      <point x="-106.0" y="596.0" type="line"/>
      <point x="-85.0" y="596.0" type="line"/>
      <point x="-181.0" y="790.0" type="line"/>
      <point x="-202.0" y="790.0" type="line"/>
    </contour>
  </outline>
</glyph>
<glyph name="tildecomb" format="2">
  <unicode hex="0303"/>
  <anchor x="-192.2" y="630.2" name="top"/>
  <anchor x="-192.2" y="530.0" name="_top"/>
  <outline>
    <contour>
      <point x="-300.4" y="605.6" type="curve"/>
      <point x="-281.2" y="605.6" type="line"/>
      <point x="-284.6" y="615.6"/>
      <point x="-287.0" y="631.4"/>
      <point x="-287.0" y="646.6" type="curve" smooth="yes"/>
      <point x="-287.0" y="677.0"/>
      <point x="-277.2" y="701.0"/>
      <point x="-257.4" y="701.0" type="curve" smooth="yes"/>
      <point x="-214.60000000000002" y="701.0"/>
      <point x="-188.2" y="605.6"/>
      <point x="-127.4" y="605.6" type="curve" smooth="yes"/>
      <point x="-92.6" y="605.6"/>
      <point x="-79.0" y="639.0"/>
      <point x="-79.0" y="682.0" type="curve" smooth="yes"/>
      <point x="-79.0" y="694.8"/>
      <point x="-80.6" y="709.0"/>
      <point x="-83.2" y="723.0" type="curve"/>
      <point x="-100.80000000000001" y="723.0" type="line"/>
      <point x="-98.2" y="710.6"/>
      <point x="-96.6" y="696.4"/>
      <point x="-96.6" y="683.6" type="curve" smooth="yes"/>
      <point x="-96.6" y="657.4"/>
      <point x="-102.2" y="623.8"/>
      <point x="-127.4" y="623.8" type="curve" smooth="yes"/>
      <point x="-178.2" y="623.8"/>
      <point x="-200.4" y="717.4"/>
      <point x="-257.4" y="717.4" type="curve" smooth="yes"/>
      <point x="-289.6" y="717.4"/>
      <point x="-304.6" y="687.8"/>
      <point x="-304.6" y="646.6" type="curve" smooth="yes"/>
      <point x="-304.6" y="633.8"/>
      <point x="-303.0" y="618.8"/>
    </contour>
  </outline>
</glyph>
<glyph name="uni0304" format="2">
  <unicode hex="0304"/>
  <anchor x="-192.2" y="705.0" name="top"/>
  <anchor x="-192.2" y="530.0" name="_top"/>
  <outline>
    <contour>
      <point x="-289.6" y="685.0" type="line"/>
      <point x="-94.80000000000001" y="685.0" type="line"/>
      <point x="-94.80000000000001" y="705.0" type="line"/>
      <point x="-289.6" y="705.0" type="line"/>
    </contour>
  </outline>
</glyph>
<glyph name="uni0306" format="2">
  <unicode hex="0306"/>
  <anchor x="-192.2" y="702.2" name="top"/>
  <anchor x="-192.2" y="530.0" name="_top"/>
  <outline>
    <contour>
      <point x="-192.2" y="606.6" type="curve" smooth="yes"/>
      <point x="-126.0" y="606.6"/>
      <point x="-87.4" y="636.4"/>
      <point x="-82.80000000000001" y="716.6" type="curve" smooth="yes"/>
      <point x="-82.2" y="722.2"/>
      <point x="-81.6" y="727.4"/>
      <point x="-81.4" y="733.4" type="curve"/>
      <point x="-99.80000000000001" y="735.4" type="line"/>
      <point x="-100.0" y="730.0"/>
      <point x="-100.4" y="724.0"/>
      <point x="-100.80000000000001" y="719.6" type="curve" smooth="yes"/>
      <point x="-104.2" y="648.8"/>
      <point x="-138.2" y="625.0"/>
      <point x="-192.2" y="625.0" type="curve" smooth="yes"/>
      <point x="-246.2" y="625.0"/>
      <point x="-280.0" y="648.8"/>
      <point x="-283.8" y="719.8" type="curve" smooth="yes"/>
      <point x="-284.2" y="724.0"/>
      <point x="-284.4" y="730.0"/>
      <point x="-284.6" y="735.4" type="curve"/>
      <point x="-303.0" y="733.4" type="line"/>
      <point x="-302.8" y="727.4"/>
      <point x="-302.4" y="722.4"/>
      <point x="-301.8" y="716.8" type="curve" smooth="yes"/>
      <point x="-297.2" y="636.4"/>
      <point x="-258.4" y="606.6"/>
    </contour>
  </outline>
</glyph>
<glyph name="uni0307" format="2">
  <unicode hex="0307"/>
  <anchor x="-192.2" y="638.0" name="top"/>
  <anchor x="-192.2" y="530.0" name="_top"/>
  <outline>
    <contour>
      <point x="-192.2" y="676.0" type="curve" smooth="yes"/>
      <point x="-179.8" y="676.0"/>
      <point x="-177.8" y="684.0"/>
      <point x="-177.8" y="694.0" type="curve" smooth="yes"/>
      <point x="-177.8" y="704.0"/>
      <point x="-179.8" y="712.0"/>
      <point x="-192.2" y="712.0" type="curve" smooth="yes"/>
      <point x="-202.8" y="712.0"/>
      <point x="-206.60000000000002" y="704.0"/>
      <point x="-206.60000000000002" y="694.0" type="curve" smooth="yes"/>
      <point x="-206.60000000000002" y="684.0"/>
      <point x="-202.8" y="676.0"/>
    </contour>
  </outline>
</glyph>
<glyph name="uni0308" format="2">
  <unicode hex="0308"/>
  <anchor x="-192.2" y="638.0" name="top"/>
  <anchor x="-192.2" y="530.0" name="_top"/>
  <outline>
    <contour>
      <point x="-119.2" y="676.0" type="curve" smooth="yes"/>
      <point x="-107.80000000000001" y="676.0"/>
      <point x="-106.0" y="684.0"/>
      <point x="-106.0" y="694.0" type="curve" smooth="yes"/>
      <point x="-106.0" y="704.0"/>
      <point x="-107.80000000000001" y="712.0"/>
      <point x="-119.2" y="712.0" type="curve" smooth="yes"/>
      <point x="-130.6" y="712.0"/>
      <point x="-132.8" y="704.0"/>
      <point x="-132.8" y="694.0" type="curve" smooth="yes"/>
      <point x="-132.8" y="684.0"/>
      <point x="-130.6" y="676.0"/>
    </contour>
    <contour>
      <point x="-265.0" y="676.0" type="curve" smooth="yes"/>
      <point x="-253.60000000000002" y="676.0"/>
      <point x="-251.8" y="684.0"/>
      <point x="-251.8" y="694.0" type="curve" smooth="yes"/>
      <point x="-251.8" y="704.0"/>
      <point x="-253.60000000000002" y="712.0"/>
      <point x="-265.0" y="712.0" type="curve" smooth="yes"/>
      <point x="-276.4" y="712.0"/>
      <point x="-278.6" y="704.0"/>
      <point x="-278.6" y="694.0" type="curve" smooth="yes"/>
      <point x="-278.6" y="684.0"/>
      <point x="-276.4" y="676.0"/>
    </contour>
  </outline>
</glyph>
<glyph name="hookabovecomb" format="2">
  <unicode hex="0309"/>
  <anchor x="-184.0" y="794.0" name="top"/>
  <anchor x="-192.2" y="530.0" name="_top"/>
  <outline>
    <contour>
      <point x="-187.0" y="605.0" type="line"/>
      <point x="-148.0" y="644.8"/>
      <point x="-127.80000000000001" y="687.8"/>
      <point x="-127.80000000000001" y="731.8" type="curve" smooth="yes"/>
      <point x="-127.80000000000001" y="774.4"/>
      <point x="-152.6" y="794.0"/>
      <point x="-186.4" y="794.0" type="curve" smooth="yes"/>
      <point x="-211.60000000000002" y="794.0"/>
      <point x="-233.0" y="785.4"/>
      <point x="-250.60000000000002" y="761.8" type="curve"/>
      <point x="-238.60000000000002" y="750.2" type="line"/>
      <point x="-224.8" y="769.6"/>
      <point x="-206.60000000000002" y="777.0"/>
      <point x="-187.0" y="777.0" type="curve" smooth="yes"/>
      <point x="-162.6" y="777.0"/>
      <point x="-147.0" y="759.4"/>
      <point x="-147.0" y="731.0" type="curve" smooth="yes"/>
      <point x="-147.0" y="692.0"/>
      <point x="-160.0" y="659.4"/>
      <point x="-198.0" y="617.0" type="curve"/>
    </contour>
  </outline>
</glyph>
<glyph name="uni030A" format="2">
  <unicode hex="030A"/>
  <anchor x="-192.2" y="740.2" name="top"/>
  <anchor x="-192.2" y="530.0" name="_top"/>
  <outline>
    <contour>
      <point x="-192.2" y="617.0" type="curve" smooth="yes"/>
      <point x="-149.2" y="617.0"/>
      <point x="-126.2" y="644.6"/>
      <point x="-126.2" y="695.0" type="curve" smooth="yes"/>
      <point x="-126.2" y="745.4"/>
      <point x="-149.2" y="773.0"/>
      <point x="-192.2" y="773.0" type="curve" smooth="yes"/>
      <point x="-235.2" y="773.0"/>
      <point x="-258.2" y="745.4"/>
      <point x="-258.2" y="695.0" type="curve" smooth="yes"/>
      <point x="-258.2" y="644.6"/>
      <point x="-235.2" y="617.0"/>
    </contour>
    <contour>
      <point x="-192.2" y="634.2" type="curve" smooth="yes"/>
      <point x="-223.0" y="634.2"/>
      <point x="-239.2" y="655.2"/>
      <point x="-239.2" y="695.0" type="curve" smooth="yes"/>
      <point x="-239.2" y="735.6"/>
      <point x="-223.0" y="755.8"/>
      <point x="-192.2" y="755.8" type="curve" smooth="yes"/>
      <point x="-161.4" y="755.8"/>
      <point x="-145.2" y="735.6"/>
      <point x="-145.2" y="695.0" type="curve" smooth="yes"/>
      <point x="-145.2" y="655.2"/>
      <point x="-161.4" y="634.2"/>
    </contour>
  </outline>
</glyph>
<glyph name="uni030B" format="2">
  <unicode hex="030B"/>
  <anchor x="-135.8" y="790.0" name="top"/>
  <anchor x="-192.2" y="530.0" name="_top"/>
  <outline>
    <contour>
      <point x="-149.8" y="596.0" type="line"/>
      <point x="-129.0" y="596.0" type="line"/>
      <point x="-18.6" y="790.0" type="line"/>
      <point x="-42.2" y="790.0" type="line"/>
    </contour>
    <contour>
      <point x="-253.2" y="596.0" type="line"/>
      <point x="-232.4" y="596.0" type="line"/>
      <point x="-122.0" y="790.0" type="line"/>
      <point x="-145.6" y="790.0" type="line"/>
    </contour>
  </outline>
</glyph>
<glyph name="uni030F" format="2">
  <unicode hex="030F"/>
  <anchor x="-235.8" y="790.0" name="top"/>
  <anchor x="-192.2" y="530.0" name="_top"/>
  <outline>
    <contour>
      <point x="-242.8" y="596.0" type="line"/>
      <point x="-221.8" y="596.0" type="line"/>
      <point x="-329.4" y="790.0" type="line"/>
      <point x="-353.0" y="790.0" type="line"/>
    </contour>
    <contour>
      <point x="-139.4" y="596.0" type="line"/>
      <point x="-118.4" y="596.0" type="line"/>
      <point x="-226.0" y="790.0" type="line"/>
      <point x="-249.60000000000002" y="790.0" type="line"/>
    </contour>
  </outline>
</glyph>
<glyph name="uni0312" format="2">
  <unicode hex="0312"/>
  <anchor x="-192.2" y="530.0" name="_top"/>
  <outline>
    <contour>
      <point x="-182.0" y="595.0" type="line"/>
      <point x="-192.60000000000002" y="611.0"/>
      <point x="-198.60000000000002" y="642.0"/>
      <point x="-198.60000000000002" y="675.0" type="curve" smooth="yes"/>
      <point x="-198.60000000000002" y="710.0"/>
      <point x="-192.4" y="746.0"/>
      <point x="-165.8" y="790.0" type="curve"/>
      <point x="-190.2" y="790.0" type="line"/>
      <point x="-209.8" y="753.0"/>
      <point x="-218.60000000000002" y="720.0"/>
      <point x="-218.60000000000002" y="675.0" type="curve" smooth="yes"/>
      <point x="-218.60000000000002" y="637.0"/>
      <point x="-211.4" y="608.0"/>
      <point x="-203.8" y="595.0" type="curve"/>
    </contour>
  </outline>
</glyph>
<glyph name="uni031B" format="2">
  <unicode hex="031B"/>
  <anchor x="-126.0" y="530.0" name="_topright"/>
  <anchor x="-9.0" y="686.6" name="topright"/>
  <outline>
    <contour>
      <point x="-136.0" y="513.0" type="line"/>
      <point x="-129.2" y="513.0" type="line" smooth="yes"/>
      <point x="-47.6" y="513.0"/>
      <point x="-10.600000000000001" y="595.6"/>
      <point x="-56.400000000000006" y="685.8" type="curve"/>
      <point x="-74.0" y="677.2" type="line"/>
      <point x="-31.6" y="594.4"/>
      <point x="-67.0" y="530.0"/>
      <point x="-131.6" y="530.0" type="curve" smooth="yes"/>
      <point x="-136.0" y="530.0" type="line"/>
    </contour>
  </outline>
</glyph>
<glyph name="uni0326" format="2">
  <unicode hex="0326"/>
  <anchor x="-192.2" y="0.0" name="_bottom"/>
  <outline>
    <contour>
      <point x="-226.2" y="-220.0" type="curve"/>
      <point x="-205.0" y="-220.0" type="line"/>
      <point x="-186.4" y="-183.8"/>
      <point x="-178.2" y="-150.4"/>
      <point x="-178.2" y="-108.4" type="curve" smooth="yes"/>
      <point x="-178.2" y="-95.0"/>
      <point x="-180.0" y="-83.0"/>
      <point x="-182.4" y="-73.0" type="curve"/>
      <point x="-202.0" y="-73.0" type="line"/>
      <point x="-198.8" y="-83.4"/>
      <point x="-196.6" y="-95.4"/>
      <point x="-196.6" y="-108.4" type="curve" smooth="yes"/>
      <point x="-196.6" y="-142.6"/>
      <point x="-205.2" y="-178.4"/>
    </contour>
  </outline>
</glyph>
<glyph name="uni0327" format="2">
  <unicode hex="0327"/>
  <anchor x="-192.2" y="0.0" name="_bottom"/>
  <anchor x="-196.0" y="-220.0" name="bottom"/>
  <outline>
    <contour>
      <point x="-251.60000000000002" y="-188.6" type="curve"/>
      <point x="-258.8" y="-204.2" type="line"/>
      <point x="-235.4" y="-216.0"/>
      <point x="-213.0" y="-220.0"/>
      <point x="-196.0" y="-220.0" type="curve" smooth="yes"/>
      <point x="-151.2" y="-220.0"/>
      <point x="-131.8" y="-183.4"/>
      <point x="-131.8" y="-140.0" type="curve" smooth="yes"/>
      <point x="-131.8" y="-95.8"/>
      <point x="-156.2" y="-41.8"/>
      <point x="-189.2" y="0.0" type="curve"/>
      <point x="-208.0" y="0.0" type="line"/>
      <point x="-174.2" y="-52.4"/>
      <point x="-150.2" y="-99.6"/>
      <point x="-150.2" y="-140.0" type="curve" smooth="yes"/>
      <point x="-150.2" y="-179.4"/>
      <point x="-167.6" y="-202.4"/>
      <point x="-199.2" y="-202.4" type="curve" smooth="yes"/>
      <point x="-215.0" y="-202.4"/>
      <point x="-232.8" y="-197.6"/>
    </contour>
  </outline>
</glyph>
<glyph name="uni0328" format="2">
  <unicode hex="0328"/>
  <anchor x="-155.0" y="0.0" name="_ogonek"/>
  <outline>
    <contour>
      <point x="-178.4" y="-220.0" type="curve" smooth="yes"/>
      <point x="-166.6" y="-220.0"/>
      <point x="-157.4" y="-217.2"/>
      <point x="-148.6" y="-212.4" type="curve"/>
      <point x="-153.4" y="-197.6" type="line"/>
      <point x="-160.6" y="-201.4"/>
      <point x="-167.2" y="-202.6"/>
      <point x="-175.4" y="-202.6" type="curve" smooth="yes"/>
      <point x="-195.0" y="-202.6"/>
      <point x="-213.2" y="-192.2"/>
      <point x="-213.2" y="-152.8" type="curve" smooth="yes"/>
      <point x="-213.2" y="-100.2"/>
      <point x="-189.8" y="-51.0"/>
      <point x="-155.0" y="0.0" type="curve"/>
      <point x="-168.4" y="8.0" type="line"/>
      <point x="-209.2" y="-52.2"/>
      <point x="-232.0" y="-106.8"/>
      <point x="-232.0" y="-154.0" type="curve" smooth="yes"/>
      <point x="-232.0" y="-203.2"/>
      <point x="-207.0" y="-220.0"/>
    </contour>
  </outline>
</glyph>
<glyph name="uni0335" format="2">
  <unicode hex="0335"/>
  <anchor x="-72.6" y="350.0" name="_center"/>
  <outline>
    <contour>
      <point x="-180.0" y="340.0" type="line"/>
      <point x="34.6" y="340.0" type="line"/>
      <point x="34.6" y="360.0" type="line"/>
      <point x="-180.0" y="360.0" type="line"/>
    </contour>
  </outline>
</glyph>
<glyph name="pi" format="2">
  <advance width="426.2"/>
  <unicode hex="03C0"/>
  <outline>
    <contour>
      <point x="368.4" y="-10.0" type="curve" smooth="yes"/>
      <point x="379.4" y="-10.0"/>
      <point x="391.2" y="-7.8"/>
      <point x="405.4" y="-1.0" type="curve"/>
      <point x="398.8" y="15.6" type="line"/>
      <point x="388.0" y="10.8"/>
      <point x="378.4" y="8.8"/>
      <point x="368.8" y="8.8" type="curve" smooth="yes"/>
      <point x="347.4" y="8.8"/>
      <point x="336.8" y="24.8"/>
      <point x="336.8" y="55.0" type="curve" smooth="yes"/>
      <point x="336.8" y="511.6" type="line"/>
      <point x="398.6" y="511.6" type="line"/>
      <point x="398.6" y="530.0" type="line"/>
      <point x="189.4" y="530.0" type="line" smooth="yes"/>
      <point x="129.6" y="530.0"/>
      <point x="74.8" y="525.8"/>
      <point x="33.2" y="494.6" type="curve"/>
      <point x="41.2" y="477.6" type="line"/>
      <point x="79.0" y="502.0"/>
      <point x="114.6" y="509.0"/>
      <point x="139.0" y="510.8" type="curve"/>
      <point x="125.4" y="376.6"/>
      <point x="94.2" y="105.0"/>
      <point x="68.2" y="0.0" type="curve"/>
      <point x="88.2" y="0.0" type="line"/>
      <point x="116.2" y="115.0"/>
      <point x="147.0" y="381.6"/>
      <point x="159.0" y="511.6" type="curve"/>
      <point x="316.8" y="511.6" type="line"/>
      <point x="316.8" y="50.8" type="line" smooth="yes"/>
      <point x="316.8" y="18.4"/>
      <point x="333.6" y="-10.0"/>
    </contour>
  </outline>
</glyph>
<glyph name="endash" format="2">
  <advance width="341.6"/>
  <unicode hex="2013"/>
  <outline>
    <contour>
      <point x="11.2" y="255.0" type="line"/>
      <point x="330.4" y="255.0" type="line"/>
      <point x="330.4" y="275.0" type="line"/>
      <point x="11.2" y="275.0" type="line"/>
    </contour>
  </outline>
</glyph>
<glyph name="emdash" format="2">
  <advance width="686.4"/>
  <unicode hex="2014"/>
  <outline>
    <contour>
      <point x="0.0" y="255.0" type="line"/>
      <point x="686.4" y="255.0" type="line"/>
      <point x="686.4" y="275.0" type="line"/>
      <point x="0.0" y="275.0" type="line"/>
    </contour>
  </outline>
</glyph>
<glyph name="quoteleft" format="2">
  <advance width="121.8"/>
  <unicode hex="2018"/>
  <outline>
    <contour>
      <point x="31.8" y="430.0" type="curve"/>
      <point x="50.0" y="430.0" type="line"/>
      <point x="49.8" y="442.0"/>
      <point x="49.8" y="454.0"/>
      <point x="49.8" y="466.0" type="curve" smooth="yes"/>
      <point x="49.8" y="566.0"/>
      <point x="68.0" y="632.0"/>
      <point x="106.6" y="700.0" type="curve"/>
      <point x="87.2" y="700.0" type="line"/>
      <point x="47.8" y="632.0"/>
      <point x="30.8" y="566.0"/>
      <point x="30.8" y="466.0" type="curve" smooth="yes"/>
      <point x="30.8" y="454.0"/>
      <point x="30.8" y="442.0"/>
    </contour>
  </outline>
</glyph>
<glyph name="quoteright" format="2">
  <advance width="121.8"/>
  <unicode hex="2019"/>
  <outline>
    <contour>
      <point x="40.2" y="430.0" type="line"/>
      <point x="79.6" y="498.0"/>
      <point x="96.6" y="564.0"/>
      <point x="96.6" y="664.0" type="curve" smooth="yes"/>
      <point x="96.6" y="676.0"/>
      <point x="96.6" y="688.0"/>
      <point x="95.6" y="700.0" type="curve"/>
      <point x="77.4" y="700.0" type="line"/>
      <point x="77.6" y="688.0"/>
      <point x="77.6" y="676.0"/>
      <point x="77.6" y="664.0" type="curve" smooth="yes"/>
      <point x="77.6" y="564.0"/>
      <point x="59.4" y="498.0"/>
      <point x="20.8" y="430.0" type="curve"/>
    </contour>
  </outline>
</glyph>
<glyph name="dagger" format="2">
  <advance width="351.6"/>
  <unicode hex="2020"/>
  <outline>
    <contour>
      <point x="165.8" y="-210.0" type="line"/>
      <point x="185.8" y="-210.0" type="line"/>
      <point x="185.8" y="512.0" type="line"/>
      <point x="318.8" y="512.0" type="line"/>
      <point x="318.8" y="532.0" type="line"/>
      <point x="185.8" y="532.0" type="line"/>
      <point x="185.8" y="740.0" type="line"/>
      <point x="165.8" y="740.0" type="line"/>
      <point x="165.8" y="532.0" type="line"/>
      <point x="32.8" y="532.0" type="line"/>
      <point x="32.8" y="512.0" type="line"/>
      <point x="165.8" y="512.0" type="line"/>
    </contour>
  </outline>
</glyph>
<glyph name="daggerdbl" format="2">
  <advance width="351.6"/>
  <unicode hex="2021"/>
  <outline>
    <contour>
      <point x="318.8" y="0.0" type="line"/>
      <point x="318.8" y="20.0" type="line"/>
      <point x="185.8" y="20.0" type="line"/>
      <point x="185.8" y="510.0" type="line"/>
      <point x="318.8" y="510.0" type="line"/>
      <point x="318.8" y="530.0" type="line"/>
      <point x="185.8" y="530.0" type="line"/>
      <point x="185.8" y="740.0" type="line"/>
      <point x="165.8" y="740.0" type="line"/>
      <point x="165.8" y="530.0" type="line"/>
      <point x="32.8" y="530.0" type="line"/>
      <point x="32.8" y="510.0" type="line"/>
      <point x="165.8" y="510.0" type="line"/>
      <point x="165.8" y="20.0" type="line"/>
      <point x="32.8" y="20.0" type="line"/>
      <point x="32.8" y="0.0" type="line"/>
      <point x="165.8" y="0.0" type="line"/>
      <point x="165.8" y="-210.0" type="line"/>
      <point x="185.8" y="-210.0" type="line"/>
      <point x="185.8" y="0.0" type="line"/>
    </contour>
  </outline>
</glyph>
<glyph name="bullet" format="2">
  <advance width="231.2"/>
  <unicode hex="2022"/>
  <outline>
    <contour>
      <point x="115.6" y="233.6" type="curve" smooth="yes"/>
      <point x="161.2" y="233.6"/>
      <point x="198.0" y="270.4"/>
      <point x="198.0" y="316.0" type="curve" smooth="yes"/>
      <point x="198.0" y="361.6"/>
      <point x="161.2" y="398.4"/>
      <point x="115.6" y="398.4" type="curve" smooth="yes"/>
      <point x="70.0" y="398.4"/>
      <point x="33.2" y="361.6"/>
      <point x="33.2" y="316.0" type="curve" smooth="yes"/>
      <point x="33.2" y="270.4"/>
      <point x="70.0" y="233.6"/>
    </contour>
  </outline>
</glyph>
<glyph name="minute" format="2">
  <advance width="157.2"/>
  <unicode hex="2032"/>
  <outline>
    <contour>
      <point x="42.8" y="429.0" type="line"/>
      <point x="53.8" y="429.0" type="line"/>
      <point x="114.6" y="700.0" type="line"/>
      <point x="92.6" y="700.0" type="line"/>
    </contour>
  </outline>
</glyph>
<glyph name="guilsinglleft" format="2">
  <advance width="176.8"/>
  <unicode hex="2039"/>
  <outline>
    <contour>
      <point x="24.2" y="266.0" type="line"/>
      <point x="138.2" y="51.2" type="line"/>
      <point x="154.2" y="60.0" type="line"/>
      <point x="44.8" y="270.4" type="line"/>
      <point x="154.2" y="480.8" type="line"/>
      <point x="138.2" y="489.6" type="line"/>
      <point x="24.2" y="274.8" type="line"/>
    </contour>
  </outline>
</glyph>
<glyph name="guilsinglright" format="2">
  <advance width="176.8"/>
  <unicode hex="203A"/>
  <outline>
    <contour>
      <point x="152.6" y="274.8" type="line"/>
      <point x="38.6" y="489.6" type="line"/>
      <point x="22.6" y="480.8" type="line"/>
      <point x="132.0" y="270.4" type="line"/>
      <point x="22.6" y="60.0" type="line"/>
      <point x="38.6" y="51.2" type="line"/>
      <point x="152.6" y="266.0" type="line"/>
    </contour>
  </outline>
</glyph>
<glyph name="fraction" format="2">
  <advance width="94.4"/>
  <unicode hex="2044"/>
  <outline>
    <contour>
      <point x="-101.8" y="-12.4" type="line"/>
      <point x="212.4" y="734.4" type="line"/>
      <point x="196.2" y="741.2" type="line"/>
      <point x="-118.0" y="-5.6" type="line"/>
    </contour>
  </outline>
</glyph>
<glyph name="uni2052" format="2">
  <advance width="406.8"/>
  <unicode hex="2052"/>
  <outline>
    <contour>
      <point x="31.8" y="4.0" type="line"/>
      <point x="48.0" y="-2.8" type="line"/>
      <point x="375.20000000000005" y="696.0" type="line"/>
      <point x="359.0" y="702.8" type="line"/>
    </contour>
    <component base="period" xOffset="7.0" yOffset="666.0"/>
    <component base="period" xOffset="284.4"/>
  </outline>
</glyph>
<glyph name="uni2070" format="2">
  <advance width="299.0"/>
  <unicode hex="2070"/>
  <outline>
    <contour>
      <point x="40.6" y="568.2" type="curve" smooth="yes"/>
      <point x="40.6" y="406.6"/>
      <point x="82.6" y="360.8"/>
      <point x="148.8" y="360.8" type="curve" smooth="yes"/>
      <point x="216.2" y="360.8"/>
      <point x="258.4" y="406.6"/>
      <point x="258.4" y="568.2" type="curve" smooth="yes"/>
      <point x="258.4" y="729.2"/>
      <point x="217.0" y="773.4"/>
      <point x="148.8" y="773.4" type="curve" smooth="yes"/>
      <point x="82.6" y="773.4"/>
      <point x="40.6" y="729.2"/>
    </contour>
    <contour>
      <point x="59.0" y="568.2" type="curve" smooth="yes"/>
      <point x="59.0" y="716.0"/>
      <point x="95.0" y="755.6"/>
      <point x="148.8" y="755.6" type="curve" smooth="yes"/>
      <point x="203.8" y="755.6"/>
      <point x="240.0" y="716.0"/>
      <point x="240.0" y="568.2" type="curve" smooth="yes"/>
      <point x="240.0" y="420.4"/>
      <point x="203.8" y="378.4"/>
      <point x="148.8" y="378.4" type="curve" smooth="yes"/>
      <point x="95.0" y="378.4"/>
      <point x="59.0" y="420.4"/>
    </contour>
  </outline>
</glyph>
